<svg version="1.1" id="Layer_1" xmlns="http://www.w3.org/2000/svg" xmlns:xlink="http://www.w3.org/1999/xlink" x="0px" y="0px"
	 width="100%" viewBox="0 0 64 64" enable-background="new 0 0 64 64" xml:space="preserve">
<path fill="#2C374B" opacity="1.000000" stroke="none" 
	d="
M40.000038,65.000000 
	C26.666685,65.000000 13.833352,65.000000 1.000014,65.000000 
	C1.000010,43.666672 1.000010,22.333345 1.000005,1.000014 
	C22.333326,1.000010 43.666653,1.000010 64.999985,1.000005 
	C64.999985,22.333326 64.999985,43.666653 64.999992,64.999985 
	C56.833351,65.000000 48.666702,65.000000 40.000038,65.000000 
M23.053755,52.517174 
	C23.339558,52.625431 23.625359,52.733688 24.586088,53.190552 
	C28.137550,56.438721 32.140789,58.479195 36.816242,55.995739 
	C42.009277,53.237373 47.081902,50.201302 51.939724,46.893669 
	C53.415192,45.889042 54.757000,43.628460 54.862968,41.865173 
	C55.221714,35.895588 55.125790,29.886305 54.901657,23.903505 
	C54.851070,22.553087 53.916927,20.743698 52.814140,20.007763 
	C47.280289,16.314800 41.689777,12.652397 35.812038,9.563733 
	C34.147068,8.688817 31.169355,9.192861 29.276747,10.086982 
	C24.251362,12.461112 19.281097,15.092508 14.725286,18.251005 
	C12.895683,19.519451 11.343514,22.365358 11.167127,24.611258 
	C10.712976,30.393862 11.097873,36.242367 11.016678,42.846329 
	C10.277669,46.200504 13.227743,46.740849 15.153083,47.795525 
	C15.474452,47.971569 17.167696,45.987076 17.991022,44.832638 
	C19.806919,42.286442 21.472309,39.632908 23.199114,37.023170 
	C23.650824,37.287605 24.102535,37.552036 24.554245,37.816467 
	C22.396404,41.619556 20.238564,45.422646 17.938141,49.477028 
	C19.574492,50.323620 21.233683,51.182030 23.053755,52.517174 
z"/>
<path fill="#96BDDB" opacity="1.000000" stroke="none" 
	d="
M11.147512,42.064537 
	C11.097873,36.242367 10.712976,30.393862 11.167127,24.611258 
	C11.343514,22.365358 12.895683,19.519451 14.725286,18.251005 
	C19.281097,15.092508 24.251362,12.461112 29.276747,10.086982 
	C31.169355,9.192861 34.147068,8.688817 35.812038,9.563733 
	C41.689777,12.652397 47.280289,16.314800 52.814140,20.007763 
	C53.916927,20.743698 54.851070,22.553087 54.901657,23.903505 
	C55.125790,29.886305 55.221714,35.895588 54.862968,41.865173 
	C54.757000,43.628460 53.415192,45.889042 51.939724,46.893669 
	C47.081902,50.201302 42.009277,53.237373 36.816242,55.995739 
	C32.140789,58.479195 28.137550,56.438721 24.246569,52.803749 
	C23.907049,52.416946 23.815058,52.002102 23.959570,51.732513 
	C24.444633,50.958729 24.785183,50.454533 25.428383,50.114841 
	C32.438919,55.298912 34.445400,55.258434 39.523472,49.997307 
	C41.932709,48.331680 43.985847,46.677036 46.273727,45.021046 
	C46.508465,45.019699 46.973812,45.081890 47.189064,45.321877 
	C51.952244,45.438354 50.420540,41.221294 51.896004,38.523018 
	C51.971897,33.740536 52.140724,29.412376 51.904610,25.106424 
	C51.829174,23.730799 51.035831,21.865503 49.959404,21.167864 
	C45.886974,18.528500 41.548325,16.302721 37.339054,13.870668 
	C34.500854,12.230801 31.835302,11.585592 28.738575,13.598788 
	C24.638260,16.264420 20.188679,18.393993 16.099396,21.074602 
	C15.007601,21.790295 14.168226,23.649193 14.098688,25.027916 
	C13.864695,29.667318 14.029935,34.326859 13.923835,39.280334 
	C12.919326,40.409500 12.033419,41.237019 11.147512,42.064537 
z"/>
<path fill="#FEFEFE" opacity="1.000000" stroke="none" 
	d="
M11.082094,42.455433 
	C12.033419,41.237019 12.919326,40.409500 14.258909,39.177948 
	C17.220608,34.639595 19.562035,30.391106 22.291386,26.408464 
	C24.334131,23.427706 26.986265,21.264462 30.605455,24.136053 
	C29.102385,27.012602 27.704353,29.688124 26.306324,32.363647 
	C26.731741,32.557125 27.157160,32.750607 27.582579,32.944088 
	C28.353449,31.949768 29.124319,30.955452 30.231979,29.878052 
	C31.031767,28.826622 31.494768,27.858274 31.984816,26.508492 
	C32.659435,23.430164 34.286484,22.383453 37.014053,23.511139 
	C37.369221,24.943703 37.709957,26.031658 38.031151,27.431717 
	C37.960819,28.156158 37.910027,28.568499 37.891850,28.999645 
	C37.924461,29.018454 37.937092,28.944405 37.595982,29.108326 
	C36.065208,32.016174 32.216290,33.639721 33.886757,37.505241 
	C34.002003,37.470379 33.931309,37.240181 33.887657,37.185741 
	C33.844006,37.131302 33.735874,37.043068 33.403839,36.833744 
	C30.423109,41.066391 27.774420,45.508366 25.125732,49.950336 
	C24.785183,50.454533 24.444633,50.958729 23.729603,51.740608 
	C23.355124,52.018295 22.892872,52.040440 22.892872,52.040440 
	C21.233683,51.182030 19.574492,50.323620 17.938141,49.477028 
	C20.238564,45.422646 22.396404,41.619556 24.554245,37.816467 
	C24.102535,37.552036 23.650824,37.287605 23.199114,37.023170 
	C21.472309,39.632908 19.806919,42.286442 17.991022,44.832638 
	C17.167696,45.987076 15.474452,47.971569 15.153083,47.795525 
	C13.227743,46.740849 10.277669,46.200504 11.082094,42.455433 
z"/>
<path fill="#FEFEFE" opacity="1.000000" stroke="none" 
	d="
M22.973312,52.278809 
	C22.892872,52.040440 23.355124,52.018295 23.585091,52.010201 
	C23.815058,52.002102 23.907049,52.416946 23.909103,52.629448 
	C23.625359,52.733688 23.339558,52.625431 22.973312,52.278809 
z"/>
<path fill="#2C374B" opacity="1.000000" stroke="none" 
	d="
M36.999619,23.166533 
	C34.286484,22.383453 32.659435,23.430164 31.678429,26.636951 
	C30.861725,28.084942 30.378458,29.023039 29.895189,29.961134 
	C29.124319,30.955452 28.353449,31.949768 27.582579,32.944088 
	C27.157160,32.750607 26.731741,32.557125 26.306324,32.363647 
	C27.704353,29.688124 29.102385,27.012602 30.605455,24.136053 
	C26.986265,21.264462 24.334131,23.427706 22.291386,26.408464 
	C19.562035,30.391106 17.220608,34.639595 14.377511,38.876305 
	C14.029935,34.326859 13.864695,29.667318 14.098688,25.027916 
	C14.168226,23.649193 15.007601,21.790295 16.099396,21.074602 
	C20.188679,18.393993 24.638260,16.264420 28.738575,13.598788 
	C31.835302,11.585592 34.500854,12.230801 37.339054,13.870668 
	C41.548325,16.302721 45.886974,18.528500 49.959404,21.167864 
	C51.035831,21.865503 51.829174,23.730799 51.904610,25.106424 
	C52.140724,29.412376 51.971897,33.740536 51.599525,38.374817 
	C48.255219,34.495430 45.271358,30.301315 42.435749,26.315584 
	C40.775208,27.282644 39.317223,28.131742 37.859238,28.980839 
	C37.910027,28.568499 37.960819,28.156158 38.369308,27.252773 
	C38.151211,25.563326 37.575417,24.364929 36.999619,23.166533 
z"/>
<path fill="#28A0EF" opacity="1.000000" stroke="none" 
	d="
M37.891846,28.999645 
	C39.317223,28.131742 40.775208,27.282644 42.435749,26.315584 
	C45.271358,30.301315 48.255219,34.495430 51.535553,38.837746 
	C50.420540,41.221294 51.952244,45.438354 47.122692,44.997066 
	C45.853230,43.605270 44.865391,42.778267 43.921112,41.580856 
	C41.955479,37.121769 39.946285,33.033089 37.937092,28.944405 
	C37.937092,28.944405 37.924461,29.018454 37.891846,28.999645 
z"/>
<path fill="#2C374B" opacity="1.000000" stroke="none" 
	d="
M25.428381,50.114841 
	C27.774420,45.508366 30.423109,41.066391 33.201309,37.348888 
	C33.235737,38.426979 33.140652,38.780602 33.058620,39.487522 
	C35.103577,43.229977 37.135475,46.619133 39.167374,50.008289 
	C34.445400,55.258434 32.438919,55.298912 25.428381,50.114841 
z"/>
<path fill="#28A0EF" opacity="1.000000" stroke="none" 
	d="
M39.523472,49.997307 
	C37.135475,46.619133 35.103577,43.229977 33.361137,39.268341 
	C33.744167,38.210636 33.837738,37.725407 33.931305,37.240181 
	C33.931309,37.240181 34.002003,37.470379 34.178631,37.267735 
	C35.254719,36.042511 36.154179,35.019932 37.302937,33.713932 
	C39.023808,36.677952 40.531742,39.275211 42.108704,42.199524 
	C43.464817,43.358517 44.751904,44.190453 46.038990,45.022392 
	C43.985847,46.677036 41.932709,48.331680 39.523472,49.997307 
z"/>
<path fill="#28A0EF" opacity="1.000000" stroke="none" 
	d="
M46.273727,45.021046 
	C44.751904,44.190453 43.464817,43.358517 42.412979,42.243622 
	C43.058002,41.957531 43.467781,41.954395 43.877556,41.951263 
	C44.865391,42.778267 45.853230,43.605270 46.907440,44.757080 
	C46.973812,45.081890 46.508465,45.019699 46.273727,45.021046 
z"/>
<path fill="#2C374B" opacity="1.000000" stroke="none" 
	d="
M43.921112,41.580856 
	C43.467781,41.954395 43.058002,41.957531 42.343952,41.916569 
	C40.531742,39.275211 39.023808,36.677952 37.302937,33.713932 
	C36.154179,35.019932 35.254719,36.042511 34.063385,37.302597 
	C32.216290,33.639721 36.065208,32.016174 37.595982,29.108326 
	C39.946285,33.033089 41.955479,37.121769 43.921112,41.580856 
z"/>
<path fill="#FEFEFE" opacity="1.000000" stroke="none" 
	d="
M37.014053,23.511139 
	C37.575417,24.364929 38.151211,25.563326 38.388847,26.940670 
	C37.709957,26.031658 37.369221,24.943703 37.014053,23.511139 
z"/>
<path fill="#FEFEFE" opacity="1.000000" stroke="none" 
	d="
M30.231979,29.878052 
	C30.378458,29.023039 30.861725,28.084942 31.651379,27.018387 
	C31.494768,27.858274 31.031767,28.826622 30.231979,29.878052 
z"/>
<path fill="#2C374B" opacity="1.000000" stroke="none" 
	d="
M33.887657,37.185741 
	C33.837738,37.725407 33.744167,38.210636 33.348083,38.915043 
	C33.140652,38.780602 33.235737,38.426979 33.533348,37.558212 
	C33.735874,37.043068 33.844006,37.131302 33.887657,37.185741 
z"/>
</svg>