<?xml version="1.0" encoding="UTF-8"?>
<svg version="1.1" xmlns="http://www.w3.org/2000/svg" width="192" height="192">
<path d="M0 0 C20.74214802 16.36295874 35.24768955 37.80942542 39.08984375 64.4375 C41.23429433 94.7507401 35.20654084 119.85377198 15.19946289 143.1015625 C-0.24141956 160.40289245 -22.66162943 173.00505778 -46.06445312 174.66064453 C-76.91659688 175.69954325 -101.60641605 169.19525544 -124.59375 147.79467773 C-141.14677537 131.75067991 -152.46398239 109.15993104 -153.24609375 85.93359375 C-153.63659358 55.62397823 -146.33434962 31.45758762 -124.84375 9.28515625 C-91.79128842 -23.47863754 -37.48370416 -27.42936077 0 0 Z " fill="#FEFEFE" transform="translate(152.91015625,17.5625)"/>
<path d="M0 0 C1.68416016 0.30164063 1.68416016 0.30164063 3.40234375 0.609375 C12.57766254 2.43430028 12.57766254 2.43430028 14.27734375 4.7109375 C19.36098369 20.8137105 19.36098369 20.8137105 18 27 C16.08360654 29.07396359 14.08359686 30.79624016 11.84765625 32.51953125 C9.88563935 33.88009113 9.88563935 33.88009113 9 36 C8.34 36 7.68 36 7 36 C7 36.66 7 37.32 7 38 C5.42578125 39.48046875 5.42578125 39.48046875 3.3125 41.1875 C0.48074044 43.56557977 -1.68766995 45.76628982 -3.6875 48.875 C-6 52 -6 52 -8.8125 52.9375 C-9.8953125 52.9684375 -9.8953125 52.9684375 -11 53 C-11.33 54.65 -11.66 56.3 -12 58 C-11.02417969 58.21914062 -10.04835937 58.43828125 -9.04296875 58.6640625 C-7.77066406 58.98117188 -6.49835938 59.29828125 -5.1875 59.625 C-3.92292969 59.92664063 -2.65835938 60.22828125 -1.35546875 60.5390625 C2 62 2 62 3.875 64.890625 C5.7129385 69.9704828 7 74.53234809 7 80 C11.58093132 76.37128474 14.80916027 72.95130303 18 68 C21.4 65 21.4 65 24 65 C24.2475 64.38125 24.495 63.7625 24.75 63.125 C26.23740369 60.59641373 27.43678009 60.28160996 30 59 C30.67688562 57.67182528 31.3419927 56.33762798 32 55 C34.03979875 52.23800224 36.17469182 49.96592021 39 48 C42.31787158 47.82537518 43.89921626 48.12821416 47 49 C48.70542969 49.2784375 48.70542969 49.2784375 50.4453125 49.5625 C59.80446001 51.43823729 59.80446001 51.43823729 62.9765625 55.58203125 C64.35126199 58.7132912 65.25728514 61.66393822 66 65 C66.22300781 65.93457031 66.44601563 66.86914062 66.67578125 67.83203125 C67.48681554 72.53603012 67.48681554 72.53603012 67 75 C64.84765625 77.421875 64.84765625 77.421875 62 80 C61.05181947 80.95818728 60.11047318 81.92318157 59.17578125 82.89453125 C58.2213791 83.86721196 57.26695188 84.83986808 56.3125 85.8125 C55.82716797 86.31458984 55.34183594 86.81667969 54.84179688 87.33398438 C53.59875394 88.59417273 52.30300108 89.80191044 51 91 C50.34 91 49.68 91 49 91 C48.505 92.485 48.505 92.485 48 94 C46.5625 95.6875 46.5625 95.6875 45 97 C44.34 97 43.68 97 43 97 C42.505 98.485 42.505 98.485 42 100 C41.34 100 40.68 100 40 100 C39.72671875 100.5878125 39.4534375 101.175625 39.171875 101.78125 C36.71076135 106.44095851 33.33646742 110.12720495 28.9375 113 C25.78807666 115.14428823 24.4166457 117.07847917 22.36328125 120.1953125 C20.40528832 122.78726876 18.01070551 124.66128008 15.453125 126.640625 C13.71998707 128.04543372 13.71998707 128.04543372 13 131 C10.69 131 8.38 131 6 131 C6 130.34 6 129.68 6 129 C4.2675 128.8453125 4.2675 128.8453125 2.5 128.6875 C-1.92339347 128.09823799 -6.1659497 127.39628144 -10 125 C-12.01148245 121.67064974 -12.79247422 118.98402952 -13.58984375 115.203125 C-14.7695533 109.11954678 -14.7695533 109.11954678 -19 104.9375 C-21.26647397 104.25465207 -23.44520491 103.94341669 -25.796875 103.64453125 C-28.63818674 103.26493802 -31.2704598 102.88164594 -34 102 C-36.0625 98.875 -36.0625 98.875 -37 95 C-37.1753125 94.319375 -37.350625 93.63875 -37.53125 92.9375 C-38.25902179 90.11203305 -38.94177558 87.28422144 -39.52734375 84.42578125 C-41.53260872 81.122679 -43.49299731 80.8485592 -47.12109375 79.88085938 C-47.90613281 79.69330078 -48.69117187 79.50574219 -49.5 79.3125 C-51.05351993 78.91838041 -52.60568612 78.51887472 -54.15625 78.11328125 C-54.84525391 77.94610596 -55.53425781 77.77893066 -56.24414062 77.60668945 C-58 77 -58 77 -60 75 C-60.98016717 72.2329794 -61.86277433 69.50002601 -62.6875 66.6875 C-62.92533203 65.92759766 -63.16316406 65.16769531 -63.40820312 64.38476562 C-64.63312911 60.25019141 -65.39692258 57.24156492 -64 53 C-63.01 53 -62.02 53 -61 53 C-61 52.34 -61 51.68 -61 51 C-60.34 51 -59.68 51 -59 51 C-58.76966064 50.44296387 -58.53932129 49.88592773 -58.30200195 49.31201172 C-56.64634928 46.37200969 -54.57713017 44.37084339 -52.16796875 42.0078125 C-51.69434402 41.53938934 -51.2207193 41.07096619 -50.73274231 40.58834839 C-49.2223592 39.09570783 -47.70546359 37.60992769 -46.1875 36.125 C-44.68109149 34.64640285 -43.17624307 33.16630218 -41.6743927 31.68307495 C-40.30470915 30.33109341 -38.93019929 28.9840065 -37.55541992 27.63720703 C-34.8682599 24.86404351 -32.45512641 21.97849094 -30 19 C-28.69988675 17.77621915 -27.36937702 16.58324892 -26 15.4375 C-20.27381781 10.82746848 -20.27381781 10.82746848 -16 5 C-15.34 5 -14.68 5 -14 5 C-14 4.34 -14 3.68 -14 3 C-9.55082874 -2.02325788 -6.01115289 -1.22498021 0 0 Z " fill="#8A84CC" transform="translate(95,31)"/>
<path d="M0 0 C1.4851531 0.37274431 2.9634365 0.77306681 4.4375 1.1875 C5.57445312 1.373125 6.71140625 1.55875 7.8828125 1.75 C17.24196001 3.62573729 17.24196001 3.62573729 20.4140625 7.76953125 C21.78876199 10.9007912 22.69478514 13.85143822 23.4375 17.1875 C23.66050781 18.12207031 23.88351563 19.05664062 24.11328125 20.01953125 C24.92431554 24.72353012 24.92431554 24.72353012 24.4375 27.1875 C22.28515625 29.609375 22.28515625 29.609375 19.4375 32.1875 C18.48931947 33.14568728 17.54797318 34.11068157 16.61328125 35.08203125 C15.6588791 36.05471196 14.70445188 37.02736808 13.75 38 C13.26466797 38.50208984 12.77933594 39.00417969 12.27929688 39.52148438 C11.03625394 40.78167273 9.74050108 41.98941044 8.4375 43.1875 C7.7775 43.1875 7.1175 43.1875 6.4375 43.1875 C6.1075 44.1775 5.7775 45.1675 5.4375 46.1875 C4 47.875 4 47.875 2.4375 49.1875 C1.7775 49.1875 1.1175 49.1875 0.4375 49.1875 C0.1075 50.1775 -0.2225 51.1675 -0.5625 52.1875 C-1.2225 52.1875 -1.8825 52.1875 -2.5625 52.1875 C-2.83578125 52.7753125 -3.1090625 53.363125 -3.390625 53.96875 C-5.85173865 58.62845851 -9.22603258 62.31470495 -13.625 65.1875 C-16.77442334 67.33178823 -18.1458543 69.26597917 -20.19921875 72.3828125 C-22.15721168 74.97476876 -24.55179449 76.84878008 -27.109375 78.828125 C-28.84251293 80.23293372 -28.84251293 80.23293372 -29.5625 83.1875 C-31.8725 83.1875 -34.1825 83.1875 -36.5625 83.1875 C-36.5625 82.5275 -36.5625 81.8675 -36.5625 81.1875 C-37.7175 81.084375 -38.8725 80.98125 -40.0625 80.875 C-44.48589347 80.28573799 -48.7284497 79.58378144 -52.5625 77.1875 C-54.57398245 73.85814974 -55.35497422 71.17152952 -56.15234375 67.390625 C-56.79149515 64.53146252 -57.42686229 61.89014167 -58.5625 59.1875 C-62.40045876 56.77100745 -66.10439768 55.86297005 -70.5625 55.1875 C-70.5625 54.5275 -70.5625 53.8675 -70.5625 53.1875 C-69.10369891 53.32857747 -67.64546449 53.47552415 -66.1875 53.625 C-65.37539062 53.70621094 -64.56328125 53.78742188 -63.7265625 53.87109375 C-61.5625 54.1875 -61.5625 54.1875 -59.5625 55.1875 C-60.036875 54.011875 -60.51125 52.83625 -61 51.625 C-62.16619054 48.62165998 -62.59594184 46.67751188 -62.8125 43.375 C-63.06 42.323125 -63.3075 41.27125 -63.5625 40.1875 C-68.22591088 37.31007627 -73.15296087 36.56665651 -78.5234375 35.71484375 C-79.19632813 35.54082031 -79.86921875 35.36679688 -80.5625 35.1875 C-80.8925 34.5275 -81.2225 33.8675 -81.5625 33.1875 C-80.10426788 33.1604957 -78.64589325 33.14110213 -77.1875 33.125 C-75.96933594 33.10759766 -75.96933594 33.10759766 -74.7265625 33.08984375 C-72.5625 33.1875 -72.5625 33.1875 -70.5625 34.1875 C-68.90015189 34.33351706 -67.23099493 34.40839834 -65.5625 34.4375 C-64.675625 34.46328125 -63.78875 34.4890625 -62.875 34.515625 C-62.111875 34.40734375 -61.34875 34.2990625 -60.5625 34.1875 C-58.1330484 30.5433226 -58.40070425 28.47508728 -58.5625 24.1875 C-56.81622522 26.80691217 -56.17527612 28.22574877 -55.5625 31.1875 C-54.9025 31.1875 -54.2425 31.1875 -53.5625 31.1875 C-53.5625 30.5275 -53.5625 29.8675 -53.5625 29.1875 C-52.5725 28.8575 -51.5825 28.5275 -50.5625 28.1875 C-50.5625 28.8475 -50.5625 29.5075 -50.5625 30.1875 C-46.1075 31.1775 -46.1075 31.1775 -41.5625 32.1875 C-41.5625 32.8475 -41.5625 33.5075 -41.5625 34.1875 C-40.2425 34.5175 -38.9225 34.8475 -37.5625 35.1875 C-37.0675 34.1975 -37.0675 34.1975 -36.5625 33.1875 C-35.5725 33.6825 -35.5725 33.6825 -34.5625 34.1875 C-35.10337318 37.97361227 -36.67972332 39.74150767 -39.5625 42.1875 C-40.2225 42.1875 -40.8825 42.1875 -41.5625 42.1875 C-41.830625 42.826875 -42.09875 43.46625 -42.375 44.125 C-43.5625 46.1875 -43.5625 46.1875 -46.5625 47.1875 C-47.26401152 48.5028341 -47.92775925 49.83867592 -48.5625 51.1875 C-49.09875 51.703125 -49.635 52.21875 -50.1875 52.75 C-51.90811132 54.21728279 -51.90811132 54.21728279 -51.5625 57.1875 C-44.6325 58.6725 -44.6325 58.6725 -37.5625 60.1875 C-36.9025 58.8675 -36.2425 57.5475 -35.5625 56.1875 C-34.08031921 54.89996949 -32.59417656 53.61583351 -31.06713867 52.38183594 C-25.86452741 48.35928527 -25.86452741 48.35928527 -22.9609375 42.71484375 C-23.25523938 40.39622216 -23.80830035 38.39622754 -24.5625 36.1875 C-24.7771238 34.83736659 -24.96716286 33.48294368 -25.125 32.125 C-25.269375 31.155625 -25.41375 30.18625 -25.5625 29.1875 C-26.2225 29.1875 -26.8825 29.1875 -27.5625 29.1875 C-26.08557692 24.51057692 -26.08557692 24.51057692 -23.4375 22.875 C-22.81875 22.648125 -22.2 22.42125 -21.5625 22.1875 C-21.8925 23.5075 -22.2225 24.8275 -22.5625 26.1875 C-21.9025 26.5175 -21.2425 26.8475 -20.5625 27.1875 C-21.5525 27.6825 -21.5525 27.6825 -22.5625 28.1875 C-22.01144091 32.1367568 -21.17314629 35.53670174 -19.5625 39.1875 C-17.32178906 38.18304337 -15.68495015 37.30995015 -13.9375 35.5625 C-13.48375 35.10875 -13.03 34.655 -12.5625 34.1875 C-11.9025 34.1875 -11.2425 34.1875 -10.5625 34.1875 C-10.5625 33.1975 -10.5625 32.2075 -10.5625 31.1875 C-11.696875 30.89875 -12.83125 30.61 -14 30.3125 C-15.7634375 29.755625 -15.7634375 29.755625 -17.5625 29.1875 C-18.0575 28.1975 -18.0575 28.1975 -18.5625 27.1875 C-17.68207031 27.24550781 -16.80164063 27.30351563 -15.89453125 27.36328125 C-9.54587737 27.86193305 -9.54587737 27.86193305 -3.62109375 26.109375 C-2.13118254 24.63710717 -2.13118254 24.63710717 -0.5625 22.1875 C-0.0675 21.6925 -0.0675 21.6925 0.4375 21.1875 C0.77606828 15.86076964 0.77606828 15.86076964 -1.5625 11.1875 C-1.6875 8 -1.6875 8 -1.5625 5.1875 C-2.37654297 5.92806641 -2.37654297 5.92806641 -3.20703125 6.68359375 C-3.92246094 7.32425781 -4.63789063 7.96492188 -5.375 8.625 C-6.08269531 9.26308594 -6.79039062 9.90117188 -7.51953125 10.55859375 C-9.5625 12.1875 -9.5625 12.1875 -12.5625 13.1875 C-13.24736725 14.51157669 -13.91120203 15.84659241 -14.5625 17.1875 C-16.5625 19.4375 -16.5625 19.4375 -18.5625 21.1875 C-19.2225 21.1875 -19.8825 21.1875 -20.5625 21.1875 C-19.36336322 16.79066512 -18.1336885 14.08909066 -14.5625 11.1875 C-13.9025 11.1875 -13.2425 11.1875 -12.5625 11.1875 C-12.29695313 10.60613281 -12.03140625 10.02476563 -11.7578125 9.42578125 C-9.08512994 4.42105215 -5.86450044 0.30865792 0 0 Z " fill="#9479CC" transform="translate(137.5625,78.8125)"/>
<path d="M0 0 C1.68416016 0.30164063 1.68416016 0.30164063 3.40234375 0.609375 C12.57766254 2.43430028 12.57766254 2.43430028 14.27734375 4.7109375 C19.36098369 20.8137105 19.36098369 20.8137105 18 27 C16.08360654 29.07396359 14.08359686 30.79624016 11.84765625 32.51953125 C9.88563935 33.88009113 9.88563935 33.88009113 9 36 C8.34 36 7.68 36 7 36 C7 36.66 7 37.32 7 38 C5.42578125 39.48046875 5.42578125 39.48046875 3.3125 41.1875 C0.48074044 43.56557977 -1.68766995 45.76628982 -3.6875 48.875 C-6 52 -6 52 -8.8125 52.9375 C-9.8953125 52.9684375 -9.8953125 52.9684375 -11 53 C-11.33 53.99 -11.66 54.98 -12 56 C-12.99 56 -13.98 56 -15 56 C-15 55.34 -15 54.68 -15 54 C-14.34 54 -13.68 54 -13 54 C-12.34 52.35 -11.68 50.7 -11 49 C-12.5188459 48.65772487 -14.04022533 48.32668786 -15.5625 48 C-16.40941406 47.814375 -17.25632813 47.62875 -18.12890625 47.4375 C-24.14321134 46.30249881 -24.14321134 46.30249881 -29.79125977 48.09375 C-31.64981058 49.63489979 -33.32005223 51.26647759 -35 53 C-35.89525391 53.82951172 -35.89525391 53.82951172 -36.80859375 54.67578125 C-40.00307467 57.84536577 -40.00307467 57.84536577 -41.16821289 62.046875 C-40.90820798 64.44358441 -40.90820798 64.44358441 -40 68 C-39.8082937 69.66618808 -39.61985411 71.33276246 -39.4375 73 C-39.31181641 74.1446875 -39.31181641 74.1446875 -39.18359375 75.3125 C-39.09271484 76.1478125 -39.09271484 76.1478125 -39 77 C-38.34 77 -37.68 77 -37 77 C-36.61328125 76.11054688 -36.61328125 76.11054688 -36.21875 75.203125 C-34.90230105 72.82339035 -33.57419218 71.49021208 -31.5 69.75 C-30.58734375 68.96882813 -30.58734375 68.96882813 -29.65625 68.171875 C-28 67 -28 67 -26 67 C-26.8584537 72.05038344 -30.05285436 74.95139158 -34 78 C-37.4375 78.9375 -37.4375 78.9375 -40 79 C-43.57011026 75.267612 -44.10913442 70.9050011 -45 66 C-46.32 65.67 -47.64 65.34 -49 65 C-48.67 63.68 -48.34 62.36 -48 61 C-52.95 60.67 -57.9 60.34 -63 60 C-63 59.01 -63 58.02 -63 57 C-63.66 57 -64.32 57 -65 57 C-64.67 55.68 -64.34 54.36 -64 53 C-63.01 53 -62.02 53 -61 53 C-61 52.34 -61 51.68 -61 51 C-60.34 51 -59.68 51 -59 51 C-58.76966064 50.44296387 -58.53932129 49.88592773 -58.30200195 49.31201172 C-56.64634928 46.37200969 -54.57713017 44.37084339 -52.16796875 42.0078125 C-51.69434402 41.53938934 -51.2207193 41.07096619 -50.73274231 40.58834839 C-49.2223592 39.09570783 -47.70546359 37.60992769 -46.1875 36.125 C-44.68109149 34.64640285 -43.17624307 33.16630218 -41.6743927 31.68307495 C-40.30470915 30.33109341 -38.93019929 28.9840065 -37.55541992 27.63720703 C-34.8682599 24.86404351 -32.45512641 21.97849094 -30 19 C-28.69988675 17.77621915 -27.36937702 16.58324892 -26 15.4375 C-20.27381781 10.82746848 -20.27381781 10.82746848 -16 5 C-15.34 5 -14.68 5 -14 5 C-14 4.34 -14 3.68 -14 3 C-9.55082874 -2.02325788 -6.01115289 -1.22498021 0 0 Z " fill="#9185CF" transform="translate(95,31)"/>
<path d="M0 0 C1.74627478 2.61941217 2.38722388 4.03824877 3 7 C3.66 7 4.32 7 5 7 C5 6.34 5 5.68 5 5 C5.99 4.67 6.98 4.34 8 4 C8 4.66 8 5.32 8 6 C12.455 6.99 12.455 6.99 17 8 C17 8.66 17 9.32 17 10 C18.32 10.33 19.64 10.66 21 11 C21.33 10.34 21.66 9.68 22 9 C22.66 9.33 23.32 9.66 24 10 C23.45912682 13.78611227 21.88277668 15.55400767 19 18 C18.34 18 17.68 18 17 18 C16.731875 18.639375 16.46375 19.27875 16.1875 19.9375 C15 22 15 22 12 23 C11.29848848 24.3153341 10.63474075 25.65117592 10 27 C9.46375 27.515625 8.9275 28.03125 8.375 28.5625 C6.65438868 30.02978279 6.65438868 30.02978279 7 33 C14.97429403 35.0277619 14.97429403 35.0277619 23 34 C24.62514468 32.54166642 24.62514468 32.54166642 26 31 C26.62777344 30.87625 27.25554687 30.7525 27.90234375 30.625 C31.16829725 29.65190399 32.38141737 27.25590062 34.33984375 24.59375 C36.55757148 22.46473137 37.9446823 22.21634475 41 22 C44.11328125 22.55859375 44.11328125 22.55859375 47.3125 23.4375 C48.38113281 23.72496094 49.44976562 24.01242188 50.55078125 24.30859375 C51.35902344 24.53675781 52.16726562 24.76492187 53 25 C53 26.32 53 27.64 53 29 C52.01 29 51.02 29 50 29 C49.731875 29.598125 49.46375 30.19625 49.1875 30.8125 C48.00082594 32.99847854 46.90400887 34.41332594 45 36 C44.34 36 43.68 36 43 36 C42.9071875 36.86625 42.9071875 36.86625 42.8125 37.75 C41.6812921 40.88257571 39.62052199 42.03460851 37 44 C36.505 44.99 36.505 44.99 36 46 C35.01 46 34.02 46 33 46 C33 46.66 33 47.32 33 48 C33.33 48.33 33.66 48.66 34 49 C34 50.32 34 51.64 34 53 C32.70264493 54.04625409 31.36733028 55.04701223 30 56 C29.67 56.99 29.34 57.98 29 59 C26.69 59 24.38 59 22 59 C22 58.34 22 57.68 22 57 C20.845 56.896875 19.69 56.79375 18.5 56.6875 C14.07660653 56.09823799 9.8340503 55.39628144 6 53 C3.98851755 49.67064974 3.20752578 46.98402952 2.41015625 43.203125 C1.77100485 40.34396252 1.13563771 37.70264167 0 35 C-3.83795876 32.58350745 -7.54189768 31.67547005 -12 31 C-12 30.34 -12 29.68 -12 29 C-10.54119891 29.14107747 -9.08296449 29.28802415 -7.625 29.4375 C-6.81289062 29.51871094 -6.00078125 29.59992188 -5.1640625 29.68359375 C-3 30 -3 30 -1 31 C-1.474375 29.824375 -1.94875 28.64875 -2.4375 27.4375 C-3.60369054 24.43415998 -4.03344184 22.49001188 -4.25 19.1875 C-4.4975 18.135625 -4.745 17.08375 -5 16 C-9.66341088 13.12257627 -14.59046087 12.37915651 -19.9609375 11.52734375 C-20.63382813 11.35332031 -21.30671875 11.17929688 -22 11 C-22.33 10.34 -22.66 9.68 -23 9 C-21.54176788 8.9729957 -20.08339325 8.95360213 -18.625 8.9375 C-17.81289063 8.92589844 -17.00078125 8.91429688 -16.1640625 8.90234375 C-14 9 -14 9 -12 10 C-10.33765189 10.14601706 -8.66849493 10.22089834 -7 10.25 C-6.113125 10.27578125 -5.22625 10.3015625 -4.3125 10.328125 C-3.549375 10.21984375 -2.78625 10.1115625 -2 10 C0.4294516 6.3558226 0.16179575 4.28758728 0 0 Z " fill="#7173C0" transform="translate(79,103)"/>
<path d="M0 0 C-1.64990206 4.29597139 -4.81742807 7.00517646 -8.0625 10.125 C-12.0044894 13.69553366 -12.0044894 13.69553366 -15 18 C-14.35933594 18.12117188 -13.71867187 18.24234375 -13.05859375 18.3671875 C-7.95071067 19.35679227 -2.97749731 20.48510951 2 22 C3.33583899 26.84241633 4.25328119 30.93437617 4 36 C1.84622436 33.37801226 0.59927826 31.35595828 0 28 C-3.21043882 29.38188453 -5.04936365 30.92421903 -7.25 33.625 C-7.77078125 34.25664063 -8.2915625 34.88828125 -8.828125 35.5390625 C-9.21484375 36.02117187 -9.6015625 36.50328125 -10 37 C-7.20351925 37.75922554 -4.50729681 38.21682698 -1.625 38.5 C1.94501379 38.8717535 5.46542479 39.36558907 9 40 C5.375 45.875 5.375 45.875 2 47 C1.67 47.99 1.34 48.98 1 50 C0.01 50 -0.98 50 -2 50 C-2 49.34 -2 48.68 -2 48 C-1.34 48 -0.68 48 0 48 C0.66 46.35 1.32 44.7 2 43 C0.4811541 42.65772487 -1.04022533 42.32668786 -2.5625 42 C-3.40941406 41.814375 -4.25632813 41.62875 -5.12890625 41.4375 C-11.14321134 40.30249881 -11.14321134 40.30249881 -16.79125977 42.09375 C-18.64981058 43.63489979 -20.32005223 45.26647759 -22 47 C-22.89525391 47.82951172 -22.89525391 47.82951172 -23.80859375 48.67578125 C-27.00307467 51.84536577 -27.00307467 51.84536577 -28.16821289 56.046875 C-27.90820798 58.44358441 -27.90820798 58.44358441 -27 62 C-26.8082937 63.66618808 -26.61985411 65.33276246 -26.4375 67 C-26.31181641 68.1446875 -26.31181641 68.1446875 -26.18359375 69.3125 C-26.09271484 70.1478125 -26.09271484 70.1478125 -26 71 C-25.34 71 -24.68 71 -24 71 C-23.61328125 70.11054688 -23.61328125 70.11054688 -23.21875 69.203125 C-21.90230105 66.82339035 -20.57419218 65.49021208 -18.5 63.75 C-17.58734375 62.96882813 -17.58734375 62.96882813 -16.65625 62.171875 C-15 61 -15 61 -13 61 C-13.8584537 66.05038344 -17.05285436 68.95139158 -21 72 C-24.4375 72.9375 -24.4375 72.9375 -27 73 C-30.57011026 69.267612 -31.10913442 64.9050011 -32 60 C-33.32 59.67 -34.64 59.34 -36 59 C-35.67 57.68 -35.34 56.36 -35 55 C-39.95 54.67 -44.9 54.34 -50 54 C-50 53.01 -50 52.02 -50 51 C-50.66 51 -51.32 51 -52 51 C-51.67 49.68 -51.34 48.36 -51 47 C-50.01 47 -49.02 47 -48 47 C-48 46.34 -48 45.68 -48 45 C-47.34 45 -46.68 45 -46 45 C-45.76966064 44.44296387 -45.53932129 43.88592773 -45.30200195 43.31201172 C-43.64634928 40.37200969 -41.57713017 38.37084339 -39.16796875 36.0078125 C-38.69434402 35.53938934 -38.2207193 35.07096619 -37.73274231 34.58834839 C-36.2223592 33.09570783 -34.70546359 31.60992769 -33.1875 30.125 C-31.68109149 28.64640285 -30.17624307 27.16630218 -28.6743927 25.68307495 C-27.30470915 24.33109341 -25.93019929 22.9840065 -24.55541992 21.63720703 C-21.86809103 18.86386924 -19.45364375 15.98003911 -17 13 C-15.74242003 11.79666858 -14.45350279 10.62454178 -13.125 9.5 C-12.444375 8.92121094 -11.76375 8.34242187 -11.0625 7.74609375 C-10.381875 7.16988281 -9.70125 6.59367187 -9 6 C-8.34 5.41347656 -7.68 4.82695313 -7 4.22265625 C-6.38125 3.67480469 -5.7625 3.12695312 -5.125 2.5625 C-4.57070312 2.06878906 -4.01640625 1.57507812 -3.4453125 1.06640625 C-2 0 -2 0 0 0 Z " fill="#719BD2" transform="translate(82,37)"/>
<path d="M0 0 C0.66 0 1.32 0 2 0 C2.33 0.66 2.66 1.32 3 2 C4.95695135 2.43147971 4.95695135 2.43147971 7.25 2.5625 C10.56286973 2.85838629 13.74945701 3.26600642 17 4 C17.103125 4.639375 17.20625 5.27875 17.3125 5.9375 C17.6528125 6.9584375 17.6528125 6.9584375 18 8 C18.99 8.33 19.98 8.66 21 9 C21.66015625 10.9609375 21.66015625 10.9609375 22.0625 13.375 C22.63170911 16.70351803 23.05951616 18.08927425 25 21 C29.87375083 20.55693174 31.74157298 19.57375866 35 16 C35.804375 15.566875 36.60875 15.13375 37.4375 14.6875 C40.48815833 12.67852988 41.94954519 10.47351685 43.88671875 7.42578125 C44.25410156 6.95527344 44.62148437 6.48476562 45 6 C45.66 6 46.32 6 47 6 C47.5321441 8.08047297 48.05031786 10.16452293 48.5625 12.25 C48.85253906 13.41015625 49.14257812 14.5703125 49.44140625 15.765625 C50.24787129 20.43522678 49.60642913 22.09035631 47 26 C44.6875 26.328125 44.6875 26.328125 42 26.25 C40.6696875 26.22679687 40.6696875 26.22679687 39.3125 26.203125 C37 26 37 26 35 25 C33.62657169 24.9310528 32.24997898 24.91532292 30.875 24.9375 C28.956875 24.9684375 28.956875 24.9684375 27 25 C27.96099609 25.16435547 27.96099609 25.16435547 28.94140625 25.33203125 C41.66423358 27.66423358 41.66423358 27.66423358 45 31 C45.37319457 32.57441461 45.69897427 34.16020785 46 35.75 C46.165 36.61109375 46.33 37.4721875 46.5 38.359375 C46.7475 39.66648437 46.7475 39.66648437 47 41 C47.33156198 42.66701996 47.66436178 44.33379597 48 46 C46.91332031 45.89171875 46.91332031 45.89171875 45.8046875 45.78125 C40.85334145 45.30592078 35.98093926 44.86538002 31 45 C29.31124642 41.31544674 27.87543662 37.82183731 26.9375 33.875 C26.628125 32.59625 26.31875 31.3175 26 30 C25.73896484 28.72576172 25.73896484 28.72576172 25.47265625 27.42578125 C23.46739128 24.122679 21.50700269 23.8485592 17.87890625 22.88085938 C17.09386719 22.69330078 16.30882813 22.50574219 15.5 22.3125 C13.94648007 21.91838041 12.39431388 21.51887472 10.84375 21.11328125 C10.15474609 20.94610596 9.46574219 20.77893066 8.75585938 20.60668945 C7 20 7 20 5 18 C4.31396484 16.22827148 4.31396484 16.22827148 3.7109375 14.12109375 C3.49179687 13.36505859 3.27265625 12.60902344 3.046875 11.83007812 C2.82515625 11.04052734 2.6034375 10.25097656 2.375 9.4375 C2.14554688 8.64408203 1.91609375 7.85066406 1.6796875 7.03320312 C0 1.17929222 0 1.17929222 0 0 Z " fill="#70B1DC" transform="translate(30,88)"/>
<path d="M0 0 C1.74627478 2.61941217 2.38722388 4.03824877 3 7 C3.66 7 4.32 7 5 7 C5 6.34 5 5.68 5 5 C5.99 4.67 6.98 4.34 8 4 C8 4.66 8 5.32 8 6 C12.455 6.99 12.455 6.99 17 8 C17 8.66 17 9.32 17 10 C18.32 10.33 19.64 10.66 21 11 C21.33 10.34 21.66 9.68 22 9 C22.66 9.33 23.32 9.66 24 10 C23.45912682 13.78611227 21.88277668 15.55400767 19 18 C18.34 18 17.68 18 17 18 C16.731875 18.639375 16.46375 19.27875 16.1875 19.9375 C15 22 15 22 12 23 C11.29848848 24.3153341 10.63474075 25.65117592 10 27 C8.5 28.75 8.5 28.75 7 30 C6.34 30 5.68 30 5 30 C4.34 32.64 3.68 35.28 3 38 C2.34 38 1.68 38 1 38 C0.67902344 37.06414062 0.67902344 37.06414062 0.3515625 36.109375 C-1.53556697 33.16414403 -3.27476726 33.02912389 -6.625 32.25 C-7.62789062 32.00765625 -8.63078125 31.7653125 -9.6640625 31.515625 C-10.43492188 31.34546875 -11.20578125 31.1753125 -12 31 C-12 30.34 -12 29.68 -12 29 C-10.54119891 29.14107747 -9.08296449 29.28802415 -7.625 29.4375 C-6.81289062 29.51871094 -6.00078125 29.59992188 -5.1640625 29.68359375 C-3 30 -3 30 -1 31 C-1.474375 29.824375 -1.94875 28.64875 -2.4375 27.4375 C-3.60369054 24.43415998 -4.03344184 22.49001188 -4.25 19.1875 C-4.4975 18.135625 -4.745 17.08375 -5 16 C-9.66341088 13.12257627 -14.59046087 12.37915651 -19.9609375 11.52734375 C-20.63382813 11.35332031 -21.30671875 11.17929688 -22 11 C-22.33 10.34 -22.66 9.68 -23 9 C-21.54176788 8.9729957 -20.08339325 8.95360213 -18.625 8.9375 C-17.81289063 8.92589844 -17.00078125 8.91429688 -16.1640625 8.90234375 C-14 9 -14 9 -12 10 C-10.33765189 10.14601706 -8.66849493 10.22089834 -7 10.25 C-6.113125 10.27578125 -5.22625 10.3015625 -4.3125 10.328125 C-3.549375 10.21984375 -2.78625 10.1115625 -2 10 C0.4294516 6.3558226 0.16179575 4.28758728 0 0 Z " fill="#6B8BCA" transform="translate(79,103)"/>
<path d="M0 0 C0.66 0.33 1.32 0.66 2 1 C1.67 1.99 1.34 2.98 1 4 C1.66 4.33 2.32 4.66 3 5 C2.01 5.495 2.01 5.495 1 6 C1.55105909 9.9492568 2.38935371 13.34920174 4 17 C6.24071094 15.99554337 7.87754985 15.12245015 9.625 13.375 C10.305625 12.694375 10.305625 12.694375 11 12 C11.66 12 12.32 12 13 12 C13 11.01 13 10.02 13 9 C11.2984375 8.566875 11.2984375 8.566875 9.5625 8.125 C8.386875 7.75375 7.21125 7.3825 6 7 C5.67 6.34 5.34 5.68 5 5 C6.62580966 5.11398665 8.25067157 5.24155659 9.875 5.375 C10.77992187 5.44460937 11.68484375 5.51421875 12.6171875 5.5859375 C15 6 15 6 17 8 C17.66 7.67 18.32 7.34 19 7 C19.50377768 9.26999825 20.00290019 11.54103003 20.5 13.8125 C20.7784375 15.07707031 21.056875 16.34164062 21.34375 17.64453125 C22 21 22 21 22 24 C23.98 23.67 25.96 23.34 28 23 C27.34 24.32 26.68 25.64 26 27 C25.34 27 24.68 27 24 27 C23.505 28.485 23.505 28.485 23 30 C22.34 30 21.68 30 21 30 C20.72671875 30.5878125 20.4534375 31.175625 20.171875 31.78125 C17.71076135 36.44095851 14.33646742 40.12720495 9.9375 43 C6.72922494 45.18435748 5.19748435 47.26726739 3.17578125 50.51171875 C2 52 2 52 -1 53 C-1 52.34 -1 51.68 -1 51 C-2.485 51.495 -2.485 51.495 -4 52 C-4 51.34 -4 50.68 -4 50 C-3.34 50 -2.68 50 -2 50 C-2 49.34 -2 48.68 -2 48 C-1.01 48 -0.02 48 1 48 C1.2475 47.401875 1.495 46.80375 1.75 46.1875 C3.17002708 43.70245261 4.72705959 42.68637514 7 41 C7.33 40.01 7.66 39.02 8 38 C9.97956942 36.30911778 11.97945196 34.64169528 14 33 C14.33 32.34 14.66 31.68 15 31 C15.99 31 16.98 31 18 31 C18 29.68 18 28.36 18 27 C12.34865884 26.1400133 6.69051363 25.5381371 1 25 C0.72929688 25.60585937 0.45859375 26.21171875 0.1796875 26.8359375 C-2.13043542 31.07371265 -6.50165978 34.29373302 -11 36 C-11.99 36 -12.98 36 -14 36 C-12.98270562 34.9548769 -11.96090025 33.91414487 -10.9375 32.875 C-10.30714844 32.23046875 -9.67679687 31.5859375 -9.02734375 30.921875 C-7.11364873 29.10773637 -5.13901281 27.65717014 -3 26.125 C-0.88949202 24.35839176 -0.07435854 23.63320945 0.25 20.87109375 C-0.00477376 18.51841729 -0.45447487 16.30155858 -1 14 C-1.20061387 12.6477139 -1.38955576 11.29360247 -1.5625 9.9375 C-1.706875 8.968125 -1.85125 7.99875 -2 7 C-2.66 7 -3.32 7 -4 7 C-2.92598892 4.08482708 -2.22189824 2.22189824 0 0 Z " fill="#887AC8" transform="translate(114,101)"/>
<path d="M0 0 C0.85207031 0.18304688 1.70414063 0.36609375 2.58203125 0.5546875 C3.44183594 0.74289063 4.30164063 0.93109375 5.1875 1.125 C6.85354338 1.46143476 8.52003222 1.79569757 10.1875 2.125 C10.1875 3.445 10.1875 4.765 10.1875 6.125 C9.1975 6.125 8.2075 6.125 7.1875 6.125 C6.919375 6.723125 6.65125 7.32125 6.375 7.9375 C5.18832594 10.12347854 4.09150887 11.53832594 2.1875 13.125 C1.5275 13.125 0.8675 13.125 0.1875 13.125 C0.0946875 13.99125 0.0946875 13.99125 0 14.875 C-1.1312079 18.00757571 -3.19197801 19.15960851 -5.8125 21.125 C-6.1425 21.785 -6.4725 22.445 -6.8125 23.125 C-7.8025 23.125 -8.7925 23.125 -9.8125 23.125 C-9.8125 23.785 -9.8125 24.445 -9.8125 25.125 C-10.4725 25.125 -11.1325 25.125 -11.8125 25.125 C-12.2146875 26.3315625 -12.2146875 26.3315625 -12.625 27.5625 C-13.016875 28.408125 -13.40875 29.25375 -13.8125 30.125 C-14.8025 30.455 -15.7925 30.785 -16.8125 31.125 C-20.91137295 19.21875 -20.91137295 19.21875 -19.8125 13.125 C-18.00535925 11.06905002 -16.08397399 9.46834099 -13.91796875 7.796875 C-11.95314247 6.23667899 -10.48989572 4.70797658 -8.9375 2.75 C-5.8033484 -1.12159903 -4.64682627 -1.01714638 0 0 Z " fill="#F6F5FA" transform="translate(121.8125,125.875)"/>
<path d="M0 0 C1.9375 0.375 1.9375 0.375 4 1 C6.3784527 5.7569054 5.81092864 11.88315448 5 17 C2.78321189 20.13443528 0.18302549 21.92464304 -3 24 C-5.36945893 26.0753192 -5.96918633 26.907559 -7 30 C-12.71545019 30.20783455 -18.6230678 30.20018889 -24 28 C-24.33 27.01 -24.66 26.02 -25 25 C-24.34 25 -23.68 25 -23 25 C-22.7525 24.4225 -22.505 23.845 -22.25 23.25 C-20.81700012 20.67060021 -19.21575324 18.93878408 -17 17 C-16.34 17 -15.68 17 -15 17 C-14.79375 16.46375 -14.5875 15.9275 -14.375 15.375 C-12.46749574 12.08021991 -9.95180616 9.40636372 -7 7 C-6.34 7 -5.68 7 -5 7 C-5 6.34 -5 5.68 -5 5 C-3.35 4.34 -1.7 3.68 0 3 C0 2.01 0 1.02 0 0 Z " fill="#F7FBFC" transform="translate(60,60)"/>
<path d="M0 0 C2.87109375 0.65625 2.87109375 0.65625 5.4375 1.5 C6.30246094 1.7784375 7.16742188 2.056875 8.05859375 2.34375 C9.01958984 2.66859375 9.01958984 2.66859375 10 3 C8.85793838 7.11142183 7.38494757 8.60358288 3.77734375 10.7734375 C0.07875161 13.32587252 -2.88943631 16.77972764 -6 20 C-6.886875 20.86625 -7.77375 21.7325 -8.6875 22.625 C-10.48710163 24.47323951 -12.07959557 26.30729361 -13.6875 28.3125 C-14.8321875 29.6428125 -14.8321875 29.6428125 -16 31 C-16.66 31 -17.32 31 -18 31 C-18.50744423 29.10614563 -19.00564574 27.20981334 -19.5 25.3125 C-19.7784375 24.25675781 -20.056875 23.20101562 -20.34375 22.11328125 C-21.50868224 16.58678722 -21.50868224 16.58678722 -21 14 C-19.07709733 11.28776486 -16.80289281 9.01454804 -14.4375 6.6875 C-13.82841797 6.04232422 -13.21933594 5.39714844 -12.59179688 4.73242188 C-8.47845823 0.61908323 -6.04937277 -0.91720814 0 0 Z " fill="#F2F7FA" transform="translate(74,77)"/>
<path d="M0 0 C0.50806447 1.72681437 1.00610467 3.45657979 1.5 5.1875 C1.7784375 6.15042969 2.056875 7.11335938 2.34375 8.10546875 C3.54023925 13.38284097 3.54023925 13.38284097 3 16 C0.92924034 18.5067295 -1.47465764 20.57409883 -3.9375 22.6875 C-5.24030978 23.83494048 -6.54118845 24.9845784 -7.83984375 26.13671875 C-8.42113037 26.63905029 -9.00241699 27.14138184 -9.60131836 27.65893555 C-11.12457636 28.96906574 -11.12457636 28.96906574 -12 31 C-22.55808656 30.22095672 -22.55808656 30.22095672 -27 28 C-26.24084769 21.42067998 -20.04637789 17.07603394 -15.328125 13.078125 C-11.95129327 10.06390607 -8.81226293 6.82308497 -5.68115234 3.5559082 C-2.21418849 0 -2.21418849 0 0 0 Z " fill="#F6F5FA" transform="translate(112,108)"/>
<path d="M0 0 C-1.64990206 4.29597139 -4.81742807 7.00517646 -8.0625 10.125 C-12.0044894 13.69553366 -12.0044894 13.69553366 -15 18 C-14.35933594 18.12117188 -13.71867187 18.24234375 -13.05859375 18.3671875 C-7.95071067 19.35679227 -2.97749731 20.48510951 2 22 C3.33583899 26.84241633 4.25328119 30.93437617 4 36 C1.84622436 33.37801226 0.59927826 31.35595828 0 28 C-3.21043882 29.38188453 -5.04936365 30.92421903 -7.25 33.625 C-7.77078125 34.25664063 -8.2915625 34.88828125 -8.828125 35.5390625 C-9.21484375 36.02117187 -9.6015625 36.50328125 -10 37 C-7.20351925 37.75922554 -4.50729681 38.21682698 -1.625 38.5 C1.94501379 38.8717535 5.46542479 39.36558907 9 40 C5.375 45.875 5.375 45.875 2 47 C1.67 47.99 1.34 48.98 1 50 C0.01 50 -0.98 50 -2 50 C-2 49.34 -2 48.68 -2 48 C-1.34 48 -0.68 48 0 48 C0.66 46.35 1.32 44.7 2 43 C-4.11980533 41.59545452 -9.71739294 40.76731085 -16 41 C-15.95875 40.01 -15.9175 39.02 -15.875 38 C-15.8604601 34.40864509 -16.60315207 31.31147773 -17.5546875 27.8671875 C-18.10846214 25.54522015 -18.14850195 23.37603121 -18 21 C-15.03472242 23.4453385 -14.44417786 25.44602347 -13.8125 29.1875 C-13.65394531 30.08855469 -13.49539062 30.98960938 -13.33203125 31.91796875 C-13.22246094 32.60503906 -13.11289063 33.29210937 -13 34 C-12.236875 33.195625 -11.47375 32.39125 -10.6875 31.5625 C-8 29 -8 29 -5 28 C-4.67 26.68 -4.34 25.36 -4 24 C-7.3 23.34 -10.6 22.68 -14 22 C-14 21.34 -14 20.68 -14 20 C-15.32 19.67 -16.64 19.34 -18 19 C-17.01968264 12.04135381 -9.65611089 6.27517377 -4.5625 1.875 C-2 0 -2 0 0 0 Z " fill="#7C7BC5" transform="translate(82,37)"/>
<path d="M0 0 C0.763125 0.309375 1.52625 0.61875 2.3125 0.9375 C0.80176416 4.79635099 -1.47008339 6.55068098 -4.75 9 C-8.66138781 11.76500893 -8.66138781 11.76500893 -10.6875 15.9375 C-12.31082967 17.32326923 -13.97474465 18.66391268 -15.6875 19.9375 C-17.60546875 19.20703125 -17.60546875 19.20703125 -19.6875 17.9375 C-21.28726708 14.25296858 -21.6875 10.24201777 -21.6875 6.25 C-17.22300021 -4.07415577 -9.575156 -2.75894326 0 0 Z " fill="#F5F3FA" transform="translate(154.6875,104.0625)"/>
<path d="M0 0 C2.31966312 4.4943473 3.12041246 9.06037136 2 14 C-0.01043538 17.02818695 -2.3516101 19.52051252 -5 22 C-10.39795989 20.84941444 -15.70987333 19.57578241 -21 18 C-19.48183433 14.4249647 -17.36847779 12.1002487 -14.625 9.375 C-13.85414062 8.59898438 -13.08328125 7.82296875 -12.2890625 7.0234375 C-10.21778509 5.1925131 -8.48504415 4.13786039 -6 3 C-5.2265625 2.195625 -5.2265625 2.195625 -4.4375 1.375 C-3 0 -3 0 0 0 Z " fill="#F5F2FA" transform="translate(88,37)"/>
<path d="M0 0 C0.66 0 1.32 0 2 0 C2.4640625 1.670625 2.4640625 1.670625 2.9375 3.375 C3.82326483 6.7945155 3.82326483 6.7945155 5 9 C5.46176912 15.34932534 5.46176912 15.34932534 3.625 17.9375 C2 19 2 19 0 19 C-0.66 20.32 -1.32 21.64 -2 23 C-7.8022175 23.36263859 -11.63999211 22.25684543 -17 20 C-14.49618742 11.73741848 -7.35663353 6.37052093 -1 1 C-0.67 0.67 -0.34 0.34 0 0 Z " fill="#F7F3FA" transform="translate(134,84)"/>
<path d="M0 0 C2.56080651 3.84120976 2.75892709 5.44643748 2 10 C0.09880824 12.1044372 -1.9075558 13.78942131 -4.15234375 15.51953125 C-6.11436065 16.88009113 -6.11436065 16.88009113 -7 19 C-7.66 19 -8.32 19 -9 19 C-9 19.66 -9 20.32 -9 21 C-10.57421875 22.48046875 -10.57421875 22.48046875 -12.6875 24.1875 C-16.55737013 27.45936178 -19.23594479 30.76754047 -22 35 C-22.66 34.67 -23.32 34.34 -24 34 C-23.01 32.68 -22.02 31.36 -21 30 C-24.92778177 29.11308154 -28.81128653 28.7051465 -32.81640625 28.37890625 C-35.18229864 27.96836678 -36.91440614 27.16812173 -39 26 C-37.7455037 22.2365111 -35.95278233 20.60943555 -33 18 C-30.6875 17.1875 -30.6875 17.1875 -29 17 C-28.01 18.98 -27.02 20.96 -26 23 C-26.144375 21.783125 -26.28875 20.56625 -26.4375 19.3125 C-26.52257812 18.58160156 -26.60765625 17.85070312 -26.6953125 17.09765625 C-26.96859758 14.8658436 -26.96859758 14.8658436 -27.8125 12.25 C-28 10 -28 10 -26.0625 7.6875 C-25.381875 7.130625 -24.70125 6.57375 -24 6 C-24 6.66 -24 7.32 -24 8 C-23.2575 7.319375 -22.515 6.63875 -21.75 5.9375 C-19 4 -19 4 -16.6875 4.25 C-16.130625 4.4975 -15.57375 4.745 -15 5 C-15.7425 5.433125 -16.485 5.86625 -17.25 6.3125 C-18.1575 6.869375 -19.065 7.42625 -20 8 C-20.721875 8.3609375 -21.44375 8.721875 -22.1875 9.09375 C-24.41619994 11.02065053 -24.41619994 11.02065053 -24.171875 14.79296875 C-24.05241353 16.25969011 -23.91096618 17.72475173 -23.75 19.1875 C-23.65138672 20.31188477 -23.65138672 20.31188477 -23.55078125 21.45898438 C-23.38592263 23.30775601 -23.19541184 25.15420773 -23 27 C-22.01 27 -21.02 27 -20 27 C-19.731875 26.360625 -19.46375 25.72125 -19.1875 25.0625 C-18 23 -18 23 -15 22 C-14.70222656 21.40445313 -14.40445313 20.80890625 -14.09765625 20.1953125 C-12.68884716 17.37769431 -10.83608278 15.90012768 -8.4375 13.875 C-5.2525427 11.30529501 -5.2525427 11.30529501 -3 8 C-1.68 8.33 -0.36 8.66 1 9 C0.505 4.545 0.505 4.545 0 0 Z " fill="#958BD0" transform="translate(111,48)"/>
<path d="M0 0 C0.804375 0.309375 1.60875 0.61875 2.4375 0.9375 C0.97437962 4.4474324 -0.91147668 6.32754685 -3.8125 8.75 C-6.81081591 11.31929643 -9.45736606 13.86537429 -11.9375 16.9375 C-12.80375 17.9275 -13.67 18.9175 -14.5625 19.9375 C-15.5525 19.9375 -16.5425 19.9375 -17.5625 19.9375 C-20.38935512 8.80675795 -20.38935512 8.80675795 -19.5625 3.9375 C-14.18564031 -3.80853849 -8.04857539 -2.40045231 0 0 Z " fill="#FBF9FB" transform="translate(105.5625,55.0625)"/>
<path d="M0 0 C12.84466019 0.84466019 12.84466019 0.84466019 17 5 C17.37319457 6.57441461 17.69897427 8.16020785 18 9.75 C18.2475 11.04164062 18.2475 11.04164062 18.5 12.359375 C18.7475 13.66648437 18.7475 13.66648437 19 15 C19.33156198 16.66701996 19.66436178 18.33379597 20 20 C17.91303753 19.60190889 15.8304656 19.1807572 13.75 18.75 C12.58984375 18.51796875 11.4296875 18.2859375 10.234375 18.046875 C6.63989631 16.8834447 5.21523185 16.03568809 3 13 C1.953125 9.765625 1.953125 9.765625 1.25 6.25 C1.00765625 5.07953125 0.7653125 3.9090625 0.515625 2.703125 C0.34546875 1.81109375 0.1753125 0.9190625 0 0 Z " fill="#ECF6FB" transform="translate(58,114)"/>
<path d="M0 0 C2.31 0 4.62 0 7 0 C7 0.66 7 1.32 7 2 C8.670625 1.9690625 8.670625 1.9690625 10.375 1.9375 C14 2 14 2 16 3 C14.87678175 6.14501111 13.92133603 7.05188475 11.0625 8.9375 C7.84820777 11.10222742 6.86240299 12.69846743 5 16 C2.3710719 18.38246609 1.61165822 19 -2 19 C-2.50588147 17.08487728 -3.00448391 15.16783078 -3.5 13.25 C-3.7784375 12.18265625 -4.056875 11.1153125 -4.34375 10.015625 C-5 7 -5 7 -5 3 C-3.35 2.67 -1.7 2.34 0 2 C0 1.34 0 0.68 0 0 Z " fill="#F2F4FA" transform="translate(82,112)"/>
<path d="M0 0 C0.66 0 1.32 0 2 0 C2.5321441 2.08047297 3.05031786 4.16452293 3.5625 6.25 C3.85253906 7.41015625 4.14257812 8.5703125 4.44140625 9.765625 C5.24787129 14.43522678 4.60642913 16.09035631 2 20 C-4.22033946 21.15991705 -9.50128989 19.86889223 -15 17 C-13.23263416 13.05741466 -11.48139162 10.7796798 -7.625 8.75 C-4.5507702 6.70051347 -3.07195791 4.50734747 -1.11328125 1.42578125 C-0.74589844 0.95527344 -0.37851563 0.48476562 0 0 Z " fill="#D1E5F9" transform="translate(75,94)"/>
<path d="M0 0 C1.91789713 0.28346278 3.83429183 0.5771028 5.75 0.875 C7.35101563 1.11863281 7.35101563 1.11863281 8.984375 1.3671875 C11.74308779 1.94608837 13.7071924 2.37592795 16 4 C16.828125 5.953125 16.828125 5.953125 17.25 8.25 C17.39953125 8.99765625 17.5490625 9.7453125 17.703125 10.515625 C18.04323441 13.36180373 18.04966067 16.13623467 18 19 C16.05954312 18.5758071 14.12268239 18.13514005 12.1875 17.6875 C11.10855469 17.44386719 10.02960938 17.20023438 8.91796875 16.94921875 C5.96319551 15.98802745 4.7782096 15.49063332 3 13 C2.05078125 10.625 2.05078125 10.625 1.3125 8 C1.06113281 7.13375 0.80976563 6.2675 0.55078125 5.375 C0 3 0 3 0 0 Z " fill="#F7F3FC" transform="translate(139,83)"/>
<path d="M0 0 C6.93 0.495 6.93 0.495 14 1 C16 11.5 16 11.5 16 16 C14.4156683 15.91231752 12.83246433 15.80412671 11.25 15.6875 C9.92742187 15.60048828 9.92742187 15.60048828 8.578125 15.51171875 C4.99952155 14.80142019 2.90452052 13.22110271 0.75 10.3125 C-0.37846741 6.83305882 -0.12161607 3.64848201 0 0 Z " fill="#F7F3FC" transform="translate(92,36)"/>
<path d="M0 0 C0.66 0.33 1.32 0.66 2 1 C1.34 1.66 0.68 2.32 0 3 C0 3.99 0 4.98 0 6 C0.99 6.33 1.98 6.66 3 7 C3 7.66 3 8.32 3 9 C4.27875 9.144375 5.5575 9.28875 6.875 9.4375 C9.25692894 9.70642746 10.84452691 9.92226346 13 11 C12.52695318 15.25742137 10.1136178 17.25705098 7 20 C6.01 20.33 5.02 20.66 4 21 C2.515 16.05 2.515 16.05 1 11 C0.01 11 -0.98 11 -2 11 C-2.99 10.67 -3.98 10.34 -5 10 C-5 10.99 -5 11.98 -5 13 C-6.65 13.66 -8.3 14.32 -10 15 C-10 15.66 -10 16.32 -10 17 C-11.64453125 18.69140625 -11.64453125 18.69140625 -13.8125 20.5625 C-14.52019531 21.18253906 -15.22789063 21.80257812 -15.95703125 22.44140625 C-18 24 -18 24 -21 25 C-20.41997043 21.54910744 -19.29953056 19.94829468 -16.796875 17.5390625 C-16.14589844 16.90226562 -15.49492188 16.26546875 -14.82421875 15.609375 C-14.13972656 14.95453125 -13.45523438 14.2996875 -12.75 13.625 C-8.23285567 9.25581608 -3.92525099 4.91417081 0 0 Z " fill="#7B97D3" transform="translate(65,50)"/>
<path d="M0 0 C0.70511719 0.27714844 1.41023438 0.55429688 2.13671875 0.83984375 C2.13671875 1.49984375 2.13671875 2.15984375 2.13671875 2.83984375 C6.75671875 4.15984375 11.37671875 5.47984375 16.13671875 6.83984375 C16.13671875 7.16984375 16.13671875 7.49984375 16.13671875 7.83984375 C14.48671875 7.83984375 12.83671875 7.83984375 11.13671875 7.83984375 C11.46671875 8.82984375 11.79671875 9.81984375 12.13671875 10.83984375 C10.85123466 12.1791388 9.5581372 13.51113018 8.26171875 14.83984375 C7.54242188 15.58234375 6.823125 16.32484375 6.08203125 17.08984375 C4.13671875 18.83984375 4.13671875 18.83984375 2.13671875 18.83984375 C-0.68177631 13.2909316 -2.39593265 9.09849775 -1.86328125 2.83984375 C-4.50328125 5.14984375 -7.14328125 7.45984375 -9.86328125 9.83984375 C-9.20328125 10.49984375 -8.54328125 11.15984375 -7.86328125 11.83984375 C-9.51328125 13.81984375 -11.16328125 15.79984375 -12.86328125 17.83984375 C-13.52328125 17.50984375 -14.18328125 17.17984375 -14.86328125 16.83984375 C-13.87328125 15.18984375 -12.88328125 13.53984375 -11.86328125 11.83984375 C-12.52328125 11.50984375 -13.18328125 11.17984375 -13.86328125 10.83984375 C-12.15164842 8.96634021 -10.42220572 7.11792718 -8.67578125 5.27734375 C-7.95165039 4.47780273 -7.95165039 4.47780273 -7.21289062 3.66210938 C-3.5041259 -0.19600158 -3.5041259 -0.19600158 0 0 Z " fill="#A197D9" transform="translate(80.86328125,86.16015625)"/>
<path d="M0 0 C0.66 0.99 1.32 1.98 2 3 C4.41607417 3.79798218 4.41607417 3.79798218 7.125 4.1875 C8.03507812 4.34605469 8.94515625 4.50460938 9.8828125 4.66796875 C10.58148438 4.77753906 11.28015625 4.88710937 12 5 C12 7.66420516 11.90837763 9.52260646 11 12 C10.01 12.33 9.02 12.66 8 13 C7.67 13.99 7.34 14.98 7 16 C5.75 17.75 5.75 17.75 4 19 C1.390625 18.578125 1.390625 18.578125 -1 18 C-3.02370454 10.89519555 -3.229316 6.70704093 0 0 Z " fill="#8297D4" transform="translate(84,133)"/>
<path d="M0 0 C1.68416016 0.30164063 1.68416016 0.30164063 3.40234375 0.609375 C12.58148048 2.43505965 12.58148048 2.43505965 14.33984375 4.80859375 C15.04555373 7.15121682 15.4099981 9.31331184 15.625 11.75 C15.69976562 12.54921875 15.77453125 13.3484375 15.8515625 14.171875 C15.92503906 15.07679687 15.92503906 15.07679687 16 16 C15.34 15.67 14.68 15.34 14 15 C13.5859375 12.93359375 13.5859375 12.93359375 13.375 10.4375 C13.30023438 9.61121094 13.22546875 8.78492188 13.1484375 7.93359375 C13.09945312 7.29550781 13.05046875 6.65742187 13 6 C12.14728516 6.01740234 12.14728516 6.01740234 11.27734375 6.03515625 C6.39329516 6.09223194 1.81496035 5.81956772 -3 5 C-3 6.98 -3 8.96 -3 11 C-4 9 -5 7 -6 5 C-10.39314793 6.01160848 -10.39314793 6.01160848 -13.375 9.125 C-13.58125 9.74375 -13.7875 10.3625 -14 11 C-14.66 10.67 -15.32 10.34 -16 10 C-15.01 8.68 -14.02 7.36 -13 6 C-13.99 6.33 -14.98 6.66 -16 7 C-16 6.34 -16 5.68 -16 5 C-15.34 5 -14.68 5 -14 5 C-14 4.34 -14 3.68 -14 3 C-9.55082874 -2.02325788 -6.01115289 -1.22498021 0 0 Z " fill="#8E81CC" transform="translate(95,31)"/>
<path d="M0 0 C1.32 0.99 2.64 1.98 4 3 C3.45996338 3.5347998 2.91992676 4.06959961 2.36352539 4.62060547 C-0.07274376 7.03613706 -2.50516107 9.45551117 -4.9375 11.875 C-6.21270508 13.13763672 -6.21270508 13.13763672 -7.51367188 14.42578125 C-8.32255859 15.23144531 -9.13144531 16.03710938 -9.96484375 16.8671875 C-10.7137085 17.61081543 -11.46257324 18.35444336 -12.23413086 19.12060547 C-14.06297703 20.8871676 -14.06297703 20.8871676 -15 23 C-15.66 23 -16.32 23 -17 23 C-17 23.66 -17 24.32 -17 25 C-17.99 25 -18.98 25 -20 25 C-19.44364268 33.20627042 -17.70484294 41.59031412 -14 49 C-15.65 48.67 -17.3 48.34 -19 48 C-19.87867729 44.26562152 -20.08912219 40.83225427 -20 37 C-20.66 37 -21.32 37 -22 37 C-22 35.02 -22 33.04 -22 31 C-22.66 31 -23.32 31 -24 31 C-24 29.35 -24 27.7 -24 26 C-23.01 26 -22.02 26 -21 26 C-21.103125 25.236875 -21.20625 24.47375 -21.3125 23.6875 C-21.209375 22.800625 -21.10625 21.91375 -21 21 C-18.13896577 18.75756777 -16.65923696 18 -13 18 C-13 17.01 -13 16.02 -13 15 C-12.01 14.67 -11.02 14.34 -10 14 C-9.67 13.34 -9.34 12.68 -9 12 C-8.34 12 -7.68 12 -7 12 C-7 10.68 -7 9.36 -7 8 C-5.33720673 6.9935725 -3.67016516 5.99414593 -2 5 C-0.65310085 2.42900598 -0.65310085 2.42900598 0 0 Z " fill="#DAF2FC" transform="translate(51,59)"/>
<path d="M0 0 C1.74627478 2.61941217 2.38722388 4.03824877 3 7 C3.66 7 4.32 7 5 7 C5 6.34 5 5.68 5 5 C5.99 4.67 6.98 4.34 8 4 C8 4.66 8 5.32 8 6 C9.485 6.495 9.485 6.495 11 7 C9.35 7 7.7 7 6 7 C6 7.66 6 8.32 6 9 C5.01 9 4.02 9 3 9 C3 9.66 3 10.32 3 11 C1.35 11.33 -0.3 11.66 -2 12 C-1.814375 12.9075 -1.62875 13.815 -1.4375 14.75 C-1.03106136 17.76925848 -1.06537528 19.19612583 -2 22 C-2.33911216 23.33187531 -2.67318735 24.66505342 -3 26 C-3.06316406 25.31292969 -3.12632813 24.62585938 -3.19140625 23.91796875 C-3.57011863 21.1314429 -4.04612871 18.64774137 -5 16 C-9.56226103 12.95849265 -14.58845583 12.37947453 -19.9609375 11.52734375 C-20.63382813 11.35332031 -21.30671875 11.17929688 -22 11 C-22.33 10.34 -22.66 9.68 -23 9 C-21.54176788 8.9729957 -20.08339325 8.95360213 -18.625 8.9375 C-17.81289063 8.92589844 -17.00078125 8.91429688 -16.1640625 8.90234375 C-14 9 -14 9 -12 10 C-10.33765189 10.14601706 -8.66849493 10.22089834 -7 10.25 C-6.113125 10.27578125 -5.22625 10.3015625 -4.3125 10.328125 C-3.549375 10.21984375 -2.78625 10.1115625 -2 10 C0.4294516 6.3558226 0.16179575 4.28758728 0 0 Z " fill="#819BD6" transform="translate(79,103)"/>
<path d="M0 0 C0 0.66 0 1.32 0 2 C0.66 2 1.32 2 2 2 C2.33 4.31 2.66 6.62 3 9 C1.35 9 -0.3 9 -2 9 C-2 9.66 -2 10.32 -2 11 C-5.63 10.67 -9.26 10.34 -13 10 C-10.12188871 4.24377742 -7.08876051 0 0 0 Z " fill="#F8FCFA" transform="translate(75,101)"/>
<path d="M0 0 C0.99 0.33 1.98 0.66 3 1 C4.50894214 5.12973639 5.0977838 8.63733831 5 13 C3.20767663 12.69128878 1.41615679 12.37790936 -0.375 12.0625 C-1.37273437 11.88847656 -2.37046875 11.71445313 -3.3984375 11.53515625 C-6 11 -6 11 -8 10 C-6.34908222 5.70761377 -3.26245434 3.1206085 0 0 Z " fill="#F2FAFE" transform="translate(97,145)"/>
<path d="M0 0 C0.99 0 1.98 0 3 0 C3.99 3.96 4.98 7.92 6 12 C4.5975 11.855625 3.195 11.71125 1.75 11.5625 C0.56664062 11.44068359 0.56664062 11.44068359 -0.640625 11.31640625 C-2.82364639 11.02365007 -4.8773182 10.57935581 -7 10 C-6.4409112 6.75728494 -5.5867822 5.06942576 -3 3 C-2.34 3 -1.68 3 -1 3 C-0.67 2.01 -0.34 1.02 0 0 Z " fill="#E7DFF8" transform="translate(128,114)"/>
<path d="M0 0 C0.66 1.32 1.32 2.64 2 4 C1.50628906 4.40992187 1.01257812 4.81984375 0.50390625 5.2421875 C-0.13675781 5.78101562 -0.77742188 6.31984375 -1.4375 6.875 C-2.07558594 7.40867187 -2.71367188 7.94234375 -3.37109375 8.4921875 C-5.10805004 9.9222757 -5.10805004 9.9222757 -6 12 C-6.66 12 -7.32 12 -8 12 C-7.67 12.66 -7.34 13.32 -7 14 C-4.72600246 14.60076256 -2.44869424 14.9563154 -0.12890625 15.33984375 C2 16 2 16 4 19 C-0.95 18.67 -5.9 18.34 -11 18 C-11 17.01 -11 16.02 -11 15 C-11.66 15 -12.32 15 -13 15 C-12.67 13.68 -12.34 12.36 -12 11 C-11.01 11 -10.02 11 -9 11 C-9 10.34 -9 9.68 -9 9 C-8.34 9 -7.68 9 -7 9 C-6.773125 8.443125 -6.54625 7.88625 -6.3125 7.3125 C-4.64103234 4.36753316 -2.44723648 2.31843456 0 0 Z " fill="#70ACDA" transform="translate(43,73)"/>
<path d="M0 0 C4.37934119 0.51958285 8.68803391 1.05675742 13 2 C13 2.99 13 3.98 13 5 C11.53311963 6.27554815 10.06023134 7.54881117 8.5078125 8.71875 C6.72500021 10.11472845 6.72500021 10.11472845 5 13 C4.34 13 3.68 13 3 13 C2.01 8.71 1.02 4.42 0 0 Z " fill="#C4EEFB" transform="translate(34,90)"/>
<path d="M0 0 C0.33 0.66 0.66 1.32 1 2 C0.25556641 2.63615234 0.25556641 2.63615234 -0.50390625 3.28515625 C-4.7229299 6.9277668 -8.72536941 10.66289088 -12.5546875 14.71484375 C-14 16 -14 16 -16 16 C-16.33 16.99 -16.66 17.98 -17 19 C-19.31 19 -21.62 19 -24 19 C-22.35622962 15.71245925 -19.36943428 15.12314476 -16 14 C-15.88269531 13.41605469 -15.76539063 12.83210938 -15.64453125 12.23046875 C-14.66190174 8.8299751 -12.40922144 7.49348208 -9.6875 5.3125 C-8.72199219 4.52488281 -7.75648438 3.73726563 -6.76171875 2.92578125 C-4.34013893 1.23718316 -2.87220266 0.40251771 0 0 Z " fill="#9F89D5" transform="translate(160,106)"/>
<path d="M0 0 C2.125 0.375 2.125 0.375 4 1 C4 3.31 4 5.62 4 8 C3.01 8.495 3.01 8.495 2 9 C1.67 7.35 1.34 5.7 1 4 C0.45730469 4.49371094 -0.08539063 4.98742187 -0.64453125 5.49609375 C-1.35996094 6.13675781 -2.07539063 6.77742188 -2.8125 7.4375 C-3.87404297 8.39462891 -3.87404297 8.39462891 -4.95703125 9.37109375 C-7 11 -7 11 -10 12 C-10.68486725 13.32407669 -11.34870203 14.65909241 -12 16 C-14 18.25 -14 18.25 -16 20 C-16.66 20 -17.32 20 -18 20 C-16.94224018 15.45163276 -15.51156164 13.18333987 -11.7890625 10.359375 C-9.69126056 8.76541195 -7.72771977 7.0528934 -5.75 5.3125 C-5.08484375 4.73113281 -4.4196875 4.14976563 -3.734375 3.55078125 C-2.45391708 2.4058673 -1.21457821 1.21457821 0 0 Z " fill="#8E7ECB" transform="translate(135,80)"/>
<path d="M0 0 C0.99 0.33 1.98 0.66 3 1 C3.66 4.63 4.32 8.26 5 12 C-4.75 11.125 -4.75 11.125 -7 10 C-6.65652573 6.79424013 -6.0292146 6.02483241 -3.5 3.875 C-2.675 3.25625 -1.85 2.6375 -1 2 C-0.67 1.34 -0.34 0.68 0 0 Z " fill="#C8EAFB" transform="translate(48,96)"/>
<path d="M0 0 C1.6256807 0.30893932 3.25052748 0.6222695 4.875 0.9375 C5.77992187 1.11152344 6.68484375 1.28554688 7.6171875 1.46484375 C10 2 10 2 12 3 C11.52695318 7.25742137 9.1136178 9.25705098 6 12 C5.01 12.33 4.02 12.66 3 13 C2.49487756 11.39743892 1.99608373 9.79288208 1.5 8.1875 C1.2215625 7.29417969 0.943125 6.40085937 0.65625 5.48046875 C0 3 0 3 0 0 Z " fill="#EAECFA" transform="translate(66,58)"/>
<path d="M0 0 C14.75424193 1.60372195 14.75424193 1.60372195 18.45703125 5.5546875 C21.56841849 11.17149892 22.20410991 17.71665717 23 24 C19.71569479 21.81046319 19.50085308 21.32286636 18.4375 17.75 C18.18355469 16.94820312 17.92960937 16.14640625 17.66796875 15.3203125 C17.12674544 13.44027362 16.67440097 11.53480436 16.25 9.625 C15.15848709 6.6877586 15.15848709 6.6877586 11.8125 5.1875 C8.17647297 4.05496699 4.78317517 3.38603828 1 3 C0.67 2.01 0.34 1.02 0 0 Z " fill="#CAEBFA" transform="translate(37,108)"/>
<path d="M0 0 C1.45184478 4.53701494 2.23509196 8.18061476 2 13 C-5.625 11.125 -5.625 11.125 -9 10 C-8.42110619 6.71245489 -7.45171589 5.06327505 -5.0625 2.75 C-4.53785156 2.22921875 -4.01320313 1.7084375 -3.47265625 1.171875 C-2 0 -2 0 0 0 Z " fill="#EFEDFB" transform="translate(96,99)"/>
<path d="M0 0 C7.42857143 -0.14285714 7.42857143 -0.14285714 11 1 C11 1.66 11 2.32 11 3 C12.32 3.33 13.64 3.66 15 4 C15.33 3.34 15.66 2.68 16 2 C16.66 2.33 17.32 2.66 18 3 C17.45912682 6.78611227 15.88277668 8.55400767 13 11 C12.34 11 11.68 11 11 11 C10.7525 11.61875 10.505 12.2375 10.25 12.875 C8.79371361 15.35068687 7.62187494 15.95125002 5 17 C5.47415283 12.73262454 7.99650372 10.85698427 11 8 C11.66 7.01 12.32 6.02 13 5 C10.03 4.67 7.06 4.34 4 4 C4 3.34 4 2.68 4 2 C2.68 2 1.36 2 0 2 C0 1.34 0 0.68 0 0 Z " fill="#7772BF" transform="translate(85,110)"/>
<path d="M0 0 C4.54805635 -0.17835515 7.8794254 0.00214565 12 2 C12 5 12 5 10.57421875 6.640625 C9.95160156 7.17171875 9.32898438 7.7028125 8.6875 8.25 C8.07261719 8.79140625 7.45773438 9.3328125 6.82421875 9.890625 C6.22222656 10.25671875 5.62023437 10.6228125 5 11 C2 10 2 10 0.8125 7.75 C0.00061706 5.00208853 -0.16260121 2.84552111 0 0 Z " fill="#EBE4FA" transform="translate(115,108)"/>
<path d="M0 0 C1.60568666 0.28317926 3.20952047 0.57687791 4.8125 0.875 C6.15248047 1.11863281 6.15248047 1.11863281 7.51953125 1.3671875 C10 2 10 2 13 4 C11.71451591 5.33929505 10.42141845 6.67128643 9.125 8 C8.40570313 8.7425 7.68640625 9.485 6.9453125 10.25 C5 12 5 12 3 12 C0.95480465 7.65395988 -0.20161508 4.86396383 0 0 Z " fill="#F3F1FC" transform="translate(80,93)"/>
<path d="M0 0 C0.99 0 1.98 0 3 0 C5.32590854 3.63423209 5.16265833 6.77088331 5 11 C3.56208484 10.85831863 2.1246763 10.71148957 0.6875 10.5625 C-0.11300781 10.48128906 -0.91351563 10.40007812 -1.73828125 10.31640625 C-4 10 -4 10 -7 9 C-5.76465298 5.29395893 -3.80264776 3.66251537 -1 1 C-0.67 0.67 -0.34 0.34 0 0 Z " fill="#DCDDF8" transform="translate(79,65)"/>
<path d="M0 0 C4.05606165 0.46800711 7.46588679 0.87953208 11 3 C7 10.71428571 7 10.71428571 3 12 C0.50494038 9.50494038 0.64051624 8.32671112 0.375 4.875 C0.30023438 3.96492187 0.22546875 3.05484375 0.1484375 2.1171875 C0.09945312 1.41851562 0.05046875 0.71984375 0 0 Z " fill="#E7F1FB" transform="translate(84,139)"/>
<path d="M0 0 C1.41777182 0.08785338 2.83429039 0.19604647 4.25 0.3125 C5.43335937 0.39951172 5.43335937 0.39951172 6.640625 0.48828125 C9.62914805 1.1364543 10.87158147 1.77402895 13 4 C14.19066376 6.613425 14.97375469 9.30170302 15.75 12.0625 C16.08064453 13.16174805 16.08064453 13.16174805 16.41796875 14.28320312 C18 19.63361316 18 19.63361316 18 22 C18.969375 22.103125 19.93875 22.20625 20.9375 22.3125 C25.48593839 22.94629879 29.69417104 24.44755827 34 26 C32.02 26.99 32.02 26.99 30 28 C29.67 27.34 29.34 26.68 29 26 C27.34550895 25.61070799 25.67453799 25.291224 24 25 C17.54929577 23.77659058 17.54929577 23.77659058 15.1875 20.4375 C13.99484697 16.98508335 13.22143352 13.64802089 12.625 10.05078125 C11.88350303 7.61774431 10.96566149 6.58426449 9 5 C7.67139075 4.64830932 6.33841672 4.31229724 5 4 C4.67 3.34 4.34 2.68 4 2 C1.98330173 0.86649466 1.98330173 0.86649466 0 0 Z " fill="#BCD4F3" transform="translate(67,134)"/>
<path d="M0 0 C0.556875 0.2475 1.11375 0.495 1.6875 0.75 C0.57375 1.3996875 0.57375 1.3996875 -0.5625 2.0625 C-1.47 2.619375 -2.3775 3.17625 -3.3125 3.75 C-4.03179687 4.11222656 -4.75109375 4.47445312 -5.4921875 4.84765625 C-7.71817355 6.76553299 -7.71817355 6.76553299 -7.5546875 10.5078125 C-7.45381248 11.9651911 -7.33058457 13.42115855 -7.1875 14.875 C-7.11402344 15.98681641 -7.11402344 15.98681641 -7.0390625 17.12109375 C-6.88737295 19.00687067 -6.60927764 20.88155484 -6.3125 22.75 C-5.6525 23.08 -4.9925 23.41 -4.3125 23.75 C-6.08163824 23.97226864 -7.85294371 24.17733873 -9.625 24.375 C-10.61113281 24.49101563 -11.59726563 24.60703125 -12.61328125 24.7265625 C-15.3125 24.75 -15.3125 24.75 -18.3125 22.75 C-15.6725 23.08 -13.0325 23.41 -10.3125 23.75 C-10.333125 23.0075 -10.35375 22.265 -10.375 21.5 C-10.3125 18.75 -10.3125 18.75 -9.734375 16.859375 C-9.21688885 14.27194426 -9.72407162 12.75354793 -10.5 10.25 C-11.09765625 7.87890625 -11.09765625 7.87890625 -11.3125 5.75 C-9.4375 3.1875 -9.4375 3.1875 -7.3125 1.75 C-7.3125 2.41 -7.3125 3.07 -7.3125 3.75 C-6.57 3.069375 -5.8275 2.38875 -5.0625 1.6875 C-2.3125 -0.25 -2.3125 -0.25 0 0 Z " fill="#B3A9E4" transform="translate(94.3125,52.25)"/>
<path d="M0 0 C1.60517097 0.08733576 3.20921662 0.19552224 4.8125 0.3125 C6.15248047 0.39951172 6.15248047 0.39951172 7.51953125 0.48828125 C10.3834932 1.07911435 11.28512972 1.66542581 13 4 C13.765625 5.9375 13.765625 5.9375 14.25 8 C14.42015625 8.680625 14.5903125 9.36125 14.765625 10.0625 C15 12 15 12 14 15 C12.41727399 13.41727399 12.65264253 11.61965997 12.4375 9.4375 C12.31181641 8.19806641 12.31181641 8.19806641 12.18359375 6.93359375 C12.12300781 6.29550781 12.06242187 5.65742187 12 5 C11.14728516 5.01740234 11.14728516 5.01740234 10.27734375 5.03515625 C5.39329516 5.09223194 0.81496035 4.81956772 -4 4 C-4 5.98 -4 7.96 -4 10 C-5.76462683 6.91190305 -6 5.76687864 -6 2 C-3.36 2 -0.72 2 2 2 C1.34 1.34 0.68 0.68 0 0 Z " fill="#AFA0E0" transform="translate(96,32)"/>
<path d="M0 0 C0 3.19484985 -0.53483861 4.36764765 -2 7.125 C-3.41105176 9.44395162 -3.41105176 9.44395162 -4 12 C-1.69 12.33 0.62 12.66 3 13 C3 13.66 3 14.32 3 15 C3.66 15.33 4.32 15.66 5 16 C-5.55808656 15.22095672 -5.55808656 15.22095672 -10 13 C-9.40336911 7.82919893 -5.56485751 4.26880339 -1.6875 1.125 C-1.130625 0.75375 -0.57375 0.3825 0 0 Z " fill="#D3DEF7" transform="translate(95,123)"/>
<path d="M0 0 C0.66 0.99 1.32 1.98 2 3 C0.71451591 4.33929505 -0.57858155 5.67128643 -1.875 7 C-2.59429687 7.7425 -3.31359375 8.485 -4.0546875 9.25 C-6 11 -6 11 -8 11 C-7.67 11.53625 -7.34 12.0725 -7 12.625 C-5.77300796 15.5391061 -5.85766714 17.86867708 -6 21 C-4.68 21.66 -3.36 22.32 -2 23 C-2.66 23.99 -3.32 24.98 -4 26 C-4.66 26 -5.32 26 -6 26 C-10.09887295 14.09375 -10.09887295 14.09375 -9 8 C-6.61103766 5.26065651 -3.92840876 3.13594296 -1 1 C-0.67 0.67 -0.34 0.34 0 0 Z " fill="#D1D7F6" transform="translate(111,131)"/>
<path d="M0 0 C0.66 0.99 1.32 1.98 2 3 C1.67 3.66 1.34 4.32 1 5 C5.29 5.99 9.58 6.98 14 8 C14.33 7.34 14.66 6.68 15 6 C15.33 7.32 15.66 8.64 16 10 C17.32 10 18.64 10 20 10 C20 10.66 20 11.32 20 12 C17.69 12 15.38 12 13 12 C13 11.34 13 10.68 13 10 C11.2675 9.8453125 11.2675 9.8453125 9.5 9.6875 C4.91170165 9.0904487 1.17026693 8.04855218 -3 6 C-4 3.3125 -4 3.3125 -4 1 C-2.68 1.33 -1.36 1.66 0 2 C0 1.34 0 0.68 0 0 Z " fill="#7D90D0" transform="translate(88,150)"/>
<path d="M0 0 C0.12375 1.010625 0.2475 2.02125 0.375 3.0625 C0.91629481 6.9931888 0.91629481 6.9931888 2.0625 10.6875 C3 14 3 14 3 18 C3.99 17.67 4.98 17.34 6 17 C5.6875 18.9375 5.6875 18.9375 5 21 C4.01 21.33 3.02 21.66 2 22 C-0.09570426 16.30601106 -1.45018084 11.04801071 -2 5 C-4.31 6.32 -6.62 7.64 -9 9 C-7.45665977 5.21180126 -4.44676575 0 0 0 Z " fill="#707AC4" transform="translate(79,89)"/>
<path d="M0 0 C2.10388569 -0.05402274 4.20816714 -0.09280256 6.3125 -0.125 C8.07013672 -0.15980469 8.07013672 -0.15980469 9.86328125 -0.1953125 C13 0 13 0 16 2 C14.38405168 4.04119788 12.7143618 6.04072937 11 8 C10.34 8 9.68 8 9 8 C8.67 8.99 8.34 9.98 8 11 C7.01 11 6.02 11 5 11 C5 10.34 5 9.68 5 9 C5.66 9 6.32 9 7 9 C7.66 7.35 8.32 5.7 9 4 C7.88625 3.896875 6.7725 3.79375 5.625 3.6875 C3.830625 3.3471875 3.830625 3.3471875 2 3 C1.34 2.01 0.68 1.02 0 0 Z " fill="#7973C0" transform="translate(75,76)"/>
<path d="M0 0 C0.66 0 1.32 0 2 0 C1.1875 1.9375 1.1875 1.9375 0 4 C-0.99 4.33 -1.98 4.66 -3 5 C-3 5.66 -3 6.32 -3 7 C-3.66 7 -4.32 7 -5 7 C-5 7.99 -5 8.98 -5 10 C-5.99 10 -6.98 10 -8 10 C-8.2475 10.5775 -8.495 11.155 -8.75 11.75 C-10.18299988 14.32939979 -11.78424676 16.06121592 -14 18 C-14.66 18 -15.32 18 -16 18 C-16 17.01 -16 16.02 -16 15 C-13 12.5 -13 12.5 -10 10 C-10 9.01 -10 8.02 -10 7 C-10.66 6.34 -11.32 5.68 -12 5 C-11.38511719 4.89042969 -10.77023438 4.78085938 -10.13671875 4.66796875 C-9.32847656 4.50941406 -8.52023438 4.35085937 -7.6875 4.1875 C-6.88699219 4.03667969 -6.08648437 3.88585937 -5.26171875 3.73046875 C-2.74569185 2.91786593 -1.77405234 1.89891233 0 0 Z " fill="#7777C3" transform="translate(105,134)"/>
<path d="M0 0 C0.66 0 1.32 0 2 0 C2.18175781 0.83144531 2.36351562 1.66289063 2.55078125 2.51953125 C2.80214844 3.60621094 3.05351563 4.69289063 3.3125 5.8125 C3.55613281 6.89144531 3.79976562 7.97039062 4.05078125 9.08203125 C4.99217945 11.97595905 5.58852132 13.21550578 8 15 C10.60611077 15.72197162 10.60611077 15.72197162 13 16 C9.5647952 18.29013653 8.014669 18.17842973 4 18 C0.96089654 12.053928 0.34773428 6.63093294 0 0 Z " fill="#6BA0D2" transform="translate(57,115)"/>
<path d="M0 0 C0.99 0.33 1.98 0.66 3 1 C2.835 1.66 2.67 2.32 2.5 3 C1.87816701 6.73099794 1.93591074 10.21873378 2 14 C2.5775 13.484375 3.155 12.96875 3.75 12.4375 C6 11 6 11 8.25 11.3125 C8.8275 11.539375 9.405 11.76625 10 12 C4.375 17 4.375 17 1 17 C0.49411853 15.08487728 -0.00448391 13.16783078 -0.5 11.25 C-0.7784375 10.18265625 -1.056875 9.1153125 -1.34375 8.015625 C-2 5 -2 5 -2 1 C-1.34 0.67 -0.68 0.34 0 0 Z " fill="#D8E6FA" transform="translate(79,114)"/>
<path d="M0 0 C0.33 0.66 0.66 1.32 1 2 C1.66 2.33 2.32 2.66 3 3 C2.29875 3.556875 1.5975 4.11375 0.875 4.6875 C-4.84862125 9.221747 -4.84862125 9.221747 -10.125 14.25 C-12.1206041 16.11256383 -13.33267295 16.61895328 -16 17 C-14.88559348 13.65678045 -14.02527657 12.93980381 -11.375 10.75 C-7.36917659 7.35878848 -3.6577926 3.76066802 0 0 Z " fill="#E7DDFA" transform="translate(159,108)"/>
<path d="M0 0 C0.99 0.495 0.99 0.495 2 1 C2.625 4.0625 2.625 4.0625 3 7 C3.99 7 4.98 7 6 7 C6 7.66 6 8.32 6 9 C7.27875 9.061875 8.5575 9.12375 9.875 9.1875 C10.59429687 9.22230469 11.31359375 9.25710937 12.0546875 9.29296875 C13.01761719 9.14794922 13.01761719 9.14794922 14 9 C14.66 8.01 15.32 7.02 16 6 C17.25664978 8.90600261 18 10.79604584 18 14 C15.91303753 13.60190889 13.8304656 13.1807572 11.75 12.75 C10.00976562 12.40195313 10.00976562 12.40195313 8.234375 12.046875 C4.72118793 10.90975648 3.22605188 9.91099092 1 7 C0.25 3.25 0.25 3.25 0 0 Z " fill="#CAE5F8" transform="translate(60,120)"/>
<path d="M0 0 C0.66 0.33 1.32 0.66 2 1 C1.401875 1.7425 0.80375 2.485 0.1875 3.25 C-1.12758359 4.90324794 -2.41042523 6.58406668 -3.625 8.3125 C-4.07875 8.869375 -4.5325 9.42625 -5 10 C-5.66 10 -6.32 10 -7 10 C-7 10.99 -7 11.98 -7 13 C-7.99 13.33 -8.98 13.66 -10 14 C-10.33 14.66 -10.66 15.32 -11 16 C-13.4375 17.6875 -13.4375 17.6875 -16 19 C-16.66 18.67 -17.32 18.34 -18 18 C-17.0479279 16.99403703 -16.08812654 15.99538437 -15.125 15 C-14.32449219 14.1646875 -14.32449219 14.1646875 -13.5078125 13.3125 C-12 12 -12 12 -10 12 C-9.79375 11.46375 -9.5875 10.9275 -9.375 10.375 C-7.46749574 7.08021991 -4.95180616 4.40636372 -2 2 C-1.34 2 -0.68 2 0 2 C0 1.34 0 0.68 0 0 Z " fill="#C7E3F8" transform="translate(55,65)"/>
<path d="M0 0 C0 3.51700695 -0.64840346 4.22727278 -2.75 6.9375 C-3.29527344 7.64519531 -3.84054688 8.35289063 -4.40234375 9.08203125 C-6 11 -6 11 -8.3125 13.125 C-10.55254112 15.61393458 -10.70230165 17.72531812 -11 21 C-13.21702746 17.67445882 -13.7478996 16.85498251 -13 13 C-11.08121145 10.46631305 -8.82019203 8.3509223 -6.5 6.1875 C-5.56994141 5.2912793 -5.56994141 5.2912793 -4.62109375 4.37695312 C-3.09174512 2.90642559 -1.54728534 1.4516427 0 0 Z " fill="#CCE7F9" transform="translate(66,78)"/>
<path d="M0 0 C0.66 0 1.32 0 2 0 C2.12117188 0.58007812 2.24234375 1.16015625 2.3671875 1.7578125 C3.13570825 5.34030155 3.92467382 8.78239105 5.125 12.25 C6.00221477 15.00696072 6.16887928 17.12905232 6 20 C4.68 19.67 3.36 19.34 2 19 C2.33 16.36 2.66 13.72 3 11 C2.34 11 1.68 11 1 11 C0.67 7.37 0.34 3.74 0 0 Z " fill="#8273C5" transform="translate(106,37)"/>
<path d="M0 0 C-0.721875 0.556875 -1.44375 1.11375 -2.1875 1.6875 C-3.115625 2.450625 -4.04375 3.21375 -5 4 C-5.928125 4.680625 -6.85625 5.36125 -7.8125 6.0625 C-11.09302152 10.46777175 -10.41871018 14.68703305 -10 20 C-12.78437517 15.82343724 -13.55930617 12.00352277 -13 7 C-9.95897382 1.78417933 -6.19099383 -1.05699895 0 0 Z " fill="#DDD3F5" transform="translate(146,102)"/>
<path d="M0 0 C0.66 0 1.32 0 2 0 C0.35589284 4.17583045 -2.68959994 7.02098084 -5.8125 10.125 C-6.33392578 10.66253906 -6.85535156 11.20007813 -7.39257812 11.75390625 C-10.39061422 14.75568521 -12.83803631 16.75371882 -17 18 C-15.625 16 -15.625 16 -14 14 C-13.34 14 -12.68 14 -12 14 C-11.67 13.01 -11.34 12.02 -11 11 C-9.37897032 9.28891311 -7.70496537 7.62746694 -6 6 C-5.0925 5.0925 -4.185 4.185 -3.25 3.25 C-1.625 1.625 -1.625 1.625 0 0 Z " fill="#EAE6FB" transform="translate(125,142)"/>
<path d="M0 0 C0.66 0 1.32 0 2 0 C3.60725635 3.21451269 3.05748185 6.43612536 3 10 C2.01 9.67 1.02 9.34 0 9 C0 8.34 0 7.68 0 7 C-0.78375 7.515625 -1.5675 8.03125 -2.375 8.5625 C-3.24125 9.036875 -4.1075 9.51125 -5 10 C-5.66 9.67 -6.32 9.34 -7 9 C-6.401875 8.2575 -5.80375 7.515 -5.1875 6.75 C-3.87241641 5.09675206 -2.58957477 3.41593332 -1.375 1.6875 C-0.92125 1.130625 -0.4675 0.57375 0 0 Z " fill="#E5EFFB" transform="translate(75,94)"/>
<path d="M0 0 C2.77042109 2.77042109 2.39796106 4.76533805 2.625 8.625 C2.69976562 9.81351563 2.77453125 11.00203125 2.8515625 12.2265625 C2.92503906 13.59941406 2.92503906 13.59941406 3 15 C-2.94 13.515 -2.94 13.515 -9 12 C-9 11.67 -9 11.34 -9 11 C-6.03 10.34 -3.06 9.68 0 9 C0 6.03 0 3.06 0 0 Z " fill="#E5DBF9" transform="translate(154,87)"/>
<path d="M0 0 C0.66 0.33 1.32 0.66 2 1 C1.67 1.99 1.34 2.98 1 4 C0.66781808 7.00259517 0.66781808 7.00259517 2.5 8.6875 C2.995 9.120625 3.49 9.55375 4 10 C3.67 10.66 3.34 11.32 3 12 C1.35 12 -0.3 12 -2 12 C-2.33 12.66 -2.66 13.32 -3 14 C-2.67 11.36 -2.34 8.72 -2 6 C-3.32 6.33 -4.64 6.66 -6 7 C-4.60667426 3.63279613 -3.0210714 2.0140476 0 0 Z " fill="#A69ADC" transform="translate(117,96)"/>
<path d="M0 0 C1.8743905 3.41256746 2.95655044 6.89925359 4.0625 10.625 C5.28726304 14.90890201 5.28726304 14.90890201 7 19 C5.35 18.67 3.7 18.34 2 18 C0.77100654 11.93184478 -0.27560214 6.20104812 0 0 Z " fill="#C7EEFB" transform="translate(30,89)"/>
<path d="M0 0 C0.99 0.33 1.98 0.66 3 1 C5.14413223 1.09504628 7.2912677 1.12987226 9.4375 1.125 C10.57058594 1.12757812 11.70367187 1.13015625 12.87109375 1.1328125 C15.45221183 1.02325193 17.54944405 0.75864877 20 0 C19.34 1.65 18.68 3.3 18 5 C12.28454981 5.20783455 6.3769322 5.20018889 1 3 C0.67 2.01 0.34 1.02 0 0 Z " fill="#C4E5F8" transform="translate(35,85)"/>
<path d="M0 0 C7.08318345 2.28102518 7.08318345 2.28102518 9.6875 6.1875 C8.20632199 5.90622579 6.72756751 5.61216268 5.25 5.3125 C4.42628906 5.15007812 3.60257813 4.98765625 2.75390625 4.8203125 C2.07199219 4.61148438 1.39007813 4.40265625 0.6875 4.1875 C0.3575 3.5275 0.0275 2.8675 -0.3125 2.1875 C-3.93863199 2.75709153 -5.56767741 4.11124534 -8.0625 6.75 C-8.67609375 7.39066406 -9.2896875 8.03132813 -9.921875 8.69140625 C-10.38078125 9.18511719 -10.8396875 9.67882812 -11.3125 10.1875 C-11.9725 9.8575 -12.6325 9.5275 -13.3125 9.1875 C-5.04735868 -0.62735532 -5.04735868 -0.62735532 0 0 Z " fill="#A692DA" transform="translate(138.3125,78.8125)"/>
<path d="M0 0 C0.556875 0.268125 1.11375 0.53625 1.6875 0.8125 C1.6875 3.1225 1.6875 5.4325 1.6875 7.8125 C0.6975 8.3075 0.6975 8.3075 -0.3125 8.8125 C-0.6425 7.1625 -0.9725 5.5125 -1.3125 3.8125 C-3.6225 5.4625 -5.9325 7.1125 -8.3125 8.8125 C-7.22927088 4.47958352 -5.18893387 -0.42072437 0 0 Z " fill="#9172C8" transform="translate(137.3125,80.1875)"/>
<path d="M0 0 C2.1519437 3.22791555 2.20086443 4.28400809 2 8 C-0.31 8 -2.62 8 -5 8 C-4.125 3.25 -4.125 3.25 -3 1 C-2.01 0.67 -1.02 0.34 0 0 Z " fill="#EBFCFE" transform="translate(49,98)"/>
<path d="M0 0 C0.66 0.33 1.32 0.66 2 1 C1.67 1.99 1.34 2.98 1 4 C1.66 4.33 2.32 4.66 3 5 C2.01 5.495 2.01 5.495 1 6 C1 8.97 1 11.94 1 15 C0.34 14.67 -0.32 14.34 -1 14 C-1.40729228 11.67843403 -1.74438677 9.3431213 -2 7 C-2.66 7 -3.32 7 -4 7 C-2.92598892 4.08482708 -2.22189824 2.22189824 0 0 Z " fill="#7C70C1" transform="translate(114,101)"/>
<path d="M0 0 C1.6256807 0.30893932 3.25052748 0.6222695 4.875 0.9375 C5.77992187 1.11152344 6.68484375 1.28554688 7.6171875 1.46484375 C10 2 10 2 12 3 C11.75 4.875 11.75 4.875 11 7 C8.9375 8.25 8.9375 8.25 7 9 C6.67 6.69 6.34 4.38 6 2 C4.68 2 3.36 2 2 2 C2 3.98 2 5.96 2 8 C1.67 8 1.34 8 1 8 C0.67 5.36 0.34 2.72 0 0 Z " fill="#DFE0F9" transform="translate(66,58)"/>
<path d="M0 0 C0 3 0 3 -1.53125 4.82421875 C-2.50578125 5.74654297 -2.50578125 5.74654297 -3.5 6.6875 C-4.1496875 7.31011719 -4.799375 7.93273437 -5.46875 8.57421875 C-5.9740625 9.04472656 -6.479375 9.51523438 -7 10 C-6.34 10.66 -5.68 11.32 -5 12 C-6.65 13.98 -8.3 15.96 -10 18 C-10.66 17.67 -11.32 17.34 -12 17 C-11.01 15.35 -10.02 13.7 -9 12 C-9.66 11.67 -10.32 11.34 -11 11 C-7.37 7.37 -3.74 3.74 0 0 Z " fill="#A8B7E7" transform="translate(78,86)"/>
<path d="M0 0 C0 0.99 0 1.98 0 3 C-0.99 3.495 -0.99 3.495 -2 4 C-2.1546875 5.1446875 -2.1546875 5.1446875 -2.3125 6.3125 C-3.24244271 9.94773058 -4.89916687 11.00660727 -8 13 C-9.66666667 13 -11.33333333 13 -13 13 C-13 12.34 -13 11.68 -13 11 C-11.3603125 10.1646875 -11.3603125 10.1646875 -9.6875 9.3125 C-6.27345065 7.3822226 -4.8405578 5.49705982 -3 2 C-2.01 1.34 -1.02 0.68 0 0 Z " fill="#9795D6" transform="translate(93,120)"/>
<path d="M0 0 C0.66 0 1.32 0 2 0 C2 2 2 2 -0.1875 4.3125 C-1.115625 5.199375 -2.04375 6.08625 -3 7 C-3.845625 7.9075 -4.69125 8.815 -5.5625 9.75 C-7.87251995 11.88232611 -8.94189832 12.66021092 -12 13 C-9.46647805 7.77461098 -5.36752912 4.64287183 -1 1 C-0.67 0.67 -0.34 0.34 0 0 Z " fill="#DFD4F6" transform="translate(134,84)"/>
<path d="M0 0 C0.33 0 0.66 0 1 0 C1.125 5.75 1.125 5.75 0 8 C-1.62818946 7.77169299 -3.2526349 7.51656424 -4.875 7.25 C-5.77992187 7.11078125 -6.68484375 6.9715625 -7.6171875 6.828125 C-10 6 -10 6 -12 2 C-6.06 2.99 -6.06 2.99 0 4 C0 2.68 0 1.36 0 0 Z " fill="#9B8ED5" transform="translate(108,48)"/>
<path d="M0 0 C1.62580966 0.11398665 3.25067157 0.24155659 4.875 0.375 C5.77992187 0.44460937 6.68484375 0.51421875 7.6171875 0.5859375 C10 1 10 1 12 3 C12.66 2.67 13.32 2.34 14 2 C13.67 3.32 13.34 4.64 13 6 C11.68 6.33 10.36 6.66 9 7 C9 5.68 9 4.36 9 3 C8.071875 3.061875 7.14375 3.12375 6.1875 3.1875 C3 3 3 3 1.30078125 1.48828125 C0.87152344 0.99714844 0.44226563 0.50601563 0 0 Z " fill="#7A6DC1" transform="translate(119,106)"/>
<path d="M0 0 C0.33 1.32 0.66 2.64 1 4 C-2 6 -2 6 -4 7 C-3.67 8.65 -3.34 10.3 -3 12 C-5.97 11.505 -5.97 11.505 -9 11 C-7.59155282 7.78475695 -5.89655214 5.67816132 -3.375 3.25 C-2.74335937 2.63640625 -2.11171875 2.0228125 -1.4609375 1.390625 C-0.73777344 0.70226563 -0.73777344 0.70226563 0 0 Z " fill="#D1DBF6" transform="translate(76,44)"/>
<path d="M0 0 C0.66 0 1.32 0 2 0 C2.53093324 1.93475671 3.04942317 3.87293155 3.5625 5.8125 C3.85253906 6.89144531 4.14257812 7.97039062 4.44140625 9.08203125 C5 12 5 12 4 15 C0.54356994 12.32912223 0.11264395 9.07969447 -1 5 C-1.66 4.34 -2.32 3.68 -3 3 C-2.01 3 -1.02 3 0 3 C0 2.01 0 1.02 0 0 Z " fill="#8385CC" transform="translate(100,141)"/>
<path d="M0 0 C0.66 0.99 1.32 1.98 2 3 C-6.10526316 10 -6.10526316 10 -11 10 C-3.70159453 2.51708428 -3.70159453 2.51708428 0 0 Z " fill="#948CD1" transform="translate(111,127)"/>
<path d="M0 0 C2.3165594 4.63311879 2.38734588 7.11933716 1 12 C-0.8125 14.5625 -0.8125 14.5625 -3 16 C-5.25 15.75 -5.25 15.75 -7 15 C-6.01 14.67 -5.02 14.34 -4 14 C-2.79117904 11.99983534 -2.79117904 11.99983534 -2 10 C-1.34 10 -0.68 10 0 10 C0 6.7 0 3.4 0 0 Z " fill="#91A4DC" transform="translate(65,67)"/>
<path d="M0 0 C-1.35335595 3.08859947 -2.80886249 5.007964 -5.375 7.1875 C-5.96023437 7.69667969 -6.54546875 8.20585938 -7.1484375 8.73046875 C-9.11024909 10.07559273 -10.676089 10.57514402 -13 11 C-4.30232558 0 -4.30232558 0 0 0 Z " fill="#8177C4" transform="translate(82,37)"/>
<path d="M0 0 C0.73046875 1.73828125 0.73046875 1.73828125 1 4 C-0.51171875 6.10546875 -0.51171875 6.10546875 -2.6875 8.1875 C-3.74517578 9.22970703 -3.74517578 9.22970703 -4.82421875 10.29296875 C-6.97612297 11.98126703 -8.33004812 12.59619238 -11 13 C-10.23286356 11.89326166 -9.46110997 10.78972306 -8.6875 9.6875 C-8.04361328 8.76517578 -8.04361328 8.76517578 -7.38671875 7.82421875 C-6.02740072 6.03604546 -4.69393499 4.47594871 -3 3 C-2.34 3 -1.68 3 -1 3 C-0.67 2.01 -0.34 1.02 0 0 Z " fill="#E1D6F7" transform="translate(141,125)"/>
<path d="M0 0 C0 0.33 0 0.66 0 1 C-0.60328125 1.02578125 -1.2065625 1.0515625 -1.828125 1.078125 C-6.94221118 1.41942078 -6.94221118 1.41942078 -11.4375 3.6875 C-13.24471233 6.36217425 -14.15329666 8.89542108 -15 12 C-15.33 12 -15.66 12 -16 12 C-16.47408752 8.61366055 -16.73379844 6.08454486 -14.7578125 3.1640625 C-10.02156257 -1.48488328 -6.26016137 -1.5614915 0 0 Z " fill="#EFE7FC" transform="translate(102,54)"/>
<path d="M0 0 C5.77807024 -0.2358396 10.51324804 0.13216954 16 2 C16 2.66 16 3.32 16 4 C10.39538469 3.57910004 5.27913453 3.08386889 0 1 C0 0.67 0 0.34 0 0 Z " fill="#6992CC" transform="translate(56,112)"/>
<path d="M0 0 C1.74627478 2.61941217 2.38722388 4.03824877 3 7 C3.66 7 4.32 7 5 7 C5 6.34 5 5.68 5 5 C5.99 4.67 6.98 4.34 8 4 C8 4.66 8 5.32 8 6 C8.99 6.33 9.98 6.66 11 7 C9.35 7 7.7 7 6 7 C6 7.66 6 8.32 6 9 C5.01 9 4.02 9 3 9 C3 9.66 3 10.32 3 11 C2.34 11 1.68 11 1 11 C1 10.34 1 9.68 1 9 C0.34 8.67 -0.32 8.34 -1 8 C-0.7525 7.13375 -0.7525 7.13375 -0.5 6.25 C0.14462031 3.73335631 0.14462031 3.73335631 0 0 Z " fill="#94A5DE" transform="translate(79,103)"/>
<path d="M0 0 C2.31 0.33 4.62 0.66 7 1 C7.33 2.32 7.66 3.64 8 5 C6.27073126 4.68806536 4.54158956 4.37542638 2.8125 4.0625 C1.84957031 3.88847656 0.88664063 3.71445313 -0.10546875 3.53515625 C-2.74239972 3.0476265 -5.3719905 2.53328895 -8 2 C-8 1.67 -8 1.34 -8 1 C-5.36 1 -2.72 1 0 1 C0 0.67 0 0.34 0 0 Z " fill="#A38FD8" transform="translate(149,100)"/>
<path d="M0 0 C0 3 0 3 -1.4609375 4.82421875 C-2.09257813 5.43910156 -2.72421875 6.05398437 -3.375 6.6875 C-4.00148438 7.31011719 -4.62796875 7.93273437 -5.2734375 8.57421875 C-7 10 -7 10 -9 10 C-8.52695318 5.74257863 -6.1136178 3.74294902 -3 1 C-2.01 0.67 -1.02 0.34 0 0 Z " fill="#7197D0" transform="translate(53,65)"/>
<path d="M0 0 C0.66 0.99 1.32 1.98 2 3 C-0.64 5.64 -3.28 8.28 -6 11 C-6.33 9.68 -6.66 8.36 -7 7 C-5.56640625 5.078125 -5.56640625 5.078125 -3.5625 3.25 C-2.90378906 2.63640625 -2.24507813 2.0228125 -1.56640625 1.390625 C-1.04949219 0.93171875 -0.53257813 0.4728125 0 0 Z " fill="#E0E0F8" transform="translate(111,131)"/>
<path d="M0 0 C3.31012244 3.31012244 3.50351065 4.53159589 4 9 C2.35 9.33 0.7 9.66 -1 10 C-0.67 6.7 -0.34 3.4 0 0 Z " fill="#9275CA" transform="translate(158,97)"/>
<path d="M0 0 C1.98 0.495 1.98 0.495 4 1 C4 1.66 4 2.32 4 3 C5.98 3.66 7.96 4.32 10 5 C6.98968256 5.93423645 6.13349732 6.04449911 3 5 C3 5.66 3 6.32 3 7 C2.34 7 1.68 7 1 7 C0.67 7.99 0.34 8.98 0 10 C-1.125 2.25 -1.125 2.25 0 0 Z " fill="#9B9EDA" transform="translate(79,86)"/>
<path d="M0 0 C0.99 0.33 1.98 0.66 3 1 C2.5359375 1.928125 2.5359375 1.928125 2.0625 2.875 C0.5960722 7.18802294 0.33380974 11.4759996 0 16 C-0.33 16 -0.66 16 -1 16 C-1 14.02 -1 12.04 -1 10 C-1.66 10 -2.32 10 -3 10 C-3 8.35 -3 6.7 -3 5 C-2.01 5 -1.02 5 0 5 C0 3.35 0 1.7 0 0 Z " fill="#E4FBFE" transform="translate(30,80)"/>
<path d="M0 0 C9.76076555 1.13875598 9.76076555 1.13875598 12 2 C14.4294516 5.6441774 14.16179575 7.71241272 14 12 C13.34 11.67 12.68 11.34 12 11 C11.835 9.88625 11.67 8.7725 11.5 7.625 C10.42321639 3.88125581 10.42321639 3.88125581 7.6484375 2.87109375 C5.10973025 2.13093544 2.5955784 1.50283345 0 1 C0 0.67 0 0.34 0 0 Z " fill="#D4C9F3" transform="translate(146,81)"/>
<path d="M0 0 C0.66 0.33 1.32 0.66 2 1 C1.34 1.66 0.68 2.32 0 3 C0 3.99 0 4.98 0 6 C0.99 6.66 1.98 7.32 3 8 C2.34 8 1.68 8 1 8 C0.67 8.66 0.34 9.32 0 10 C-0.99 10.495 -0.99 10.495 -2 11 C-2.66 10.34 -3.32 9.68 -4 9 C-3.67 8.34 -3.34 7.68 -3 7 C-3.66 6.67 -4.32 6.34 -5 6 C-3.35 4.02 -1.7 2.04 0 0 Z " fill="#8E98D8" transform="translate(65,50)"/>
<path d="M0 0 C0.556875 0.474375 1.11375 0.94875 1.6875 1.4375 C4.18346074 3.12395996 6.0446237 3.58953107 9 4 C5.5647952 6.29013653 4.014669 6.17842973 0 6 C-0.66 4.35 -1.32 2.7 -2 1 C-1.34 0.67 -0.68 0.34 0 0 Z " fill="#78AADA" transform="translate(61,127)"/>
<path d="M0 0 C0.8353125 0.37125 0.8353125 0.37125 1.6875 0.75 C0.6046875 1.36875 0.6046875 1.36875 -0.5 2 C-3.38257178 3.69512785 -3.38257178 3.69512785 -5.9375 6 C-6.72125 6.5775 -7.505 7.155 -8.3125 7.75 C-9.3025 7.42 -10.2925 7.09 -11.3125 6.75 C-10.3225 5.1 -9.3325 3.45 -8.3125 1.75 C-7.9825 2.41 -7.6525 3.07 -7.3125 3.75 C-6.57 3.069375 -5.8275 2.38875 -5.0625 1.6875 C-2.3125 -0.25 -2.3125 -0.25 0 0 Z " fill="#A699DB" transform="translate(94.3125,52.25)"/>
<path d="M0 0 C0.66 0 1.32 0 2 0 C2 0.66 2 1.32 2 2 C2.66 2.33 3.32 2.66 4 3 C2.02 5.31 0.04 7.62 -2 10 C-2.66 9.67 -3.32 9.34 -4 9 C-3.34 8.01 -2.68 7.02 -2 6 C-2.66 5.67 -3.32 5.34 -4 5 C-2.71937515 3.2925002 -1.38232443 1.62626404 0 0 Z " fill="#A99CDE" transform="translate(129,132)"/>
<path d="M0 0 C0.33 0.66 0.66 1.32 1 2 C3.02463255 2.65213292 3.02463255 2.65213292 5 3 C5 3.99 5 4.98 5 6 C1.7 6 -1.6 6 -5 6 C-4.67 4.68 -4.34 3.36 -4 2 C-2.02 2.495 -2.02 2.495 0 3 C0 2.01 0 1.02 0 0 Z " fill="#7883CA" transform="translate(71,72)"/>
<path d="M0 0 C2.89932357 2.39509338 3.50168276 4.31245243 4 8 C1.5625 7.625 1.5625 7.625 -1 7 C-1.33 6.34 -1.66 5.68 -2 5 C-1.0625 2.375 -1.0625 2.375 0 0 Z " fill="#F7F7FC" transform="translate(80,68)"/>
<path d="M0 0 C0.66 0 1.32 0 2 0 C1.62118922 2.74637817 1.22167713 3.80049058 -0.875 5.6875 C-3 7 -3 7 -6 8 C-6.33 7.01 -6.66 6.02 -7 5 C-6.401875 4.731875 -5.80375 4.46375 -5.1875 4.1875 C-2.95672092 3.1106021 -2.95672092 3.1106021 -1.375 1.375 C-0.694375 0.694375 -0.694375 0.694375 0 0 Z " fill="#9183CE" transform="translate(136,102)"/>
<path d="M0 0 C0.66 0.33 1.32 0.66 2 1 C1.34 1.66 0.68 2.32 0 3 C-1.01529541 5.32671865 -2.01488198 7.6603447 -3 10 C-3.99 11.485 -3.99 11.485 -5 13 C-5.66 12.67 -6.32 12.34 -7 12 C-6.01 10.68 -5.02 9.36 -4 8 C-4.66 7.34 -5.32 6.68 -6 6 C-4 4 -2 2 0 0 Z " fill="#A297D9" transform="translate(94,70)"/>
<path d="M0 0 C2.49732489 3.74598733 2.62175294 5.57001031 2 10 C-1 12.4375 -1 12.4375 -4 14 C-4.33 13.01 -4.66 12.02 -5 11 C-4.34 10.01 -3.68 9.02 -3 8 C-1.68 8.33 -0.36 8.66 1 9 C0.67 6.03 0.34 3.06 0 0 Z " fill="#9D8FD6" transform="translate(111,48)"/>
<path d="M0 0 C0.99 0.495 0.99 0.495 2 1 C2 1.66 2 2.32 2 3 C3.65 3.33 5.3 3.66 7 4 C5.625 6.5 5.625 6.5 4 9 C3.34 9 2.68 9 2 9 C1.34 6.03 0.68 3.06 0 0 Z " fill="#EAE3FB" transform="translate(100,102)"/>
<path d="M0 0 C0.66 0.33 1.32 0.66 2 1 C2.34342449 2.33076989 2.67619874 3.66431979 3 5 C3.66 5.66 4.32 6.32 5 7 C3.68 7 2.36 7 1 7 C1 8.65 1 10.3 1 12 C0.34 11.67 -0.32 11.34 -1 11 C-1.125 3.375 -1.125 3.375 0 0 Z " fill="#9688D2" transform="translate(115,113)"/>
<path d="M0 0 C6.625 -0.25 6.625 -0.25 10 2 C8.948125 1.896875 7.89625 1.79375 6.8125 1.6875 C2.07889834 2.07550014 1.00836452 3.47591585 -2 7 C-2.99 7.495 -2.99 7.495 -4 8 C-2.66666667 5.33333333 -1.33333333 2.66666667 0 0 Z " fill="#E2EBFB" transform="translate(67,77)"/>
<path d="M0 0 C2.1793144 1.75864246 2.93686419 2.69396 3.51171875 5.48046875 C3.56972656 6.37378906 3.62773438 7.26710938 3.6875 8.1875 C3.75324219 9.08855469 3.81898437 9.98960938 3.88671875 10.91796875 C3.92410156 11.60503906 3.96148437 12.29210938 4 13 C2 12 2 12 0.875 8.75 C0.14536518 5.62299365 -0.19234975 3.17377095 0 0 Z " fill="#7F76C2" transform="translate(88,35)"/>
<path d="M0 0 C7.42857143 -0.28571429 7.42857143 -0.28571429 11 2 C8 4 8 4 4 4 C4 3.34 4 2.68 4 2 C2.68 2 1.36 2 0 2 C0 1.34 0 0.68 0 0 Z " fill="#8784CC" transform="translate(85,110)"/>
<path d="M0 0 C0.66 0.33 1.32 0.66 2 1 C2.40729228 3.32156597 2.74438677 5.6568787 3 8 C2.34 8 1.68 8 1 8 C0.67 8.99 0.34 9.98 0 11 C-1.28571429 3.57142857 -1.28571429 3.57142857 0 0 Z " fill="#968AD2" transform="translate(97,95)"/>
<path d="M0 0 C2.31 0.33 4.62 0.66 7 1 C7 1.99 7 2.98 7 4 C4 6.1875 4 6.1875 1 8 C1 7.01 1 6.02 1 5 C1.66 5 2.32 5 3 5 C2.01 3.35 1.02 1.7 0 0 Z " fill="#C2ECFA" transform="translate(40,91)"/>
<path d="M0 0 C0.66 0.66 1.32 1.32 2 2 C2.66 1.34 3.32 0.68 4 0 C5.60355101 3.50776784 6.22036864 6.14354879 6 10 C2.46413986 6.82679218 0.41421969 4.83256305 0 0 Z " fill="#AE9BDF" transform="translate(136,86)"/>
<path d="M0 0 C0.99 0.33 1.98 0.66 3 1 C2.34 2.65 1.68 4.3 1 6 C-1.97 5.505 -1.97 5.505 -5 5 C-3.35 3.35 -1.7 1.7 0 0 Z " fill="#E1FBFE" transform="translate(41,81)"/>
<path d="M0 0 C0.66 0 1.32 0 2 0 C2 0.66 2 1.32 2 2 C3.32 1.67 4.64 1.34 6 1 C6 1.66 6 2.32 6 3 C5.38125 3.0825 4.7625 3.165 4.125 3.25 C1.81562433 3.81258459 1.81562433 3.81258459 0.75 6.0625 C0.5025 6.701875 0.255 7.34125 0 8 C-0.66 7.67 -1.32 7.34 -2 7 C-1.01 5.68 -0.02 4.36 1 3 C0.01 3.33 -0.98 3.66 -2 4 C-2 3.34 -2 2.68 -2 2 C-1.34 2 -0.68 2 0 2 C0 1.34 0 0.68 0 0 Z " fill="#B7AAE5" transform="translate(81,34)"/>
<path d="M0 0 C0.66 0.33 1.32 0.66 2 1 C2.40729228 3.32156597 2.74438677 5.6568787 3 8 C2.34 7.34 1.68 6.68 1 6 C0.34 7.32 -0.32 8.64 -1 10 C-1.33 7.03 -1.66 4.06 -2 1 C-1.34 0.67 -0.68 0.34 0 0 Z " fill="#AB9ADE" transform="translate(158,92)"/>
<path d="M0 0 C0 3.39593478 -0.52165948 4.06619881 -2.5 6.6875 C-2.9640625 7.31011719 -3.428125 7.93273437 -3.90625 8.57421875 C-4.2671875 9.04472656 -4.628125 9.51523438 -5 10 C-5.99 9.34 -6.98 8.68 -8 8 C-5.36 5.36 -2.72 2.72 0 0 Z " fill="#C2D8F4" transform="translate(66,78)"/>
<path d="M0 0 C1.27875 0.103125 2.5575 0.20625 3.875 0.3125 C4.95394531 0.39951172 4.95394531 0.39951172 6.0546875 0.48828125 C8 1 8 1 10 4 C7.03 3.67 4.06 3.34 1 3 C0.67 2.01 0.34 1.02 0 0 Z " fill="#6EA5D6" transform="translate(37,88)"/>
<path d="M0 0 C0.66 0 1.32 0 2 0 C1.38722388 2.96175123 0.74627478 4.38058783 -1 7 C-3.625 7.6875 -3.625 7.6875 -6 8 C-5.04956626 6.66102417 -4.08940853 5.32894573 -3.125 4 C-2.59132813 3.2575 -2.05765625 2.515 -1.5078125 1.75 C-1.01023437 1.1725 -0.51265625 0.595 0 0 Z " fill="#837AC5" transform="translate(105,60)"/>
<path d="M0 0 C3.3 0.33 6.6 0.66 10 1 C10 1.66 10 2.32 10 3 C6.6875 3.1875 6.6875 3.1875 3 3 C2.01 2.01 1.02 1.02 0 0 Z " fill="#777DC6" transform="translate(90,156)"/>
<path d="M0 0 C0.99 0.33 1.98 0.66 3 1 C2.67 2.32 2.34 3.64 2 5 C0.02 5 -1.96 5 -4 5 C-2.68 3.35 -1.36 1.7 0 0 Z " fill="#CCD2F5" transform="translate(97,145)"/>
<path d="M0 0 C0.66 0.66 1.32 1.32 2 2 C0.37660195 3.70884005 -1.29319053 5.37446717 -3 7 C-3.66 7 -4.32 7 -5 7 C-5 6.01 -5 5.02 -5 4 C-2.5 1.8125 -2.5 1.8125 0 0 Z " fill="#7F7FC8" transform="translate(94,145)"/>
<path d="M0 0 C1.65 0 3.3 0 5 0 C5 1.32 5 2.64 5 4 C4.01 4 3.02 4 2 4 C1.67 4.66 1.34 5.32 1 6 C0.67 4.02 0.34 2.04 0 0 Z " fill="#DCD2F5" transform="translate(127,128)"/>
<path d="M0 0 C0.33 0.66 0.66 1.32 1 2 C1.66 2.33 2.32 2.66 3 3 C1.35 4.32 -0.3 5.64 -2 7 C-2.6875 5.1875 -2.6875 5.1875 -3 3 C-1.5625 1.25 -1.5625 1.25 0 0 Z " fill="#F0EAFA" transform="translate(159,108)"/>
<path d="M0 0 C4.90567888 -0.28301994 7.24528933 -0.16492205 11 3 C9.35333797 2.8864371 7.70763918 2.75882619 6.0625 2.625 C5.14597656 2.55539063 4.22945312 2.48578125 3.28515625 2.4140625 C2.15400391 2.20910156 2.15400391 2.20910156 1 2 C0.67 1.34 0.34 0.68 0 0 Z " fill="#68A2D4" transform="translate(43,108)"/>
<path d="M0 0 C0.66 0 1.32 0 2 0 C4.29648649 2.5614657 5 3.47967572 5 7 C4.34 7 3.68 7 3 7 C2.67 7.66 2.34 8.32 2 9 C1.34 6.03 0.68 3.06 0 0 Z " fill="#79B9E1" transform="translate(30,88)"/>
<path d="M0 0 C1.98 0 3.96 0 6 0 C6 0.66 6 1.32 6 2 C4.68 2 3.36 2 2 2 C2 3.98 2 5.96 2 8 C0.23537317 4.91190305 0 3.76687864 0 0 Z " fill="#CDC0F0" transform="translate(90,34)"/>
<path d="M0 0 C0.66 0 1.32 0 2 0 C2 0.66 2 1.32 2 2 C3.32 1.34 4.64 0.68 6 0 C5.1875 1.9375 5.1875 1.9375 4 4 C3.01 4.33 2.02 4.66 1 5 C1 4.34 1 3.68 1 3 C0.01 3.33 -0.98 3.66 -2 4 C-2 3.34 -2 2.68 -2 2 C-1.34 2 -0.68 2 0 2 C0 1.34 0 0.68 0 0 Z " fill="#A2A2DF" transform="translate(112,149)"/>
<path d="M0 0 C0.99 0 1.98 0 3 0 C3 0.66 3 1.32 3 2 C4.32 1.34 5.64 0.68 7 0 C6 3 6 3 3.9375 4.1875 C3.298125 4.455625 2.65875 4.72375 2 5 C1.34 4.34 0.68 3.68 0 3 C0 2.01 0 1.02 0 0 Z " fill="#C7D9F6" transform="translate(85,146)"/>
<path d="M0 0 C2 3 2 3 1.75 5 C1 7 1 7 -1 10 C-1.33 7.03 -1.66 4.06 -2 1 C-1.34 0.67 -0.68 0.34 0 0 Z " fill="#7CB2DF" transform="translate(53,96)"/>
<path d="M0 0 C0.33 0 0.66 0 1 0 C1.25 3.3125 1.25 3.3125 1 7 C-1 8.9375 -1 8.9375 -3 10 C-2.39009109 6.44219804 -1.4216319 3.3171411 0 0 Z " fill="#E2D7F8" transform="translate(138,93)"/>
<path d="M0 0 C0.66 0.33 1.32 0.66 2 1 C2 1.99 2 2.98 2 4 C-0.31 4.66 -2.62 5.32 -5 6 C-3.35 4.02 -1.7 2.04 0 0 Z " fill="#7BB7E1" transform="translate(45,95)"/>
<path d="M0 0 C1.98 0.495 1.98 0.495 4 1 C4 1.66 4 2.32 4 3 C3.34 3 2.68 3 2 3 C2 3.66 2 4.32 2 5 C1.01 5 0.02 5 -1 5 C-0.67 3.35 -0.34 1.7 0 0 Z " fill="#F5FDFE" transform="translate(39,93)"/>
<path d="M0 0 C0.33 0.99 0.66 1.98 1 3 C-0.32 3.33 -1.64 3.66 -3 4 C-3 4.99 -3 5.98 -3 7 C-3.99 7 -4.98 7 -6 7 C-6 6.01 -6 5.02 -6 4 C-3 1.8125 -3 1.8125 0 0 Z " fill="#6D72BE" transform="translate(74,68)"/>
<path d="M0 0 C0.66 0 1.32 0 2 0 C3.05404945 3.98196457 2.84098656 6.98195309 2 11 C1.67 11 1.34 11 1 11 C0.67 7.37 0.34 3.74 0 0 Z " fill="#9687D2" transform="translate(106,37)"/>
<path d="M0 0 C2.1519437 3.22791555 2.20086443 4.28400809 2 8 C-0.31 7.67 -2.62 7.34 -5 7 C-5 6.67 -5 6.34 -5 6 C-3.35 6 -1.7 6 0 6 C0 4.02 0 2.04 0 0 Z " fill="#C8CEF3" transform="translate(100,150)"/>
<path d="M0 0 C-1.0975223 2.99324263 -1.67682892 3.84610901 -4.625 5.25 C-5.40875 5.4975 -6.1925 5.745 -7 6 C-5.52522876 2.59668175 -4.14385429 0 0 0 Z " fill="#DFD5F6" transform="translate(127,142)"/>
<path d="M0 0 C-1.36983503 3.16115776 -1.9890638 3.9927092 -5 6 C-5.33 5.01 -5.66 4.02 -6 3 C-3.375 0 -3.375 0 0 0 Z " fill="#EDE5FB" transform="translate(113,124)"/>
<path d="M0 0 C0.33 0.99 0.66 1.98 1 3 C0 5 0 5 -3.0625 6.125 C-4.031875 6.41375 -5.00125 6.7025 -6 7 C-6 6.34 -6 5.68 -6 5 C-4.04072937 3.2856382 -2.04119788 1.61594832 0 0 Z " fill="#D8D4F5" transform="translate(102,116)"/>
<path d="M0 0 C3.3 0.33 6.6 0.66 10 1 C5.88348273 3.05825864 5.13191749 3.34008135 1 2 C0.67 1.34 0.34 0.68 0 0 Z " fill="#8379C5" transform="translate(119,106)"/>
<path d="M0 0 C0.66 0.33 1.32 0.66 2 1 C-0.65654657 4.73884332 -2.58110387 6.64978174 -7 8 C-6.02133662 6.85373678 -5.04205413 5.70800212 -4.0625 4.5625 C-3.51722656 3.92441406 -2.97195312 3.28632812 -2.41015625 2.62890625 C-1.63204305 1.73008851 -0.84063472 0.84063472 0 0 Z " fill="#CEC8F2" transform="translate(94,99)"/>
<path d="M0 0 C2.97 0.495 2.97 0.495 6 1 C4.68 1.33 3.36 1.66 2 2 C2 3.98 2 5.96 2 8 C-0.1519437 4.77208445 -0.20086443 3.71599191 0 0 Z " fill="#C7D1F5" transform="translate(80,93)"/>
<path d="M0 0 C0.66 1.32 1.32 2.64 2 4 C2.66 4.66 3.32 5.32 4 6 C4 6.99 4 7.98 4 9 C3.01 9 2.02 9 1 9 C0.67 6.03 0.34 3.06 0 0 Z " fill="#F0ECFC" transform="translate(87,66)"/>
<path d="M0 0 C2.97 0.495 2.97 0.495 6 1 C4.25 4.875 4.25 4.875 2 6 C1.34 4.02 0.68 2.04 0 0 Z " fill="#DFD4F7" transform="translate(102,55)"/>
<path d="M0 0 C0.33 1.32 0.66 2.64 1 4 C-2 6 -2 6 -6 7 C-4.02 4.69 -2.04 2.38 0 0 Z " fill="#D2CDF3" transform="translate(76,44)"/>
<path d="M0 0 C2.0625 0.4375 2.0625 0.4375 4 1 C1.03 3.475 1.03 3.475 -2 6 C-1.125 1.125 -1.125 1.125 0 0 Z " fill="#EDE9FB" transform="translate(69,43)"/>
<path d="M0 0 C0 1.32 0 2.64 0 4 C-0.99 4.33 -1.98 4.66 -3 5 C-3.66 4.67 -4.32 4.34 -5 4 C-4.67 3.01 -4.34 2.02 -4 1 C-2 0 -2 0 0 0 Z " fill="#8E85CE" transform="translate(113,152)"/>
<path d="M0 0 C0.12375 0.61875 0.2475 1.2375 0.375 1.875 C0.87197356 4.19120832 0.87197356 4.19120832 3 6 C0.03 5.505 0.03 5.505 -3 5 C-1.125 1.125 -1.125 1.125 0 0 Z " fill="#BCCEF2" transform="translate(92,150)"/>
<path d="M0 0 C0.99 0.33 1.98 0.66 3 1 C2.67 1.99 2.34 2.98 2 4 C1.01 4 0.02 4 -1 4 C-1 4.66 -1 5.32 -1 6 C-1.66 6 -2.32 6 -3 6 C-1.125 1.125 -1.125 1.125 0 0 Z " fill="#6B73C1" transform="translate(98,140)"/>
<path d="M0 0 C0.66 0.33 1.32 0.66 2 1 C1.625 3.4375 1.625 3.4375 1 6 C0.01 6.495 0.01 6.495 -1 7 C-1.66 6.67 -2.32 6.34 -3 6 C-2.42655063 3.13275314 -2.1385485 2.1385485 0 0 Z " fill="#AEE1F6" transform="translate(44,100)"/>
<path d="M0 0 C1.65 0 3.3 0 5 0 C5 1.65 5 3.3 5 5 C4.01 4.67 3.02 4.34 2 4 C2 3.34 2 2.68 2 2 C1.34 2 0.68 2 0 2 C0 1.34 0 0.68 0 0 Z " fill="#746BBD" transform="translate(92,94)"/>
<path d="M0 0 C2.3431213 0.25561323 4.67843403 0.59270772 7 1 C7.33 1.66 7.66 2.32 8 3 C5.69 3 3.38 3 1 3 C0.67 2.01 0.34 1.02 0 0 Z " fill="#7A76C2" transform="translate(82,91)"/>
<path d="M0 0 C1.32 0.33 2.64 0.66 4 1 C4.33 2.98 4.66 4.96 5 7 C2.5 5.1875 2.5 5.1875 0 3 C0 2.01 0 1.02 0 0 Z " fill="#BECBF1" transform="translate(60,60)"/>
<path d="M0 0 C0.66 0.33 1.32 0.66 2 1 C1.3125 2.9375 1.3125 2.9375 0 5 C-2.625 5.75 -2.625 5.75 -5 6 C-3.35 4.02 -1.7 2.04 0 0 Z " fill="#8885CE" transform="translate(74,42)"/>
</svg>
