<?xml version="1.0" standalone="no"?>
<!DOCTYPE svg PUBLIC "-//W3C//DTD SVG 20010904//EN"
 "http://www.w3.org/TR/2001/REC-SVG-20010904/DTD/svg10.dtd">
<svg version="1.0" xmlns="http://www.w3.org/2000/svg"
 width="192.000000pt" height="192.000000pt" viewBox="0 0 192.000000 192.000000"
 preserveAspectRatio="xMidYMid meet">

<g transform="translate(0.000000,192.000000) scale(0.100000,-0.100000)"
fill="#005A78" stroke="none">
<path d="M864 1878 c-307 -24 -595 -226 -734 -512 -111 -229 -127 -450 -49
-691 47 -148 108 -244 229 -365 122 -121 213 -178 375 -231 97 -32 104 -33
270 -33 157 0 177 2 260 28 308 94 536 326 631 641 25 81 28 105 28 245 0 139
-3 164 -27 245 -74 248 -233 448 -448 564 -172 93 -332 126 -535 109z m238
-304 c18 -9 104 -57 192 -107 176 -101 196 -121 196 -198 0 -55 -22 -88 -88
-129 l-45 -28 40 -21 c63 -32 93 -74 93 -129 0 -60 -27 -105 -80 -132 -22 -11
-40 -24 -40 -29 0 -5 20 -21 45 -35 53 -32 75 -69 75 -130 0 -64 -28 -92 -188
-184 -245 -142 -276 -152 -375 -127 -74 19 -468 244 -496 283 -35 50 -41 100
-41 352 0 260 6 301 46 349 31 38 408 257 484 282 37 12 144 2 182 -17z"/>
<path d="M722 1379 c-203 -116 -277 -171 -199 -148 50 14 80 3 252 -95 219
-124 211 -124 443 9 169 97 196 121 172 150 -6 7 -87 56 -179 109 -232 132
-210 134 -489 -25z"/>
<path d="M533 1130 c-34 -14 -43 -42 -43 -140 0 -90 0 -91 21 -79 36 19 100 5
179 -41 254 -146 247 -143 308 -138 50 4 77 16 219 97 89 51 167 99 173 107
20 23 2 49 -62 86 l-63 37 -65 -36 c-111 -63 -123 -67 -192 -71 -87 -5 -117 5
-278 98 -149 86 -165 93 -197 80z"/>
<path d="M512 797 c-31 -33 -31 -106 1 -134 24 -22 243 -150 364 -214 113 -60
129 -57 345 67 208 119 211 124 109 188 l-64 40 -41 -23 c-121 -69 -155 -83
-212 -88 -82 -6 -130 11 -292 106 -76 45 -150 81 -164 81 -13 0 -34 -10 -46
-23z"/>
</g>
</svg>
