<?xml version="1.0" encoding="UTF-8"?>
<svg version="1.1" xmlns="http://www.w3.org/2000/svg" width="192" height="192">
<path d="M0 0 C20.74214802 16.36295874 35.24768955 37.80942542 39.08984375 64.4375 C41.23429433 94.7507401 35.20654084 119.85377198 15.19946289 143.1015625 C-0.24141956 160.40289245 -22.66162943 173.00505778 -46.06445312 174.66064453 C-76.91659688 175.69954325 -101.60641605 169.19525544 -124.59375 147.79467773 C-141.14677537 131.75067991 -152.46398239 109.15993104 -153.24609375 85.93359375 C-153.63659358 55.62397823 -146.33434962 31.45758762 -124.84375 9.28515625 C-91.79128842 -23.47863754 -37.48370416 -27.42936077 0 0 Z " fill="#FEFEFD" transform="translate(152.91015625,17.5625)"/>
<path d="M0 0 C0.00410889 0.56396484 0.00821777 1.12792969 0.01245117 1.70898438 C0.04569765 4.30699703 0.1163677 6.90275923 0.1875 9.5 C0.19330078 10.386875 0.19910156 11.27375 0.20507812 12.1875 C0.3983323 18.02807075 1.46943315 21.68513773 4.93481445 26.42382812 C6 28 6 28 6 30 C6.99 30 7.98 30 9 30 C9.24363281 30.60328125 9.48726562 31.2065625 9.73828125 31.828125 C12.0081023 35.73530922 15.94188599 37.29519098 20 39 C23.58643656 39.91720924 23.58643656 39.91720924 27 39 C28.95040015 37.61706541 30.64732482 36.1039622 32.38671875 34.46484375 C36.54889731 30.68562592 41.64462513 30.54461439 47 30 C47.185625 28.7934375 47.185625 28.7934375 47.375 27.5625 C47.684375 26.2940625 47.684375 26.2940625 48 25 C50.47775095 23.76112452 52.23653707 23.83258331 55 23.8125 C55.886875 23.79832031 56.77375 23.78414062 57.6875 23.76953125 C60 24 60 24 62 26 C62 27.32 62 28.64 62 30 C65.63 30.66 69.26 31.32 73 32 C73 32.66 73 33.32 73 34 C73.66 34 74.32 34 75 34 C75 34.66 75 35.32 75 36 C75.969375 36.309375 76.93875 36.61875 77.9375 36.9375 C81 38 81 38 82 39 C83.34747084 39.23075082 84.70377565 39.41153063 86.0625 39.5625 C87.361875 39.706875 88.66125 39.85125 90 40 C90 39.34 90 38.68 90 38 C91.051875 37.608125 92.10375 37.21625 93.1875 36.8125 C99.81249921 33.96749026 105.20719825 27.60768826 108 21 C108.36179503 18.58820096 108.36179503 18.58820096 108.4140625 16.015625 C108.45273438 15.08105469 108.49140625 14.14648438 108.53125 13.18359375 C108.5621875 12.21550781 108.593125 11.24742188 108.625 10.25 C108.66367188 9.26644531 108.70234375 8.28289063 108.7421875 7.26953125 C108.83628426 4.84653963 108.92192328 2.42355204 109 0 C114.34339903 0.67993459 116.58066557 1.70140814 120 6 C120.8125 8.8125 120.8125 8.8125 121 11 C121.66 11 122.32 11 123 11 C126.0676254 16.31721737 126.15449377 21.97966381 126.1875 28 C126.20167969 29.175625 126.21585938 30.35125 126.23046875 31.5625 C125.88755441 36.67715454 124.21002488 40.86061856 121.875 45.375 C121.34519531 46.40753906 121.34519531 46.40753906 120.8046875 47.4609375 C120.53914062 47.96882813 120.27359375 48.47671875 120 49 C119.34 49 118.68 49 118 49 C117.34 50.65 116.68 52.3 116 54 C115.34 54 114.68 54 114 54 C114 54.66 114 55.32 114 56 C112.5547869 56.96931465 111.0675821 57.87653582 109.5625 58.75 C105.95965445 61.02899215 105.95965445 61.02899215 103.875 64.625 C103.91625 65.73875 103.9575 66.8525 104 68 C104.01675781 68.88945313 104.03351563 69.77890625 104.05078125 70.6953125 C104.33141033 76.96536796 105.43007174 81.99395642 108.16015625 87.6484375 C109.18813064 90.52676579 109.13548888 92.96679732 109 96 C107.46279297 96.16435547 107.46279297 96.16435547 105.89453125 96.33203125 C104.53378133 96.49156745 103.17310806 96.6517584 101.8125 96.8125 C101.13896484 96.88275391 100.46542969 96.95300781 99.77148438 97.02539062 C95.54055178 97.54135801 92.22597659 98.12906448 89 101 C88.21464019 104.07848125 88.21464019 104.07848125 88.25 107.5 C88.04975124 113.85074627 88.04975124 113.85074627 87 117 C86.34 117 85.68 117 85 117 C85.33 112.38 85.66 107.76 86 103 C84.02 103 82.04 103 80 103 C77.91796875 101.7578125 77.91796875 101.7578125 76.1875 100.125 C75.60355469 99.59132813 75.01960938 99.05765625 74.41796875 98.5078125 C73 97 73 97 72 95 C66.08369746 92.30168634 60.95420617 91.49645539 54.5 91.3125 C53.67757812 91.27833984 52.85515625 91.24417969 52.0078125 91.20898438 C50.0056545 91.1275012 48.00285432 91.06205425 46 91 C46 91.66 46 92.32 46 93 C44.75108386 93.48198463 43.50081192 93.96045677 42.25 94.4375 C41.55390625 94.70433594 40.8578125 94.97117187 40.140625 95.24609375 C38 96 38 96 35.8125 96.4375 C34.9153125 96.7159375 34.9153125 96.7159375 34 97 C32.70339566 99.49034386 32.70339566 99.49034386 32 102 C28.535 102.495 28.535 102.495 25 103 C25 107.29 25 111.58 25 116 C23.00609999 112.01219998 22.77313037 110.52852428 22.875 106.25 C22.89304688 105.26515625 22.91109375 104.2803125 22.9296875 103.265625 C22.95289063 102.51796875 22.97609375 101.7703125 23 101 C21.824375 100.7834375 21.824375 100.7834375 20.625 100.5625 C18 100 18 100 16 99 C16 98.34 16 97.68 16 97 C11.05 96.67 6.1 96.34 1 96 C1.53571429 86.35714286 1.53571429 86.35714286 4.0625 82.375 C7.52202206 76.35518184 6.2926536 68.69851578 6 62 C4.8553125 61.80470703 4.8553125 61.80470703 3.6875 61.60546875 C-2.36898451 60.24099913 -6.60183933 56.00512219 -10 51 C-16.10641222 40.78806305 -18.67033496 31.92663265 -17 20 C-15.65263094 15.36856135 -13.37855898 11.17730303 -11 7 C-10.67 6.34 -10.34 5.68 -10 5 C-9.34 5 -8.68 5 -8 5 C-8 4.34 -8 3.68 -8 3 C-7.34 3 -6.68 3 -6 3 C-6 2.34 -6 1.68 -6 1 C-4 0 -4 0 0 0 Z " fill="#8F8F90" transform="translate(42,37)"/>
<path d="M0 0 C0.33 0.66 0.66 1.32 1 2 C0.01 3.485 0.01 3.485 -1 5 C-1.43738696 6.71444889 -1.80848688 8.44667784 -2.125 10.1875 C-2.29257812 11.08855469 -2.46015625 11.98960937 -2.6328125 12.91796875 C-2.75398438 13.60503906 -2.87515625 14.29210937 -3 15 C-2.41992188 14.98839844 -1.83984375 14.97679687 -1.2421875 14.96484375 C3.2998246 14.91237826 7.52713569 15.08248937 12 16 C12 16.66 12 17.32 12 18 C14.31 18.66 16.62 19.32 19 20 C19.33 23.63 19.66 27.26 20 31 C20.33 28.03 20.66 25.06 21 22 C24.465 21.505 24.465 21.505 28 21 C28.165 20.2575 28.33 19.515 28.5 18.75 C30.64734021 14.81320962 33.82037139 13.41161042 38 12 C39.32 12 40.64 12 42 12 C42 11.34 42 10.68 42 10 C61.00455581 9.261959 61.00455581 9.261959 69 14 C69 14.66 69 15.32 69 16 C69.639375 16.268125 70.27875 16.53625 70.9375 16.8125 C73 18 73 18 74 21 C76.64 21.33 79.28 21.66 82 22 C82.027193 23.58323688 82.04648306 25.16661062 82.0625 26.75 C82.07410156 27.63171875 82.08570313 28.5134375 82.09765625 29.421875 C82.00826198 31.7818838 81.66912821 33.74498524 81 36 C81.66 36 82.32 36 83 36 C83.00257813 34.89140625 83.00515625 33.7828125 83.0078125 32.640625 C83.04534024 31.17704318 83.08448783 29.71350226 83.125 28.25 C83.12113281 27.15558594 83.12113281 27.15558594 83.1171875 26.0390625 C83.1953125 23.890625 83.1953125 23.890625 84 20 C89.07905461 15.55759569 93.22976705 14.85987818 99.75 14.9375 C100.73484375 14.94652344 101.7196875 14.95554688 102.734375 14.96484375 C103.85585937 14.98224609 103.85585937 14.98224609 105 15 C104.505 10.545 104.505 10.545 104 6 C104.99 6.495 104.99 6.495 106 7 C107.39081535 13.25866905 107.09429082 19.61965445 107 26 C106.34 26 105.68 26 105 26 C104.67 28.64 104.34 31.28 104 34 C103.34 34 102.68 34 102 34 C101.79375 34.70125 101.5875 35.4025 101.375 36.125 C98.75801072 41.59688668 94.32122796 45.19935371 89 48 C88.319375 48.391875 87.63875 48.78375 86.9375 49.1875 C85 50 85 50 81 50 C81 50.66 81 51.32 81 52 C79.16830682 52.48539869 77.33453941 52.96297186 75.5 53.4375 C74.4790625 53.70433594 73.458125 53.97117188 72.40625 54.24609375 C65.80588692 55.70695393 59.36068235 56.19427634 52.625 56.1875 C51.85913574 56.18741943 51.09327148 56.18733887 50.30419922 56.18725586 C40.71169476 56.09447558 30.25331962 55.68879183 21 53 C21 52.34 21 51.68 21 51 C19.948125 50.731875 18.89625 50.46375 17.8125 50.1875 C11.77752066 48.30775234 8.32942946 45.54590094 4 41 C2.6078125 39.700625 2.6078125 39.700625 1.1875 38.375 C-1 36 -1 36 -1 33 C-1.66 33 -2.32 33 -3 33 C-3.36759406 29.31371097 -3.71664399 25.62588695 -4.0625 21.9375 C-4.16626953 20.89916016 -4.27003906 19.86082031 -4.37695312 18.79101562 C-4.87932475 13.33422041 -5.28119122 8.35770873 -4 3 C-1.9375 1.0625 -1.9375 1.0625 0 0 Z " fill="#FDFDFB" transform="translate(46,118)"/>
<path d="M0 0 C0.82112274 -0.00570007 1.64224548 -0.01140015 2.48825073 -0.01727295 C4.21774024 -0.02666332 5.94724716 -0.033233 7.67675781 -0.03710938 C10.27702355 -0.0467722 12.87648296 -0.07783499 15.4765625 -0.109375 C25.48529472 -0.17264276 34.47493591 0.54175766 44.1796875 3.203125 C45.2639502 3.49864258 46.34821289 3.79416016 47.46533203 4.09863281 C49.27247002 4.60270466 51.07620474 5.11926613 52.875 5.65234375 C55.4331638 6.35808341 55.4331638 6.35808341 59.1796875 6.203125 C59.37304688 6.79480469 59.56640625 7.38648437 59.765625 7.99609375 C61.40480472 13.00413718 61.40480472 13.00413718 63.3671875 17.890625 C64.36985143 20.74436081 64.23314206 23.19733419 64.1796875 26.203125 C63.15488281 26.31269531 62.13007813 26.42226562 61.07421875 26.53515625 C59.71346883 26.69469245 58.35279556 26.8548834 56.9921875 27.015625 C55.98188477 27.12100586 55.98188477 27.12100586 54.95117188 27.22851562 C50.72023928 27.74448301 47.40566409 28.33218948 44.1796875 31.203125 C43.39432769 34.28160625 43.39432769 34.28160625 43.4296875 37.703125 C43.22943874 44.05387127 43.22943874 44.05387127 42.1796875 47.203125 C41.5196875 47.203125 40.8596875 47.203125 40.1796875 47.203125 C40.5096875 42.583125 40.8396875 37.963125 41.1796875 33.203125 C39.1996875 33.203125 37.2196875 33.203125 35.1796875 33.203125 C33.09765625 31.9609375 33.09765625 31.9609375 31.3671875 30.328125 C30.78324219 29.79445312 30.19929688 29.26078125 29.59765625 28.7109375 C28.1796875 27.203125 28.1796875 27.203125 27.1796875 25.203125 C21.26338496 22.50481134 16.13389367 21.69958039 9.6796875 21.515625 C8.85726562 21.48146484 8.03484375 21.44730469 7.1875 21.41210938 C5.185342 21.3306262 3.18254182 21.26517925 1.1796875 21.203125 C1.1796875 21.863125 1.1796875 22.523125 1.1796875 23.203125 C-0.06922864 23.68510963 -1.31950058 24.16358177 -2.5703125 24.640625 C-3.26640625 24.90746094 -3.9625 25.17429688 -4.6796875 25.44921875 C-6.8203125 26.203125 -6.8203125 26.203125 -9.0078125 26.640625 C-9.6059375 26.82625 -10.2040625 27.011875 -10.8203125 27.203125 C-12.11691684 29.69346886 -12.11691684 29.69346886 -12.8203125 32.203125 C-16.2853125 32.698125 -16.2853125 32.698125 -19.8203125 33.203125 C-19.8203125 37.493125 -19.8203125 41.783125 -19.8203125 46.203125 C-21.81421251 42.21532498 -22.04718213 40.73164928 -21.9453125 36.453125 C-21.92726563 35.46828125 -21.90921875 34.4834375 -21.890625 33.46875 C-21.86742188 32.72109375 -21.84421875 31.9734375 -21.8203125 31.203125 C-22.6040625 31.05875 -23.3878125 30.914375 -24.1953125 30.765625 C-26.8203125 30.203125 -26.8203125 30.203125 -28.8203125 29.203125 C-28.8203125 28.543125 -28.8203125 27.883125 -28.8203125 27.203125 C-33.7703125 26.873125 -38.7203125 26.543125 -43.8203125 26.203125 C-43.44644985 19.47359729 -42.80625519 13.81093402 -38.8203125 8.203125 C-35.55081814 6.02346209 -32.56334458 5.1652424 -28.8203125 4.203125 C-27.41265625 3.82800781 -27.41265625 3.82800781 -25.9765625 3.4453125 C-17.25973659 1.17805727 -8.98443422 0.04972564 0 0 Z " fill="#F3A42C" transform="translate(86.8203125,106.796875)"/>
<path d="M0 0 C0.00410889 0.56396484 0.00821777 1.12792969 0.01245117 1.70898438 C0.04569765 4.30699703 0.1163677 6.90275923 0.1875 9.5 C0.19330078 10.386875 0.19910156 11.27375 0.20507812 12.1875 C0.3983323 18.02807075 1.46943315 21.68513773 4.93481445 26.42382812 C6 28 6 28 6 30 C6.99 30 7.98 30 9 30 C9.24234375 30.60457031 9.4846875 31.20914063 9.734375 31.83203125 C11.98760765 35.69173533 16.02092078 37.22707693 20 39 C23.35254676 39.85639285 23.35254676 39.85639285 26 40 C25.6718814 48.3014005 24.18222296 52.74545379 18.25 58.8125 C14.22470757 61.52183145 11.7646273 61.59621803 7 62 C6.67 62.66 6.34 63.32 6 64 C6 63.34 6 62.68 6 62 C5.29875 61.9175 4.5975 61.835 3.875 61.75 C-3.44750023 59.83978255 -7.87899864 54.54701441 -11.609375 48.30859375 C-16.78641584 39.05155168 -18.48294143 30.58859336 -17 20 C-15.65263094 15.36856135 -13.37855898 11.17730303 -11 7 C-10.67 6.34 -10.34 5.68 -10 5 C-9.34 5 -8.68 5 -8 5 C-8 4.34 -8 3.68 -8 3 C-7.34 3 -6.68 3 -6 3 C-6 2.34 -6 1.68 -6 1 C-4 0 -4 0 0 0 Z " fill="#F69524" transform="translate(42,37)"/>
<path d="M0 0 C5.34339903 0.67993459 7.58066557 1.70140814 11 6 C11.8125 8.8125 11.8125 8.8125 12 11 C12.66 11 13.32 11 14 11 C17.0676254 16.31721737 17.15449377 21.97966381 17.1875 28 C17.20167969 29.175625 17.21585938 30.35125 17.23046875 31.5625 C16.88755441 36.67715454 15.21002488 40.86061856 12.875 45.375 C12.52179688 46.06335938 12.16859375 46.75171875 11.8046875 47.4609375 C11.53914063 47.96882813 11.27359375 48.47671875 11 49 C10.34 49 9.68 49 9 49 C8.34 50.65 7.68 52.3 7 54 C6.34 54 5.68 54 5 54 C5 54.66 5 55.32 5 56 C3.13671875 57.40234375 3.13671875 57.40234375 0.6875 58.9375 C-2.20022762 60.75569887 -4.681564 62.48648525 -7 65 C-7 64.34 -7 63.68 -7 63 C-7.86625 62.896875 -8.7325 62.79375 -9.625 62.6875 C-14.19378817 61.75682093 -17.69959651 60.43044383 -20.875 56.9375 C-22 55 -22 55 -22 53 C-22.66 53 -23.32 53 -24 53 C-24.66 48.71 -25.32 44.42 -26 40 C-23.69 40 -21.38 40 -19 40 C-19 39.34 -19 38.68 -19 38 C-17.948125 37.608125 -16.89625 37.21625 -15.8125 36.8125 C-9.18750079 33.96749026 -3.79280175 27.60768826 -1 21 C-0.63820497 18.58820096 -0.63820497 18.58820096 -0.5859375 16.015625 C-0.54726562 15.08105469 -0.50859375 14.14648438 -0.46875 13.18359375 C-0.4378125 12.21550781 -0.406875 11.24742188 -0.375 10.25 C-0.33632812 9.26644531 -0.29765625 8.28289063 -0.2578125 7.26953125 C-0.16371574 4.84653963 -0.07807672 2.42355204 0 0 Z " fill="#F69524" transform="translate(151,37)"/>
<path d="M0 0 C2.32778824 0.00316077 4.65430105 -0.02040191 6.98193359 -0.0456543 C19.4455352 -0.09955719 30.98915416 1.10743499 42.46240234 6.31567383 C42.46240234 6.97567383 42.46240234 7.63567383 42.46240234 8.31567383 C46.5646382 9.33107495 46.5646382 9.33107495 50.46240234 8.31567383 C51.74558127 12.16521059 51.52883872 15.26305518 51.46240234 19.31567383 C48.04267404 20.48184846 46.00604577 20.1255572 42.58740234 19.06567383 C30.03293086 15.41201041 18.69949539 13.82620513 5.67749023 13.92456055 C3.1631796 13.94058919 0.65049157 13.92465236 -1.86376953 13.90551758 C-20.2984822 13.7272766 -20.2984822 13.7272766 -37.53759766 19.31567383 C-38.94293521 19.73112033 -40.3604735 20.10767819 -41.78759766 20.44067383 C-43.02509766 20.72942383 -44.26259766 21.01817383 -45.53759766 21.31567383 C-46.91985782 18.5511535 -46.63285153 16.26953752 -46.60009766 13.19067383 C-46.59107422 12.0949707 -46.58205078 10.99926758 -46.57275391 9.87036133 C-46.56115234 9.02731445 -46.54955078 8.18426758 -46.53759766 7.31567383 C-45.54759766 7.81067383 -45.54759766 7.81067383 -44.53759766 8.31567383 C-44.53759766 8.97567383 -44.53759766 9.63567383 -44.53759766 10.31567383 C-42.88759766 9.98567383 -41.23759766 9.65567383 -39.53759766 9.31567383 C-39.53759766 8.65567383 -39.53759766 7.99567383 -39.53759766 7.31567383 C-33.03759766 4.31567383 -33.03759766 4.31567383 -28.53759766 4.31567383 C-28.53759766 3.65567383 -28.53759766 2.99567383 -28.53759766 2.31567383 C-18.96343044 0.47237758 -9.72167038 -0.02749687 0 0 Z " fill="#939394" transform="translate(94.53759765625,93.684326171875)"/>
<path d="M0 0 C1.18529297 0.02707031 1.18529297 0.02707031 2.39453125 0.0546875 C2.98621094 0.07789062 3.57789063 0.10109375 4.1875 0.125 C4.32722886 8.92791803 3.71002223 16.65506762 1.1875 25.125 C-0.45798828 25.32416016 -0.45798828 25.32416016 -2.13671875 25.52734375 C-3.59115801 25.70562985 -5.04558442 25.8840208 -6.5 26.0625 C-7.22123047 26.14951172 -7.94246094 26.23652344 -8.68554688 26.32617188 C-12.43260584 26.78813805 -16.12042911 27.31667679 -19.8125 28.125 C-19.8125 28.785 -19.8125 29.445 -19.8125 30.125 C-21.08089526 30.63115298 -22.35233102 31.12969099 -23.625 31.625 C-24.68654297 32.04265625 -24.68654297 32.04265625 -25.76953125 32.46875 C-27.8125 33.125 -27.8125 33.125 -30.8125 33.125 C-30.8125 33.785 -30.8125 34.445 -30.8125 35.125 C-33.2875 35.62 -33.2875 35.62 -35.8125 36.125 C-36.1425 34.475 -36.4725 32.825 -36.8125 31.125 C-36.14863281 30.96644531 -35.48476563 30.80789062 -34.80078125 30.64453125 C-28.39282579 28.95133426 -24.21116877 27.1784995 -20.69140625 21.23046875 C-19.72214844 18.90855782 -19.70960524 17.37049869 -19.75 14.875 C-19.36383934 10.4669396 -17.80947914 8.63393231 -14.5625 5.6875 C-9.9796629 1.88128463 -6.02282876 -0.17978593 0 0 Z " fill="#605E5E" transform="translate(85.8125,67.875)"/>
<path d="M0 0 C1.32 0.33 2.64 0.66 4 1 C3.01 1.33 2.02 1.66 1 2 C0.67 1.34 0.34 0.68 0 0 Z M0 1 C0.33 2.32 0.66 3.64 1 5 C1.33 4.34 1.66 3.68 2 3 C3.32 3 4.64 3 6 3 C5.67 5.97 5.34 8.94 5 12 C6.32 12 7.64 12 9 12 C9 10.35 9 8.7 9 7 C9.66 7.33 10.32 7.66 11 8 C11.48468708 14.42210386 11.48468708 14.42210386 9.375 16.9375 C6.43969547 18.25066255 4.18136394 18.21691118 1 18 C0.731875 18.53625 0.46375 19.0725 0.1875 19.625 C-1 22 -1 22 -2.5625 24.4375 C-4.72851487 29.80544989 -4.75300367 35.25946458 -5 41 C-6.7081875 38.02923913 -7.25188983 35.91851451 -7.1875 32.5 C-7.18105469 31.7471875 -7.17460938 30.994375 -7.16796875 30.21875 C-7.00303563 28.04009857 -6.59600906 26.09795189 -6 24 C-8.31 23.67 -10.62 23.34 -13 23 C-13 22.34 -13 21.68 -13 21 C-14.65 21 -16.3 21 -18 21 C-18.33 20.01 -18.66 19.02 -19 18 C-20.98 18 -22.96 18 -25 18 C-26.19692469 14.40922594 -25.73508446 13.75687727 -24.1875 10.4375 C-23.65189453 9.25994141 -23.65189453 9.25994141 -23.10546875 8.05859375 C-22 6 -22 6 -20 4 C-19.01 4 -18.02 4 -17 4 C-17.33 4.99 -17.66 5.98 -18 7 C-17.34 7.33 -16.68 7.66 -16 8 C-15.34 6.68 -14.68 5.36 -14 4 C-13.01 4 -12.02 4 -11 4 C-11 3.34 -11 2.68 -11 2 C-7.32589215 0.82428549 -3.83070817 0.92633254 0 1 Z " fill="#F2A32D" transform="translate(72,112)"/>
<path d="M0 0 C1.6254308 0.14095064 3.25034051 0.28792087 4.875 0.4375 C5.77992187 0.51871094 6.68484375 0.59992188 7.6171875 0.68359375 C10 1 10 1 12 2 C12 2.66 12 3.32 12 4 C12.928125 4.268125 13.85625 4.53625 14.8125 4.8125 C17.92952667 5.97374523 19.07660529 6.40565365 21 9 C21.51171875 11.91796875 21.51171875 11.91796875 21.6875 15.1875 C21.75324219 16.27417969 21.81898437 17.36085938 21.88671875 18.48046875 C21.92410156 19.31191406 21.96148437 20.14335938 22 21 C22.66 21 23.32 21 24 21 C27 24.46153846 27 24.46153846 27 27 C28.299375 27.433125 28.299375 27.433125 29.625 27.875 C32.75 28.91666667 35.875 29.95833333 39 31 C38.67 32.32 38.34 33.64 38 35 C36.02 34.34 34.04 33.68 32 33 C32 32.34 32 31.68 32 31 C31.0925 30.87625 30.185 30.7525 29.25 30.625 C26 30 26 30 24.10839844 29.02783203 C21.73503933 27.87083321 19.61048866 27.40435768 17.015625 26.9296875 C16.08105469 26.75566406 15.14648438 26.58164063 14.18359375 26.40234375 C12.73146484 26.14130859 12.73146484 26.14130859 11.25 25.875 C10.26644531 25.69324219 9.28289062 25.51148437 8.26953125 25.32421875 C5.84729328 24.87739815 3.42416945 24.43619812 1 24 C0.26395059 18.27175976 -0.1145323 12.71308566 -0.0625 6.9375 C-0.05347656 5.62652344 -0.04445313 4.31554687 -0.03515625 2.96484375 C-0.02355469 1.98644531 -0.01195313 1.00804688 0 0 Z " fill="#5B5A5B" transform="translate(105,69)"/>
<path d="M0 0 C0.82112274 -0.00570007 1.64224548 -0.01140015 2.48825073 -0.01727295 C4.21774024 -0.02666332 5.94724716 -0.033233 7.67675781 -0.03710938 C10.27702355 -0.0467722 12.87648296 -0.07783499 15.4765625 -0.109375 C25.49350875 -0.17318368 34.46590501 0.54829541 44.1796875 3.203125 C44.96843262 3.40824707 45.75717773 3.61336914 46.56982422 3.82470703 C48.40640166 4.31671808 50.23149928 4.85111012 52.0546875 5.390625 C53.81425781 5.90689453 53.81425781 5.90689453 55.609375 6.43359375 C56.88167969 6.81451172 56.88167969 6.81451172 58.1796875 7.203125 C58.1796875 8.193125 58.1796875 9.183125 58.1796875 10.203125 C52.94088672 9.65167229 48.20618053 8.77390407 43.1796875 7.203125 C43.1796875 6.543125 43.1796875 5.883125 43.1796875 5.203125 C35.69070365 5.15211934 28.20176516 5.11726377 20.71264648 5.09326172 C18.16868414 5.08324803 15.62473318 5.06963315 13.08081055 5.05224609 C9.40931374 5.02779342 5.73797007 5.01659521 2.06640625 5.0078125 C0.94199631 4.99748993 -0.18241364 4.98716736 -1.34089661 4.97653198 C-7.57856889 4.97565974 -13.37178722 5.46468193 -19.47648621 6.77249146 C-21.8203125 7.203125 -21.8203125 7.203125 -25.8203125 7.203125 C-25.8203125 7.863125 -25.8203125 8.523125 -25.8203125 9.203125 C-26.4596875 9.491875 -27.0990625 9.780625 -27.7578125 10.078125 C-29.97237329 11.03135951 -29.97237329 11.03135951 -30.8203125 13.203125 C-31.8103125 12.873125 -32.8003125 12.543125 -33.8203125 12.203125 C-33.1603125 11.213125 -32.5003125 10.223125 -31.8203125 9.203125 C-34.42956037 10.21174182 -35.61780097 10.86810592 -37.0859375 13.296875 C-37.57320312 14.48796875 -37.57320312 14.48796875 -38.0703125 15.703125 C-38.40546875 16.4971875 -38.740625 17.29125 -39.0859375 18.109375 C-39.9306384 20.14787035 -39.9306384 20.14787035 -39.8203125 22.203125 C-38.8509375 22.326875 -37.8815625 22.450625 -36.8828125 22.578125 C-35.366875 22.8875 -35.366875 22.8875 -33.8203125 23.203125 C-33.4903125 23.863125 -33.1603125 24.523125 -32.8203125 25.203125 C-30.80883288 26.07685681 -30.80883288 26.07685681 -28.4453125 26.765625 C-27.65382813 27.01441406 -26.86234375 27.26320312 -26.046875 27.51953125 C-25.31210937 27.74511719 -24.57734375 27.97070312 -23.8203125 28.203125 C-22.8303125 28.533125 -21.8403125 28.863125 -20.8203125 29.203125 C-21.1503125 30.523125 -21.4803125 31.843125 -21.8203125 33.203125 C-21.8203125 32.543125 -21.8203125 31.883125 -21.8203125 31.203125 C-22.6040625 31.05875 -23.3878125 30.914375 -24.1953125 30.765625 C-26.8203125 30.203125 -26.8203125 30.203125 -28.8203125 29.203125 C-28.8203125 28.543125 -28.8203125 27.883125 -28.8203125 27.203125 C-33.7703125 26.873125 -38.7203125 26.543125 -43.8203125 26.203125 C-43.44644985 19.47359729 -42.80625519 13.81093402 -38.8203125 8.203125 C-35.55081814 6.02346209 -32.56334458 5.1652424 -28.8203125 4.203125 C-27.41265625 3.82800781 -27.41265625 3.82800781 -25.9765625 3.4453125 C-17.25973659 1.17805727 -8.98443422 0.04972564 0 0 Z " fill="#DEA85A" transform="translate(86.8203125,106.796875)"/>
<path d="M0 0 C0.33 0.66 0.66 1.32 1 2 C0.01 3.485 0.01 3.485 -1 5 C-1.43738696 6.71444889 -1.80848688 8.44667784 -2.125 10.1875 C-2.29257812 11.08855469 -2.46015625 11.98960937 -2.6328125 12.91796875 C-2.75398438 13.60503906 -2.87515625 14.29210937 -3 15 C-2.41992188 14.98839844 -1.83984375 14.97679687 -1.2421875 14.96484375 C3.2998246 14.91237826 7.52713569 15.08248937 12 16 C12 16.66 12 17.32 12 18 C14.31 18.66 16.62 19.32 19 20 C19.33 24.95 19.66 29.9 20 35 C17.08685033 32.08685033 17.66653082 29.29878193 17.5390625 25.3125 C17.24101883 22.82059068 17.24101883 22.82059068 14.9609375 21.6875 C14.31382813 21.460625 13.66671875 21.23375 13 21 C13 20.34 13 19.68 13 19 C5.575 18.01 5.575 18.01 -2 17 C-0.68989781 28.57256938 0.82621297 34.79742853 9.76171875 42.38671875 C13.24371068 44.89642672 16.99339777 46.50679871 21 48 C21 48.66 21 49.32 21 50 C21.57105469 50.04898438 22.14210938 50.09796875 22.73046875 50.1484375 C27.61710008 50.59903308 32.41376722 51.22580206 37.25 52.0625 C48.72200031 53.85331695 59.6351573 53.15694004 71 51 C72.32257813 50.76603516 72.32257813 50.76603516 73.671875 50.52734375 C77.9072994 49.703789 80.66748888 48.8564381 84 46 C84.804375 45.71125 85.60875 45.4225 86.4375 45.125 C89.23671042 44.08109676 89.23671042 44.08109676 91.625 41.375 C92.800625 40.199375 92.800625 40.199375 94 39 C94.99 39 95.98 39 97 39 C97 38.34 97 37.68 97 37 C97.66 36.67 98.32 36.34 99 36 C99.93393441 34.344389 100.80102783 32.65049478 101.625 30.9375 C102.29402344 29.55884766 102.29402344 29.55884766 102.9765625 28.15234375 C103.31429687 27.44207031 103.65203125 26.73179687 104 26 C104.33 26 104.66 26 105 26 C104.67 28.64 104.34 31.28 104 34 C103.34 34 102.68 34 102 34 C101.79375 34.70125 101.5875 35.4025 101.375 36.125 C98.75801072 41.59688668 94.32122796 45.19935371 89 48 C88.319375 48.391875 87.63875 48.78375 86.9375 49.1875 C85 50 85 50 81 50 C81 50.66 81 51.32 81 52 C79.16830682 52.48539869 77.33453941 52.96297186 75.5 53.4375 C74.4790625 53.70433594 73.458125 53.97117188 72.40625 54.24609375 C65.80588692 55.70695393 59.36068235 56.19427634 52.625 56.1875 C51.85913574 56.18741943 51.09327148 56.18733887 50.30419922 56.18725586 C40.71169476 56.09447558 30.25331962 55.68879183 21 53 C21 52.34 21 51.68 21 51 C19.948125 50.731875 18.89625 50.46375 17.8125 50.1875 C11.77752066 48.30775234 8.32942946 45.54590094 4 41 C2.6078125 39.700625 2.6078125 39.700625 1.1875 38.375 C-1 36 -1 36 -1 33 C-1.66 33 -2.32 33 -3 33 C-3.36759406 29.31371097 -3.71664399 25.62588695 -4.0625 21.9375 C-4.16626953 20.89916016 -4.27003906 19.86082031 -4.37695312 18.79101562 C-4.87932475 13.33422041 -5.28119122 8.35770873 -4 3 C-1.9375 1.0625 -1.9375 1.0625 0 0 Z " fill="#E2E2DE" transform="translate(46,118)"/>
<path d="M0 0 C13.2 0 26.4 0 40 0 C39.01 0.99 38.02 1.98 37 3 C36.67 3.99 36.34 4.98 36 6 C34.35 6 32.7 6 31 6 C31.495 7.485 31.495 7.485 32 9 C31.72428861 11.00875442 31.39764263 13.01178687 31 15 C30.40832031 14.98839844 29.81664063 14.97679688 29.20703125 14.96484375 C24.95533728 14.9162926 21.16842374 15.12243711 17 16 C14.66698014 16.03824623 12.33288492 16.04574284 10 16 C10 14.02 10 12.04 10 10 C9.34 10 8.68 10 8 10 C7.608125 9.21625 7.21625 8.4325 6.8125 7.625 C4.37548682 4.09553263 2.09373178 3.84964244 -2 3 C-1.34 2.67 -0.68 2.34 0 2 C0 1.34 0 0.68 0 0 Z " fill="#F4A32A" transform="translate(76,111)"/>
<path d="M0 0 C-1.32 0.33 -2.64 0.66 -4 1 C-2.36587557 2.70840281 -1.13093906 3.93453047 1 5 C1.33 5.99 1.66 6.98 2 8 C3.0209375 8.7425 3.0209375 8.7425 4.0625 9.5 C4.701875 9.995 5.34125 10.49 6 11 C6 11.99 6 12.98 6 14 C6.66 14 7.32 14 8 14 C8.33 15.65 8.66 17.3 9 19 C7.35 18.34 5.7 17.68 4 17 C4.33 21.95 4.66 26.9 5 32 C4.67 30.68 4.34 29.36 4 28 C3.154375 28.12375 2.30875 28.2475 1.4375 28.375 C-3.44870162 27.84195982 -5.81705069 25.62994946 -9 22 C-12.41703184 17.03979249 -13.49743202 12.9691843 -13 7 C-12.34 7 -11.68 7 -11 7 C-10.7525 6.21625 -10.505 5.4325 -10.25 4.625 C-9 2 -9 2 -7.1875 0.6875 C-4.68810383 -0.09802451 -2.60506718 -0.14472595 0 0 Z " fill="#CB913D" transform="translate(124,112)"/>
<path d="M0 0 C5.34339903 0.67993459 7.58066557 1.70140814 11 6 C11.8125 8.8125 11.8125 8.8125 12 11 C12.66 11 13.32 11 14 11 C17.0676254 16.31721737 17.15449377 21.97966381 17.1875 28 C17.20167969 29.175625 17.21585938 30.35125 17.23046875 31.5625 C16.88755441 36.67715454 15.21002488 40.86061856 12.875 45.375 C12.52179688 46.06335938 12.16859375 46.75171875 11.8046875 47.4609375 C11.53914063 47.96882813 11.27359375 48.47671875 11 49 C10.34 49 9.68 49 9 49 C8.67 49.99 8.34 50.98 8 52 C7.67 51.01 7.34 50.02 7 49 C7.99 48.67 8.98 48.34 10 48 C10.73759428 46.13103708 10.73759428 46.13103708 11.0625 43.875 C11.61260601 40.94880587 12.22367818 38.29168576 13.125 35.4375 C14.88558697 28.52090831 14.15335454 23.51224682 11.65625 16.98046875 C11 15 11 15 11 12 C10.34 12 9.68 12 9 12 C5 6.70588235 5 6.70588235 5 3 C4.01 3 3.02 3 2 3 C2.05800781 4.18335938 2.11601562 5.36671875 2.17578125 6.5859375 C2.77462444 24.11925032 2.77462444 24.11925032 -3 31 C-3.99 31.33 -4.98 31.66 -6 32 C-6.33 32.99 -6.66 33.98 -7 35 C-8.97581839 36.44572077 -10.91607679 37.72920674 -13 39 C-14.45846815 39.91645216 -15.91680005 40.83312117 -17.375 41.75 C-18.58277387 42.50090061 -19.79090866 43.25122262 -21 44 C-20.814375 44.78375 -20.62875 45.5675 -20.4375 46.375 C-20 49 -20 49 -21 51 C-20.34 51.94875 -19.68 52.8975 -19 53.875 C-17 57 -17 57 -17 59 C-17.66 59 -18.32 59 -19 59 C-22 55.53846154 -22 55.53846154 -22 53 C-22.66 53 -23.32 53 -24 53 C-24.66 48.71 -25.32 44.42 -26 40 C-23.69 40 -21.38 40 -19 40 C-19 39.34 -19 38.68 -19 38 C-17.948125 37.608125 -16.89625 37.21625 -15.8125 36.8125 C-9.18750079 33.96749026 -3.79280175 27.60768826 -1 21 C-0.63820497 18.58820096 -0.63820497 18.58820096 -0.5859375 16.015625 C-0.54726562 15.08105469 -0.50859375 14.14648438 -0.46875 13.18359375 C-0.4378125 12.21550781 -0.406875 11.24742188 -0.375 10.25 C-0.33632812 9.26644531 -0.29765625 8.28289063 -0.2578125 7.26953125 C-0.16371574 4.84653963 -0.07807672 2.42355204 0 0 Z " fill="#DCA760" transform="translate(151,37)"/>
<path d="M0 0 C1.69752187 0.25245197 3.38471545 0.57645775 5.0625 0.9375 C5.98160156 1.13214844 6.90070313 1.32679687 7.84765625 1.52734375 C8.91306641 1.76130859 8.91306641 1.76130859 10 2 C10.66 3.98 11.32 5.96 12 8 C12.66 8 13.32 8 14 8 C14 9.98 14 11.96 14 14 C21.92 14 29.84 14 38 14 C38 11.69 38 9.38 38 7 C38.33 7 38.66 7 39 7 C39.19916016 7.93972656 39.19916016 7.93972656 39.40234375 8.8984375 C39.57894531 9.71570313 39.75554687 10.53296875 39.9375 11.375 C40.11152344 12.18710938 40.28554687 12.99921875 40.46484375 13.8359375 C40.92330693 16.029463 40.92330693 16.029463 42 18 C39.23723823 17.47731534 36.6739124 16.89130413 34 16 C32.59335074 15.85507877 31.1818867 15.75371069 29.76953125 15.68359375 C28.56586914 15.62075195 28.56586914 15.62075195 27.33789062 15.55664062 C26.50451172 15.51732422 25.67113281 15.47800781 24.8125 15.4375 C23.96751953 15.39431641 23.12253906 15.35113281 22.25195312 15.30664062 C20.16815567 15.20068482 18.08409897 15.0998498 16 15 C16 15.66 16 16.32 16 17 C14.75108386 17.48198463 13.50081192 17.96045677 12.25 18.4375 C11.55390625 18.70433594 10.8578125 18.97117188 10.140625 19.24609375 C8 20 8 20 5.7890625 20.44140625 C5.19867188 20.62574219 4.60828125 20.81007812 4 21 C3.566875 22.2375 3.566875 22.2375 3.125 23.5 C2.75375 24.325 2.3825 25.15 2 26 C-1.125 26.8125 -1.125 26.8125 -4 27 C-1.82426778 19.63598326 -1.82426778 19.63598326 1 17 C3.64590163 16.10914199 6.25780821 15.5749757 9 15 C10.41577477 13.81575674 10.41577477 13.81575674 10.0625 10.4375 C10.041875 9.303125 10.02125 8.16875 10 7 C9.67 8.32 9.34 9.64 9 11 C7.68 11 6.36 11 5 11 C5.33 8.03 5.66 5.06 6 2 C4.68 2 3.36 2 2 2 C1.67 2.99 1.34 3.98 1 5 C0.34 3.68 -0.32 2.36 -1 1 C-0.67 0.67 -0.34 0.34 0 0 Z " fill="#E4AB57" transform="translate(72,113)"/>
<path d="M0 0 C0.33 0 0.66 0 1 0 C0.67 2.64 0.34 5.28 0 8 C-0.66 8 -1.32 8 -2 8 C-2.20625 8.70125 -2.4125 9.4025 -2.625 10.125 C-5.24198928 15.59688668 -9.67877204 19.19935371 -15 22 C-15.680625 22.391875 -16.36125 22.78375 -17.0625 23.1875 C-19 24 -19 24 -23 24 C-23 24.66 -23 25.32 -23 26 C-24.83169318 26.48539869 -26.66546059 26.96297186 -28.5 27.4375 C-29.5209375 27.70433594 -30.541875 27.97117188 -31.59375 28.24609375 C-38.32323169 29.73553179 -44.88300509 30.19345189 -51.75 30.1875 C-52.52843262 30.18814453 -53.30686523 30.18878906 -54.10888672 30.18945312 C-60.54160003 30.13108245 -66.7101304 29.3813047 -73 28 C-73 27.34 -73 26.68 -73 26 C-72.22398438 26.0721875 -71.44796875 26.144375 -70.6484375 26.21875 C-57.81219556 27.3216252 -45.68889704 27.40823308 -33 25 C-32.11828125 24.84402344 -31.2365625 24.68804687 -30.328125 24.52734375 C-26.0927006 23.703789 -23.33251112 22.8564381 -20 20 C-19.195625 19.71125 -18.39125 19.4225 -17.5625 19.125 C-14.76328958 18.08109676 -14.76328958 18.08109676 -12.375 15.375 C-11.59125 14.59125 -10.8075 13.8075 -10 13 C-9.01 13 -8.02 13 -7 13 C-7 12.34 -7 11.68 -7 11 C-6.34 10.67 -5.68 10.34 -5 10 C-4.06606559 8.344389 -3.19897217 6.65049478 -2.375 4.9375 C-1.70597656 3.55884766 -1.70597656 3.55884766 -1.0234375 2.15234375 C-0.68570313 1.44207031 -0.34796875 0.73179687 0 0 Z " fill="#E1E1DE" transform="translate(150,144)"/>
<path d="M0 0 C0.82112274 -0.00570007 1.64224548 -0.01140015 2.48825073 -0.01727295 C4.21774024 -0.02666332 5.94724716 -0.033233 7.67675781 -0.03710938 C10.27702355 -0.0467722 12.87648296 -0.07783499 15.4765625 -0.109375 C25.49350875 -0.17318368 34.46590501 0.54829541 44.1796875 3.203125 C44.96843262 3.40824707 45.75717773 3.61336914 46.56982422 3.82470703 C48.40640166 4.31671808 50.23149928 4.85111012 52.0546875 5.390625 C53.81425781 5.90689453 53.81425781 5.90689453 55.609375 6.43359375 C56.88167969 6.81451172 56.88167969 6.81451172 58.1796875 7.203125 C58.1796875 8.193125 58.1796875 9.183125 58.1796875 10.203125 C52.94088672 9.65167229 48.20618053 8.77390407 43.1796875 7.203125 C43.1796875 6.543125 43.1796875 5.883125 43.1796875 5.203125 C39.5496875 4.873125 35.9196875 4.543125 32.1796875 4.203125 C32.1796875 3.543125 32.1796875 2.883125 32.1796875 2.203125 C27.21753292 2.17822036 22.25541555 2.16016894 17.29321289 2.14819336 C15.60863612 2.14319557 13.92406362 2.13639511 12.23950195 2.12768555 C9.80418844 2.11541878 7.36893276 2.10985102 4.93359375 2.10546875 C4.19258926 2.10030746 3.45158478 2.09514618 2.68812561 2.08982849 C-4.82209248 2.08904071 -11.71232015 2.69442182 -18.8203125 5.203125 C-20.8145036 5.76580133 -22.81530606 6.30529429 -24.8203125 6.828125 C-25.8103125 7.08851562 -26.8003125 7.34890625 -27.8203125 7.6171875 C-30.89625191 8.21795692 -33.69459875 8.30545491 -36.8203125 8.203125 C-36.4903125 7.543125 -36.1603125 6.883125 -35.8203125 6.203125 C-33.48595209 5.42500486 -31.20446008 4.79712764 -28.8203125 4.203125 C-27.87929688 3.95304687 -26.93828125 3.70296875 -25.96875 3.4453125 C-17.25598952 1.17337749 -8.98120867 0.04970779 0 0 Z " fill="#9F7948" transform="translate(86.8203125,106.796875)"/>
<path d="M0 0 C1.32 0 2.64 0 4 0 C3.67 2.97 3.34 5.94 3 9 C4.32 9 5.64 9 7 9 C7 7.35 7 5.7 7 4 C7.66 4.33 8.32 4.66 9 5 C9.48468708 11.42210386 9.48468708 11.42210386 7.375 13.9375 C4.43969547 15.25066255 2.18136394 15.21691118 -1 15 C-1.4021875 15.804375 -1.4021875 15.804375 -1.8125 16.625 C-3 19 -3 19 -4.5625 21.4375 C-6.72851487 26.80544989 -6.75300367 32.25946458 -7 38 C-9.4682001 33.63394086 -9.55390845 29.92095479 -9 25 C-8.19696399 22.19169489 -7.17268342 19.6873995 -6 17 C-5.34 17 -4.68 17 -4 17 C-3.67 15.35 -3.34 13.7 -3 12 C-4.98 12.33 -6.96 12.66 -9 13 C-9 12.34 -9 11.68 -9 11 C-5.535 10.505 -5.535 10.505 -2 10 C-2.04125 8.906875 -2.0825 7.81375 -2.125 6.6875 C-2 3 -2 3 0 0 Z " fill="#3B291B" transform="translate(74,115)"/>
<path d="M0 0 C1.32 0.66 2.64 1.32 4 2 C3.01 2 2.02 2 1 2 C1.05800781 3.18335938 1.11601562 4.36671875 1.17578125 5.5859375 C1.77462444 23.11925032 1.77462444 23.11925032 -4 30 C-4.99 30.33 -5.98 30.66 -7 31 C-7.33 31.99 -7.66 32.98 -8 34 C-9.97581839 35.44572077 -11.91607679 36.72920674 -14 38 C-15.45846815 38.91645216 -16.91680005 39.83312117 -18.375 40.75 C-19.58277387 41.50090061 -20.79090866 42.25122262 -22 43 C-21.814375 43.78375 -21.62875 44.5675 -21.4375 45.375 C-21 48 -21 48 -22 50 C-21.34 50.94875 -20.68 51.8975 -20 52.875 C-18 56 -18 56 -18 58 C-18.66 58 -19.32 58 -20 58 C-23 54.53846154 -23 54.53846154 -23 52 C-23.66 52 -24.32 52 -25 52 C-25.66 47.71 -26.32 43.42 -27 39 C-24.69 39 -22.38 39 -20 39 C-20 38.34 -20 37.68 -20 37 C-18.948125 36.608125 -17.89625 36.21625 -16.8125 35.8125 C-11.14812172 33.38001497 -7.63505807 28.8467441 -4 24 C-3.48050781 23.32582031 -2.96101563 22.65164062 -2.42578125 21.95703125 C-0.39435323 17.7439052 -0.43315972 13.81049099 -0.3125 9.1875 C-0.27833984 8.30384766 -0.24417969 7.42019531 -0.20898438 6.50976562 C-0.12689567 4.34027833 -0.06176121 2.1701611 0 0 Z " fill="#D89C4E" transform="translate(152,38)"/>
<path d="M0 0 C0.66 0 1.32 0 2 0 C2.33 0.99 2.66 1.98 3 3 C1.68 3.33 0.36 3.66 -1 4 C-1.185625 5.8253125 -1.185625 5.8253125 -1.375 7.6875 C-1.62730893 10.16853782 -2.0185754 12.0440983 -2.9921875 14.35546875 C-4.1871525 17.49109397 -4.48882089 20.28344379 -4.75 23.625 C-4.89695312 25.31496094 -4.89695312 25.31496094 -5.046875 27.0390625 C-5.26426093 30.19019032 -5.26426093 30.19019032 -3 33 C-2.33333333 35 -1.66666667 37 -1 39 C-0.34 39.99 0.32 40.98 1 42 C1 42.99 1 43.98 1 45 C2.65 45.66 4.3 46.32 6 47 C6 47.66 6 48.32 6 49 C6.5775 49.28875 7.155 49.5775 7.75 49.875 C9.83333333 50.91666667 11.91666667 51.95833333 14 53 C14 53.66 14 54.32 14 55 C17.465 55.495 17.465 55.495 21 56 C20.0409375 56.185625 20.0409375 56.185625 19.0625 56.375 C18.381875 56.58125 17.70125 56.7875 17 57 C16.67 57.66 16.34 58.32 16 59 C16 58.34 16 57.68 16 57 C15.29875 56.9175 14.5975 56.835 13.875 56.75 C6.55249977 54.83978255 2.12100136 49.54701441 -1.609375 43.30859375 C-6.78641584 34.05155168 -8.48294143 25.58859336 -7 15 C-5.65263094 10.36856135 -3.37855898 6.17730303 -1 2 C-0.67 1.34 -0.34 0.68 0 0 Z " fill="#D69F55" transform="translate(32,42)"/>
<path d="M0 0 C2.4375 0.625 2.4375 0.625 5 2 C5.8125 5.125 5.8125 5.125 6 8 C7.98 8.66 9.96 9.32 12 10 C12 10.33 12 10.66 12 11 C10.02 11 8.04 11 6 11 C6.34933594 11.47050781 6.69867188 11.94101563 7.05859375 12.42578125 C7.51363281 13.04839844 7.96867187 13.67101562 8.4375 14.3125 C8.88996094 14.92738281 9.34242187 15.54226562 9.80859375 16.17578125 C12.32771055 20.03292075 12.0843795 23.52788624 12 28 C10.85343936 25.78877592 9.88490779 23.670069 9.0625 21.3125 C8.711875 20.549375 8.36125 19.78625 8 19 C7.01 18.67 6.02 18.34 5 18 C4.3125 15.9375 4.3125 15.9375 4 14 C2.6078125 14.1546875 2.6078125 14.1546875 1.1875 14.3125 C-2 14 -2 14 -3.875 11.8125 C-5.022074 8.94481501 -5.26156512 7.05159307 -5 4 C-4.34 5.32 -3.68 6.64 -3 8 C-2.01 8 -1.02 8 0 8 C-0.2784375 6.2984375 -0.2784375 6.2984375 -0.5625 4.5625 C-0.706875 3.386875 -0.85125 2.21125 -1 1 C-0.67 0.67 -0.34 0.34 0 0 Z " fill="#4A3520" transform="translate(117,116)"/>
<path d="M0 0 C1.49095875 2.91475719 2.85571104 5.85691291 4.125 8.875 C4.47820312 9.69742188 4.83140625 10.51984375 5.1953125 11.3671875 C6.10908462 14.35690792 6.13595877 16.89107609 6 20 C4.97519531 20.10957031 3.95039063 20.21914062 2.89453125 20.33203125 C1.53378133 20.49156745 0.17310806 20.6517584 -1.1875 20.8125 C-1.86103516 20.88275391 -2.53457031 20.95300781 -3.22851562 21.02539062 C-7.45944822 21.54135801 -10.77402341 22.12906448 -14 25 C-14.78535981 28.07848125 -14.78535981 28.07848125 -14.75 31.5 C-14.95024876 37.85074627 -14.95024876 37.85074627 -16 41 C-16.66 41 -17.32 41 -18 41 C-17.9278125 39.80761719 -17.855625 38.61523438 -17.78125 37.38671875 C-17.68745339 35.82031529 -17.59370595 34.25390889 -17.5 32.6875 C-17.45230469 31.90181641 -17.40460938 31.11613281 -17.35546875 30.30664062 C-17.31035156 29.54931641 -17.26523438 28.79199219 -17.21875 28.01171875 C-17.17685547 27.31522217 -17.13496094 26.61872559 -17.09179688 25.90112305 C-17.01299029 24.26903034 -17 22.63399421 -17 21 C-15.948125 21.061875 -15.948125 21.061875 -14.875 21.125 C-11.59438891 20.98236474 -9.0947682 20.07369509 -6 19 C-4.9275 18.87625 -3.855 18.7525 -2.75 18.625 C0.14214159 18.29952179 0.14214159 18.29952179 1.375 15.9375 C1.684375 14.9784375 1.684375 14.9784375 2 14 C1.34 14 0.68 14 0 14 C-0.19627391 12.41773035 -0.38165538 10.83410729 -0.5625 9.25 C-0.66691406 8.36828125 -0.77132812 7.4865625 -0.87890625 6.578125 C-0.99456676 4.11567549 -0.73638695 2.33461936 0 0 Z " fill="#E3A955" transform="translate(145,113)"/>
<path d="M0 0 C0.33 0.66 0.66 1.32 1 2 C0.01 3.485 0.01 3.485 -1 5 C-1.43738696 6.71444889 -1.80848688 8.44667784 -2.125 10.1875 C-2.29257812 11.08855469 -2.46015625 11.98960937 -2.6328125 12.91796875 C-2.75398438 13.60503906 -2.87515625 14.29210937 -3 15 C-2.41992188 14.98839844 -1.83984375 14.97679687 -1.2421875 14.96484375 C3.2998246 14.91237826 7.52713569 15.08248937 12 16 C12 16.66 12 17.32 12 18 C14.31 18.66 16.62 19.32 19 20 C19.33 24.95 19.66 29.9 20 35 C17.08685033 32.08685033 17.66653082 29.29878193 17.5390625 25.3125 C17.24101883 22.82059068 17.24101883 22.82059068 14.9609375 21.6875 C14.31382813 21.460625 13.66671875 21.23375 13 21 C13 20.34 13 19.68 13 19 C7.72 18.34 2.44 17.68 -3 17 C-3 19.97 -3 22.94 -3 26 C-3.33 26 -3.66 26 -4 26 C-4.22236782 22.93793495 -4.42834898 19.87623354 -4.625 16.8125 C-4.68945312 15.94818359 -4.75390625 15.08386719 -4.8203125 14.19335938 C-5.33046042 5.87157135 -5.33046042 5.87157135 -3 2 C-2.01 1.34 -1.02 0.68 0 0 Z " fill="#EEE2C8" transform="translate(46,118)"/>
<path d="M0 0 C0.9796875 -0.01417969 1.959375 -0.02835938 2.96875 -0.04296875 C5.5 0.1875 5.5 0.1875 7.5 2.1875 C7.5 3.1775 7.5 4.1675 7.5 5.1875 C5.06186854 7.46308936 3.28115501 8.19823343 -0.05859375 8.15234375 C-2.5552297 7.90090949 -5.02297818 7.58670934 -7.5 7.1875 C-7.5 5.2075 -7.5 3.2275 -7.5 1.1875 C-4.89820337 -0.11339831 -2.9030812 0.01909922 0 0 Z " fill="#42352A" transform="translate(97.5,131.8125)"/>
<path d="M0 0 C0 0.33 0 0.66 0 1 C-1.12148437 0.96519531 -1.12148437 0.96519531 -2.265625 0.9296875 C-3.25046875 0.91164063 -4.2353125 0.89359375 -5.25 0.875 C-6.22453125 0.85179688 -7.1990625 0.82859375 -8.203125 0.8046875 C-11.05342679 1.00373092 -12.62771705 1.44555889 -15 3 C-16.13350534 5.01669827 -16.13350534 5.01669827 -17 7 C-17.99 7.495 -17.99 7.495 -19 8 C-19 10.64 -19 13.28 -19 16 C-24.94 15.67 -30.88 15.34 -37 15 C-37 14.67 -37 14.34 -37 14 C-32.59085217 12.89771304 -28.51617599 12.92345464 -24 13 C-23.31506627 10.14221967 -23.31506627 10.14221967 -23 7 C-23.66 6.01 -24.32 5.02 -25 4 C-22.66666667 4 -20.33333333 4 -18 4 C-17.67 3.34 -17.34 2.68 -17 2 C-17.66 1.67 -18.32 1.34 -19 1 C-13.0896581 -2.05049905 -6.31827453 -1.63052246 0 0 Z " fill="#EBA43B" transform="translate(130,112)"/>
<path d="M0 0 C0.66 0 1.32 0 2 0 C1.67773438 0.99386719 1.35546875 1.98773438 1.0234375 3.01171875 C-1.49591199 11.88295027 -1.22603578 22.44027162 2.71484375 30.81640625 C4.49426342 33.83979711 6.49954175 36.60324177 8.73046875 39.30859375 C10 41 10 41 11 44 C9.12890625 43.75 9.12890625 43.75 7 43 C5.83984375 41.1875 5.83984375 41.1875 4.9375 39 C4.08867362 36.8354427 4.08867362 36.8354427 3 35 C2.01 34.67 1.02 34.34 0 34 C-1.125 30.6875 -1.125 30.6875 -2 27 C-2.17917969 26.41476563 -2.35835937 25.82953125 -2.54296875 25.2265625 C-3.19825494 22.0341426 -3.17113792 18.94355466 -3.1875 15.6875 C-3.20167969 14.41261719 -3.21585938 13.13773438 -3.23046875 11.82421875 C-2.67934783 2.67934783 -2.67934783 2.67934783 0 0 Z " fill="#FBF5DF" transform="translate(26,50)"/>
<path d="M0 0 C1.98 0.99 1.98 0.99 4 2 C4 2.66 4 3.32 4 4 C4.66 4 5.32 4 6 4 C6.33 5.98 6.66 7.96 7 10 C7.99 10.33 8.98 10.66 10 11 C10.98142381 15.24733832 11.30920379 19.47324533 11.5625 23.8125 C11.60568359 24.50537109 11.64886719 25.19824219 11.69335938 25.91210938 C11.79861453 27.60788686 11.89972863 29.30392052 12 31 C11.34 31 10.68 31 10 31 C10.061875 31.886875 10.12375 32.77375 10.1875 33.6875 C9.97935526 37.36472369 9.21793417 39.09962455 7 42 C6.34 42 5.68 42 5 42 C5.2165625 41.44054687 5.433125 40.88109375 5.65625 40.3046875 C9.35626074 29.65002694 8.7935201 18.8248904 6 8 C5.34 8 4.68 8 4 8 C2.66666667 5.33333333 1.33333333 2.66666667 0 0 Z " fill="#FCF9E9" transform="translate(159,40)"/>
<path d="M0 0 C19.00455581 -0.738041 19.00455581 -0.738041 27 4 C27 4.66 27 5.32 27 6 C27.9590625 6.433125 27.9590625 6.433125 28.9375 6.875 C31 8 31 8 32 10 C29.5625 9.625 29.5625 9.625 27 9 C26.505 8.01 26.505 8.01 26 7 C25.01 6.67 24.02 6.34 23 6 C22.505 5.01 22.505 5.01 22 4 C19.67843403 3.59270772 17.3431213 3.25561323 15 3 C15 2.34 15 1.68 15 1 C11.37 1 7.74 1 4 1 C4 1.66 4 2.32 4 3 C-0.97361654 4.75734451 -5.7415998 6.32584613 -11 7 C-11.33 7.99 -11.66 8.98 -12 10 C-12.66 9.67 -13.32 9.34 -14 9 C-11.9961282 5.9941923 -11.21478096 5.33407138 -8.125 3.8125 C-7.44695312 3.46832031 -6.76890625 3.12414062 -6.0703125 2.76953125 C-4 2 -4 2 0 2 C0 1.34 0 0.68 0 0 Z " fill="#F6E1B8" transform="translate(88,128)"/>
<path d="M0 0 C0.66 0.33 1.32 0.66 2 1 C1.34 2.98 0.68 4.96 0 7 C-0.66 7 -1.32 7 -2 7 C-2.268125 7.5775 -2.53625 8.155 -2.8125 8.75 C-4.07597005 11.14394326 -5.11313817 13.04575024 -7 15 C-10.1875 15.75 -10.1875 15.75 -13 16 C-13 16.66 -13 17.32 -13 18 C-14.65 18.33 -16.3 18.66 -18 19 C-18.33 17.35 -18.66 15.7 -19 14 C-18.33613281 13.84144531 -17.67226563 13.68289062 -16.98828125 13.51953125 C-9.97055763 11.66521304 -6.23587781 9.51352227 -2.25 3.25 C-1.8375 2.5075 -1.425 1.765 -1 1 C-0.67 0.67 -0.34 0.34 0 0 Z " fill="#705536" transform="translate(68,85)"/>
<path d="M0 0 C2.74277578 3.19990508 4.6302836 6.00499382 6 10 C6.99 10 7.98 10 9 10 C9.36351562 10.90685547 9.36351562 10.90685547 9.734375 11.83203125 C11.98760765 15.69173533 16.02092078 17.22707693 20 19 C23.35254676 19.85639285 23.35254676 19.85639285 26 20 C25.67 23.3 25.34 26.6 25 30 C24.67 30 24.34 30 24 30 C24 27.36 24 24.72 24 22 C22.783125 21.731875 21.56625 21.46375 20.3125 21.1875 C16.73520203 20.28376156 14.05907175 19.11781891 11 17 C10.42121094 16.60425781 9.84242187 16.20851563 9.24609375 15.80078125 C1.28676814 10.26747138 1.28676814 10.26747138 0.48828125 6.73828125 C0.43027344 5.93777344 0.37226562 5.13726562 0.3125 4.3125 C0.24675781 3.50425781 0.18101563 2.69601563 0.11328125 1.86328125 C0.07589844 1.24839844 0.03851563 0.63351563 0 0 Z " fill="#DFA455" transform="translate(42,57)"/>
<path d="M0 0 C0.33 0 0.66 0 1 0 C1.33 3.96 1.66 7.92 2 12 C2.66 12 3.32 12 4 12 C7 15.46153846 7 15.46153846 7 18 C8.299375 18.433125 8.299375 18.433125 9.625 18.875 C12.75 19.91666667 15.875 20.95833333 19 22 C18.67 23.32 18.34 24.64 18 26 C16.02 25.34 14.04 24.68 12 24 C12 23.34 12 22.68 12 22 C11.071875 21.896875 10.14375 21.79375 9.1875 21.6875 C4.87607336 20.75758445 3.95911269 19.30439326 1.4375 15.875 C-0.44713793 12.10572415 -1.73530722 8.22752175 -2 4 C-1.04296875 1.72265625 -1.04296875 1.72265625 0 0 Z " fill="#725F48" transform="translate(125,78)"/>
<path d="M0 0 C0.66 0 1.32 0 2 0 C1.67 2.31 1.34 4.62 1 7 C-4.83394389 8.10643764 -7.76579213 8.27137992 -13 5 C-13 5.66 -13 6.32 -13 7 C-19.625 8.125 -19.625 8.125 -23 7 C-25 4 -25 4 -25 1 C-24.34 1 -23.68 1 -23 1 C-22.34 1.99 -21.68 2.98 -21 4 C-19.02252878 4.36297936 -19.02252878 4.36297936 -16.875 4.1875 C-15.59625 4.125625 -14.3175 4.06375 -13 4 C-13 3.34 -13 2.68 -13 2 C-12.01 2 -11.02 2 -10 2 C-9.67 2.66 -9.34 3.32 -9 4 C-6.67843403 4.40729228 -4.3431213 4.74438677 -2 5 C-2 4.34 -2 3.68 -2 3 C-1.34 3 -0.68 3 0 3 C0 2.01 0 1.02 0 0 Z " fill="#E7E6E3" transform="translate(109,141)"/>
<path d="M0 0 C0.66 0 1.32 0 2 0 C2 1.32 2 2.64 2 4 C-0.31 4.33 -2.62 4.66 -5 5 C-5 5.66 -5 6.32 -5 7 C-3.02 6.67 -1.04 6.34 1 6 C0.67 7.65 0.34 9.3 0 11 C-0.66 11 -1.32 11 -2 11 C-2.66 12.32 -3.32 13.64 -4 15 C-4 13.35 -4 11.7 -4 10 C-6.31 10.33 -8.62 10.66 -11 11 C-12.125 7.25 -12.125 7.25 -11 5 C-8.35139573 4.40644386 -5.70802678 4.25790731 -3 4 C-3 3.34 -3 2.68 -3 2 C-2.01 2 -1.02 2 0 2 C0 1.34 0 0.68 0 0 Z " fill="#DA9A40" transform="translate(70,121)"/>
<path d="M0 0 C1.56324232 0.11534604 3.12559683 0.24275126 4.6875 0.375 C5.99267578 0.47941406 5.99267578 0.47941406 7.32421875 0.5859375 C10.14964441 1.02315665 12.36498459 1.90743263 15 3 C17.09578246 3.57325041 19.2005737 4.11442441 21.3125 4.625 C22.38113281 4.88539062 23.44976562 5.14578125 24.55078125 5.4140625 C25.76314453 5.70410156 25.76314453 5.70410156 27 6 C27 6.99 27 7.98 27 9 C21.76119922 8.44854729 17.02649303 7.57077907 12 6 C12 5.34 12 4.68 12 4 C8.37 3.67 4.74 3.34 1 3 C0.67 2.01 0.34 1.02 0 0 Z " fill="#AA814A" transform="translate(118,108)"/>
<path d="M0 0 C3.63 0 7.26 0 11 0 C11 0.66 11 1.32 11 2 C13.31 2 15.62 2 18 2 C18.33 3.32 18.66 4.64 19 6 C18.01 6.33 17.02 6.66 16 7 C15.67 6.34 15.34 5.68 15 5 C14.34 5.66 13.68 6.32 13 7 C12.34 6.01 11.68 5.02 11 4 C7.87442041 3.63469768 7.87442041 3.63469768 4.375 3.8125 C3.18648438 3.83957031 1.99796875 3.86664063 0.7734375 3.89453125 C-0.14179687 3.92933594 -1.05703125 3.96414062 -2 4 C-2.33 5.32 -2.66 6.64 -3 8 C-3.33 6.35 -3.66 4.7 -4 3 C-2.68 2.67 -1.36 2.34 0 2 C0 1.34 0 0.68 0 0 Z " fill="#F6F4E6" transform="translate(92,129)"/>
<path d="M0 0 C2.475 0.99 2.475 0.99 5 2 C5 5.63 5 9.26 5 13 C3.02 13 1.04 13 -1 13 C-1.66 11.68 -2.32 10.36 -3 9 C-2.01 9 -1.02 9 0 9 C-0.185625 7.700625 -0.37125 6.40125 -0.5625 5.0625 C-0.87890625 2.84765625 -0.87890625 2.84765625 -1 1 C-0.67 0.67 -0.34 0.34 0 0 Z " fill="#34261B" transform="translate(117,116)"/>
<path d="M0 0 C0.66 0.33 1.32 0.66 2 1 C3.39081535 7.25866905 3.09429082 13.61965445 3 20 C2.34 20 1.68 20 1 20 C1 16.7 1 13.4 1 10 C-5.84109792 10.36978908 -9.36951681 10.94081445 -15 15 C-17.875 15.25 -17.875 15.25 -20 15 C-17.36279034 11.74227042 -13.9967368 10.02957084 -10 9 C-6.3174984 8.76209949 -2.6840921 8.8201257 1 9 C0.67 6.03 0.34 3.06 0 0 Z " fill="#EFE3C9" transform="translate(150,124)"/>
<path d="M0 0 C0.66 0 1.32 0 2 0 C2.33 0.99 2.66 1.98 3 3 C1.68 3.33 0.36 3.66 -1 4 C-1.185625 5.8253125 -1.185625 5.8253125 -1.375 7.6875 C-1.62375851 10.13362531 -1.97207848 11.93892166 -3 14.1875 C-4.42475123 18.19461284 -4.46496011 22.08811378 -4.625 26.3125 C-4.66367187 27.14845703 -4.70234375 27.98441406 -4.7421875 28.84570312 C-4.83595159 30.89679259 -4.91904245 32.94836515 -5 35 C-8.53147901 29.40374496 -7.94047681 21.36845562 -7 15 C-5.6430236 10.37078495 -3.37916274 6.17836337 -1 2 C-0.67 1.34 -0.34 0.68 0 0 Z " fill="#D6A560" transform="translate(32,42)"/>
<path d="M0 0 C2.97 0 5.94 0 9 0 C8.319375 0.556875 7.63875 1.11375 6.9375 1.6875 C5.9784375 2.8321875 5.9784375 2.8321875 5 4 C5.23870425 6.61098043 5.23870425 6.61098043 6 9 C5.67 9.66 5.34 10.32 5 11 C5.66 11.94875 6.32 12.8975 7 13.875 C9 17 9 17 9 19 C8.34 19 7.68 19 7 19 C4 15.53846154 4 15.53846154 4 13 C3.34 13 2.68 13 2 13 C1.34 8.71 0.68 4.42 0 0 Z " fill="#DB9238" transform="translate(125,77)"/>
<path d="M0 0 C0.33 0.66 0.66 1.32 1 2 C0.67 2.66 0.34 3.32 0 4 C-1.32 4 -2.64 4 -4 4 C-4 4.99 -4 5.98 -4 7 C-4.66 7 -5.32 7 -6 7 C-6.20625 7.804375 -6.4125 8.60875 -6.625 9.4375 C-7.07875 10.283125 -7.5325 11.12875 -8 12 C-11.125 12.8125 -11.125 12.8125 -14 13 C-11.82426778 5.63598326 -11.82426778 5.63598326 -9 3 C-6.35409837 2.10914199 -3.74219179 1.5749757 -1 1 C-0.67 0.67 -0.34 0.34 0 0 Z " fill="#D09C52" transform="translate(82,127)"/>
<path d="M0 0 C0.33 0 0.66 0 1 0 C1.31504609 9.83643892 -0.47540387 16.3461608 -5 25 C-5.66 25 -6.32 25 -7 25 C-7.33 25.99 -7.66 26.98 -8 28 C-8.33 27.01 -8.66 26.02 -9 25 C-8.01 24.67 -7.02 24.34 -6 24 C-5.26240572 22.13103708 -5.26240572 22.13103708 -4.9375 19.875 C-4.38398335 16.9598123 -3.77528217 14.23331563 -2.9375 11.375 C-1.97908881 7.92471972 -1.4957642 4.54117288 -1 1 C-0.67 0.67 -0.34 0.34 0 0 Z " fill="#CB9752" transform="translate(167,61)"/>
<path d="M0 0 C2.31 0 4.62 0 7 0 C7.33 0.99 7.66 1.98 8 3 C10.01508358 3.73323796 10.01508358 3.73323796 12 4 C12.33 5.65 12.66 7.3 13 9 C9.483734 8.92967468 6.90537227 8.79931999 4.19921875 6.41015625 C0 1.50939737 0 1.50939737 0 0 Z " fill="#E1A44B" transform="translate(114,131)"/>
<path d="M0 0 C-0.639375 0.268125 -1.27875 0.53625 -1.9375 0.8125 C-4.33131686 1.88667752 -4.33131686 1.88667752 -5 5 C-8.5625 6.1875 -8.5625 6.1875 -12 7 C-12 7.66 -12 8.32 -12 9 C-18.46326465 9.45356243 -21.60931587 8.59378942 -27 5 C-26.01 4.67 -25.02 4.34 -24 4 C-22.31791365 4.97383946 -20.65261839 5.97695052 -19 7 C-16.30745009 7.70670728 -16.30745009 7.70670728 -14 8 C-13.67 6.68 -13.34 5.36 -13 4 C-11.35 4 -9.7 4 -8 4 C-8 3.01 -8 2.02 -8 1 C-4.93251126 -0.86240388 -3.40254489 -1.2151946 0 0 Z " fill="#E7DBC1" transform="translate(144,68)"/>
<path d="M0 0 C2.21484375 0.19921875 2.21484375 0.19921875 4.9375 0.6875 C5.83339844 0.83574219 6.72929688 0.98398438 7.65234375 1.13671875 C10 2 10 2 11.27734375 3.87890625 C12.18906294 6.55492527 12.61863587 9.20332971 13 12 C12.01 12.495 12.01 12.495 11 13 C10.67 11.02 10.34 9.04 10 7 C9.67 8.32 9.34 9.64 9 11 C7.68 11 6.36 11 5 11 C5.33 8.03 5.66 5.06 6 2 C4.68 2 3.36 2 2 2 C1.67 2.99 1.34 3.98 1 5 C0.34 3.68 -0.32 2.36 -1 1 C-0.67 0.67 -0.34 0.34 0 0 Z " fill="#D69A43" transform="translate(72,113)"/>
<path d="M0 0 C0.99 0 1.98 0 3 0 C3 0.66 3 1.32 3 2 C2.34 2 1.68 2 1 2 C1 2.66 1 3.32 1 4 C-0.86328125 5.40234375 -0.86328125 5.40234375 -3.3125 6.9375 C-6.20022762 8.75569887 -8.681564 10.48648525 -11 13 C-11 12.34 -11 11.68 -11 11 C-11.9075 10.87625 -12.815 10.7525 -13.75 10.625 C-16.58970323 10.07890323 -18.52590591 9.42736197 -21 8 C-19 7 -19 7 -15.4375 7.8125 C-11.38110329 8.43542015 -9.46033844 7.36867908 -6.125 5.0625 C-5.38507813 4.49660156 -4.64515625 3.93070312 -3.8828125 3.34765625 C-2 2 -2 2 0 2 C0 1.34 0 0.68 0 0 Z " fill="#CC8F41" transform="translate(155,89)"/>
<path d="M0 0 C0 6.6 0 13.2 0 20 C-2 18 -2 18 -2.1953125 14.5234375 C-2.18201493 13.14049032 -2.15816232 11.75761346 -2.125 10.375 C-2.11597656 9.66859375 -2.10695313 8.9621875 -2.09765625 8.234375 C-2.07407603 6.48943902 -2.03820461 4.74467705 -2 3 C-2.66 3 -3.32 3 -4 3 C-4.33 3.99 -4.66 4.98 -5 6 C-5.99 5.67 -6.98 5.34 -8 5 C-8 4.34 -8 3.68 -8 3 C-7.34 3 -6.68 3 -6 3 C-6 2.34 -6 1.68 -6 1 C-4 0 -4 0 0 0 Z " fill="#D9A55D" transform="translate(42,37)"/>
<path d="M0 0 C2.97 0.99 5.94 1.98 9 3 C8.01 3.66 7.02 4.32 6 5 C5.34 4.67 4.68 4.34 4 4 C4 4.99 4 5.98 4 7 C6.475 7.99 6.475 7.99 9 9 C9 9.33 9 9.66 9 10 C7.35 10 5.7 10 4 10 C3.67 10.66 3.34 11.32 3 12 C1.35 11.67 -0.3 11.34 -2 11 C-2 9.35 -2 7.7 -2 6 C-0.68 6.33 0.64 6.66 2 7 C2 5.68 2 4.36 2 3 C1.34 3 0.68 3 0 3 C0 2.01 0 1.02 0 0 Z " fill="#ECA235" transform="translate(130,123)"/>
<path d="M0 0 C0.66 0 1.32 0 2 0 C2.06058594 1.05960938 2.12117188 2.11921875 2.18359375 3.2109375 C2.26800127 4.59897221 2.35264917 5.98699232 2.4375 7.375 C2.47681641 8.07367188 2.51613281 8.77234375 2.55664062 9.4921875 C2.74280134 13.37360492 2.74280134 13.37360492 4 17 C4.039992 18.99960012 4.04346799 21.00047242 4 23 C0.53482601 16.8121893 -0.24372825 10.94625504 0 4 C-2.31 6.31 -4.62 8.62 -7 11 C-7.33 10.34 -7.66 9.68 -8 9 C-7 6 -7 6 -4 4 C-3.67 3.01 -3.34 2.02 -3 1 C-2.34 1.33 -1.68 1.66 -1 2 C-0.67 1.34 -0.34 0.68 0 0 Z " fill="#E49535" transform="translate(38,40)"/>
<path d="M0 0 C0.886875 0.45375 1.77375 0.9075 2.6875 1.375 C5.84726979 3.04422218 5.84726979 3.04422218 8.8125 3.8125 C11 5 11 5 11.8125 7.5 C12.49586777 20.25619835 12.49586777 20.25619835 10 24 C10.020625 22.89140625 10.04125 21.7828125 10.0625 20.640625 C10.4116552 12.79165404 10.4116552 12.79165404 7.1875 6.1875 C5.03939344 5.19816652 5.03939344 5.19816652 2.8125 4.703125 C2.214375 4.47109375 1.61625 4.2390625 1 4 C0.25 1.921875 0.25 1.921875 0 0 Z " fill="#F0E6D1" transform="translate(37,94)"/>
<path d="M0 0 C0.886875 -0.01417969 1.77375 -0.02835938 2.6875 -0.04296875 C5 0.1875 5 0.1875 7 2.1875 C6.625 4.3125 6.625 4.3125 6 6.1875 C3.36 6.1875 0.72 6.1875 -2 6.1875 C-1.67 5.1975 -1.34 4.2075 -1 3.1875 C-0.01 2.8575 0.98 2.5275 2 2.1875 C2.66 2.5175 3.32 2.8475 4 3.1875 C4 2.5275 4 1.8675 4 1.1875 C1.69 1.1875 -0.62 1.1875 -3 1.1875 C-3 2.5075 -3 3.8275 -3 5.1875 C-3.66 5.1875 -4.32 5.1875 -5 5.1875 C-5 4.5275 -5 3.8675 -5 3.1875 C-5.66 3.1875 -6.32 3.1875 -7 3.1875 C-7 2.5275 -7 1.8675 -7 1.1875 C-4.52224905 -0.05137548 -2.76346293 0.02008331 0 0 Z " fill="#9A9A9A" transform="translate(97,60.8125)"/>
<path d="M0 0 C0.66 0.33 1.32 0.66 2 1 C2 3.31 2 5.62 2 8 C1.01 8 0.02 8 -1 8 C-1.33 7.34 -1.66 6.68 -2 6 C-1.67 7.98 -1.34 9.96 -1 12 C1.31 12.66 3.62 13.32 6 14 C6 14.33 6 14.66 6 15 C2.6875 15.3125 2.6875 15.3125 -1 15 C-3.7707068 12.05053792 -3.98848606 10.23411674 -4.1875 6.1875 C-4.125625 5.135625 -4.06375 4.08375 -4 3 C-2.68 2.67 -1.36 2.34 0 2 C0 1.34 0 0.68 0 0 Z " fill="#AC8E65" transform="translate(115,116)"/>
<path d="M0 0 C1.65 0 3.3 0 5 0 C5 0.99 5 1.98 5 3 C4.01 3.495 4.01 3.495 3 4 C2.56757889 6.94515612 2.56757889 6.94515612 2.4375 10.375 C2.09271523 16.7218543 2.09271523 16.7218543 1 20 C0.34 20 -0.32 20 -1 20 C-0.9278125 18.80761719 -0.855625 17.61523438 -0.78125 16.38671875 C-0.68745339 14.82031529 -0.59370595 13.25390889 -0.5 11.6875 C-0.45230469 10.90181641 -0.40460938 10.11613281 -0.35546875 9.30664062 C-0.31035156 8.54931641 -0.26523438 7.79199219 -0.21875 7.01171875 C-0.17685547 6.31522217 -0.13496094 5.61872559 -0.09179688 4.90112305 C-0.01299029 3.26903034 0 1.63399421 0 0 Z " fill="#BEA480" transform="translate(128,134)"/>
<path d="M0 0 C1.98 0 3.96 0 6 0 C5.67 6.6 5.34 13.2 5 20 C5.99 20.33 6.98 20.66 8 21 C8 22.65 8 24.3 8 26 C4.06818922 22.23913752 4.06818922 22.23913752 3.88647461 18.93701172 C3.89171143 18.10959473 3.89694824 17.28217773 3.90234375 16.4296875 C3.90717773 15.08583984 3.90717773 15.08583984 3.91210938 13.71484375 C3.92048828 12.77769531 3.92886719 11.84054688 3.9375 10.875 C3.94201172 9.93011719 3.94652344 8.98523437 3.95117188 8.01171875 C3.96297643 5.67441613 3.97944241 3.33723939 4 1 C2.68 0.67 1.36 0.34 0 0 Z " fill="#FAEDCE" transform="translate(38,36)"/>
<path d="M0 0 C0.90492188 0.02320313 1.80984375 0.04640625 2.7421875 0.0703125 C3.65226562 0.08835938 4.56234375 0.10640625 5.5 0.125 C6.19867188 0.14820313 6.89734375 0.17140625 7.6171875 0.1953125 C7.6171875 0.5253125 7.6171875 0.8553125 7.6171875 1.1953125 C5.8228125 1.5665625 5.8228125 1.5665625 3.9921875 1.9453125 C0.83671157 2.71061246 -0.68395495 3.40426848 -3.4453125 5.3203125 C-7.00819913 7.59449545 -9.23517496 7.5271235 -13.3828125 7.1953125 C-13.3828125 6.5353125 -13.3828125 5.8753125 -13.3828125 5.1953125 C-12.75632813 5.00195312 -12.12984375 4.80859375 -11.484375 4.609375 C-10.66710937 4.34898437 -9.84984375 4.08859375 -9.0078125 3.8203125 C-8.19570312 3.56507813 -7.38359375 3.30984375 -6.546875 3.046875 C-3.77157905 1.95479104 -3.04423672 0.2495276 0 0 Z " fill="#FDFAE9" transform="translate(143.3828125,133.8046875)"/>
<path d="M0 0 C0.97839844 0.52400391 0.97839844 0.52400391 1.9765625 1.05859375 C6.63695125 3.48502034 10.67136947 5.57931864 16 6 C15.67 9.3 15.34 12.6 15 16 C14.67 16 14.34 16 14 16 C14 13.36 14 10.72 14 8 C12.1746875 7.5978125 12.1746875 7.5978125 10.3125 7.1875 C6.77798174 6.29760356 3.94238275 5.22907784 1 3 C0.67 2.01 0.34 1.02 0 0 Z " fill="#D4994C" transform="translate(52,71)"/>
<path d="M0 0 C2.475 0.495 2.475 0.495 5 1 C5 1.66 5 2.32 5 3 C6.98 3 8.96 3 11 3 C11.33 4.32 11.66 5.64 12 7 C13.65 7 15.3 7 17 7 C17 6.34 17 5.68 17 5 C17.99 5.33 18.98 5.66 20 6 C18 8 18 8 15 8.5 C9.65411162 8.38721754 5.17398764 5.08651193 1 2 C0.67 1.34 0.34 0.68 0 0 Z " fill="#EFDEBE" transform="translate(51,69)"/>
<path d="M0 0 C0.66 0.99 1.32 1.98 2 3 C1.37768833 4.6837311 0.70226864 6.34801907 0 8 C-0.28121242 10.26296407 -0.48704889 12.53630662 -0.625 14.8125 C-0.69976562 15.97394531 -0.77453125 17.13539063 -0.8515625 18.33203125 C-0.90054688 19.21246094 -0.94953125 20.09289062 -1 21 C-3.4682001 16.63394086 -3.55390845 12.92095479 -3 8 C-2.19696399 5.19169489 -1.17268342 2.6873995 0 0 Z " fill="#685949" transform="translate(68,132)"/>
<path d="M0 0 C0.66 0.33 1.32 0.66 2 1 C0.25 4 0.25 4 -2 7 C-3.32 7 -4.64 7 -6 7 C-6.33 11.29 -6.66 15.58 -7 20 C-7.33 20 -7.66 20 -8 20 C-9.76132223 9.06585112 -9.76132223 9.06585112 -6.8125 4.9375 C-5.884375 4.298125 -4.95625 3.65875 -4 3 C-3.236875 2.401875 -2.47375 1.80375 -1.6875 1.1875 C-1.130625 0.795625 -0.57375 0.40375 0 0 Z " fill="#DFD0B6" transform="translate(154,93)"/>
<path d="M0 0 C-0.33 1.65 -0.66 3.3 -1 5 C-1.66 5 -2.32 5 -3 5 C-3.66 6.32 -4.32 7.64 -5 9 C-5 7.35 -5 5.7 -5 4 C-6.32 4 -7.64 4 -9 4 C-9 3.01 -9 2.02 -9 1 C-6.04335481 -0.4783226 -3.25770263 -0.06032783 0 0 Z " fill="#D69843" transform="translate(71,127)"/>
<path d="M0 0 C0 0.66 0 1.32 0 2 C2.64 1.67 5.28 1.34 8 1 C6 3 6 3 2.875 3.125 C1.92625 3.08375 0.9775 3.0425 0 3 C-0.66 4.32 -1.32 5.64 -2 7 C-2.66 7 -3.32 7 -4 7 C-3.34 4.69 -2.68 2.38 -2 0 C-3.98 0.33 -5.96 0.66 -8 1 C-8 0.34 -8 -0.32 -8 -1 C-4.37673261 -2.2077558 -3.35853631 -1.54311128 0 0 Z " fill="#563E24" transform="translate(73,127)"/>
<path d="M0 0 C0.33 0 0.66 0 1 0 C1.33 3.96 1.66 7.92 2 12 C2.66 12 3.32 12 4 12 C5.625 14 5.625 14 7 16 C6.67 16.66 6.34 17.32 6 18 C0.94324024 14.59218364 -0.72943511 12.14263284 -1.96875 6.18359375 C-2.00572504 3.59996292 -1.31309772 2.19347006 0 0 Z " fill="#846032" transform="translate(125,78)"/>
<path d="M0 0 C0.66 0 1.32 0 2 0 C2.66 0.99 3.32 1.98 4 3 C5.97747122 3.36297936 5.97747122 3.36297936 8.125 3.1875 C9.40375 3.125625 10.6825 3.06375 12 3 C12 3.99 12 4.98 12 6 C5.375 7.125 5.375 7.125 2 6 C0 3 0 3 0 0 Z " fill="#E8E8E5" transform="translate(84,142)"/>
<path d="M0 0 C0.33 1.65 0.66 3.3 1 5 C-1.475 4.01 -1.475 4.01 -4 3 C-4 4.65 -4 6.3 -4 8 C-5.70884005 6.37660195 -7.37446717 4.70680947 -9 3 C-9 2.34 -9 1.68 -9 1 C-5.94152152 0.45627049 -3.11227195 0 0 0 Z " fill="#BD8A44" transform="translate(132,126)"/>
<path d="M0 0 C1.07765625 0.10183594 2.1553125 0.20367187 3.265625 0.30859375 C4.08546875 0.39238281 4.9053125 0.47617188 5.75 0.5625 C5.75 1.2225 5.75 1.8825 5.75 2.5625 C0.47 2.5625 -4.81 2.5625 -10.25 2.5625 C-10.25 1.9025 -10.25 1.2425 -10.25 0.5625 C-6.70049966 -0.60056443 -3.69176052 -0.36115049 0 0 Z " fill="#DC9F49" transform="translate(113.25,108.4375)"/>
<path d="M0 0 C0.33 0 0.66 0 1 0 C1.08115993 3.06303578 1.14057409 6.12390815 1.1875 9.1875 C1.21263672 10.05181641 1.23777344 10.91613281 1.26367188 11.80664062 C1.31933634 16.64944938 1.30477143 20.13509782 -2 24 C-2.66 24 -3.32 24 -4 24 C-3.79503906 23.44054687 -3.59007812 22.88109375 -3.37890625 22.3046875 C-0.89731572 14.91928411 -0.32406552 7.75522303 0 0 Z " fill="#F7EACC" transform="translate(168,58)"/>
<path d="M0 0 C1.65 0 3.3 0 5 0 C7.66590937 4.55426184 8.31563182 7.73946963 8 13 C6.85343936 10.78877592 5.88490779 8.670069 5.0625 6.3125 C4.5365625 5.1678125 4.5365625 5.1678125 4 4 C3.01 3.67 2.02 3.34 1 3 C0.67 2.01 0.34 1.02 0 0 Z " fill="#705433" transform="translate(121,131)"/>
<path d="M0 0 C1.51204208 2.95566597 2.89596402 5.94134439 4.1875 9 C4.55230469 9.845625 4.91710937 10.69125 5.29296875 11.5625 C6.05799936 14.19995359 5.92485503 15.45517596 5 18 C4.67 15.69 4.34 13.38 4 11 C3.01 10.67 2.02 10.34 1 10 C-0.33599181 6.99401842 -1.14345053 4.90852004 -0.625 1.625 C-0.41875 1.08875 -0.2125 0.5525 0 0 Z " fill="#E1B36F" transform="translate(145,113)"/>
<path d="M0 0 C0.33 0 0.66 0 1 0 C1.13277344 0.97582031 1.26554687 1.95164063 1.40234375 2.95703125 C1.57894531 4.22933594 1.75554688 5.50164062 1.9375 6.8125 C2.11152344 8.07707031 2.28554688 9.34164062 2.46484375 10.64453125 C2.90392455 13.98321703 2.90392455 13.98321703 4 17 C3.34 17.66 2.68 18.32 2 19 C2 18.01 2 17.02 2 16 C1.34 16 0.68 16 0 16 C0 10.72 0 5.44 0 0 Z " fill="#ECECE9" transform="translate(43,135)"/>
<path d="M0 0 C0.89203125 0.11085937 1.7840625 0.22171875 2.703125 0.3359375 C3.37859375 0.43132812 4.0540625 0.52671875 4.75 0.625 C4.75 0.955 4.75 1.285 4.75 1.625 C-1.19 2.12 -1.19 2.12 -7.25 2.625 C-7.58 3.945 -7.91 5.265 -8.25 6.625 C-8.58 4.975 -8.91 3.325 -9.25 1.625 C-5.9353333 -0.40407167 -3.8184021 -0.50242133 0 0 Z " fill="#E6E6E1" transform="translate(97.25,130.375)"/>
<path d="M0 0 C0.33 0.66 0.66 1.32 1 2 C0.01 3.485 0.01 3.485 -1 5 C-1.66158043 7.04584079 -1.66158043 7.04584079 -2.125 9.1875 C-2.41375 10.445625 -2.7025 11.70375 -3 13 C-5 10 -5 10 -4.875 6.5 C-4 3 -4 3 -1.9375 1.0625 C-0.9784375 0.5365625 -0.9784375 0.5365625 0 0 Z " fill="#FBF1D6" transform="translate(46,118)"/>
<path d="M0 0 C-2.64738916 1.4606285 -3.89448334 2 -7 2 C-7 2.66 -7 3.32 -7 4 C-8.65 4.33 -10.3 4.66 -12 5 C-12 3.68 -12 2.36 -12 1 C-10.37681021 0.63762737 -8.7513642 0.28534843 -7.125 -0.0625 C-6.22007813 -0.25972656 -5.31515625 -0.45695312 -4.3828125 -0.66015625 C-2 -1 -2 -1 0 0 Z " fill="#6B6055" transform="translate(62,99)"/>
<path d="M0 0 C5.94 0.99 5.94 0.99 12 2 C7.99998285 3.00000429 5.94476647 2.80688405 2 2 C2 5.96 2 9.92 2 14 C1.67 14 1.34 14 1 14 C0.67 9.38 0.34 4.76 0 0 Z " fill="#8E8C8B" transform="translate(103,67)"/>
<path d="M0 0 C1.5 1.3125 1.5 1.3125 3 3 C3 3.99 3 4.98 3 6 C3.61875 6.0825 4.2375 6.165 4.875 6.25 C7 7 7 7 8.25 9.0625 C8.4975 9.701875 8.745 10.34125 9 11 C7.68 10.67 6.36 10.34 5 10 C5 9.34 5 8.68 5 8 C4.01 8 3.02 8 2 8 C0.23537317 4.91190305 0 3.76687864 0 0 Z " fill="#FCF7E5" transform="translate(46,59)"/>
<path d="M0 0 C2.97 0.33 5.94 0.66 9 1 C8.34 2.32 7.68 3.64 7 5 C4.36 4.67 1.72 4.34 -1 4 C-0.34 3.67 0.32 3.34 1 3 C0.67 2.01 0.34 1.02 0 0 Z " fill="#616062" transform="translate(112,90)"/>
<path d="M0 0 C0.33 0.99 0.66 1.98 1 3 C-0.23553276 4.20254524 -1.48902339 5.38666232 -2.75 6.5625 C-3.79414062 7.55443359 -3.79414062 7.55443359 -4.859375 8.56640625 C-7 10 -7 10 -9.265625 9.71484375 C-9.83796875 9.47894531 -10.4103125 9.24304688 -11 9 C-10.05125 8.5875 -9.1025 8.175 -8.125 7.75 C-4.99283376 5.9959869 -4.13499394 5.29148243 -3 2 C-2.01 2 -1.02 2 0 2 C0 1.34 0 0.68 0 0 Z " fill="#D7933E" transform="translate(64,88)"/>
<path d="M0 0 C3.63 0 7.26 0 11 0 C9.35 1.65 7.7 3.3 6 5 C5.01 4.67 4.02 4.34 3 4 C3.66 3.01 4.32 2.02 5 1 C2.53199953 2.15173355 0.95216435 3.04783565 -1 5 C-0.67 3.35 -0.34 1.7 0 0 Z " fill="#E29F3C" transform="translate(50,115)"/>
<path d="M0 0 C0 3.56973519 -0.53312805 4.49077832 -3 7 C-5.4453125 7.5390625 -5.4453125 7.5390625 -8.125 7.625 C-10.74013993 7.68439384 -10.74013993 7.68439384 -13 8 C-13.33 8.66 -13.66 9.32 -14 10 C-14 9.01 -14 8.02 -14 7 C-12.98679688 6.74476562 -12.98679688 6.74476562 -11.953125 6.484375 C-5.11888033 4.69961407 -5.11888033 4.69961407 0 0 Z " fill="#8B6637" transform="translate(63,92)"/>
<path d="M0 0 C0.66 0 1.32 0 2 0 C3.35439668 2.70879335 3.06501451 5.00933268 3 8 C1.68 8 0.36 8 -1 8 C-0.67 5.36 -0.34 2.72 0 0 Z " fill="#AB9C88" transform="translate(78,116)"/>
<path d="M0 0 C0 0.66 0 1.32 0 2 C-4.53701494 3.45184478 -8.18061476 4.23509196 -13 4 C-12 2 -12 2 -8.75 0.875 C-5.62299365 0.14536518 -3.17377095 -0.19234975 0 0 Z " fill="#A17842" transform="translate(63,111)"/>
<path d="M0 0 C0.66 0 1.32 0 2 0 C1.34 3.3 0.68 6.6 0 10 C-0.66 9.67 -1.32 9.34 -2 9 C-2.66 10.32 -3.32 11.64 -4 13 C-4.63934602 7.88523181 -2.40533547 4.32745622 0 0 Z " fill="#E0B16D" transform="translate(48,115)"/>
<path d="M0 0 C0.66 0 1.32 0 2 0 C2.33 1.65 2.66 3.3 3 5 C0.69 4.67 -1.62 4.34 -4 4 C-4.33 3.01 -4.66 2.02 -5 1 C-2.525 1.495 -2.525 1.495 0 2 C0 1.34 0 0.68 0 0 Z " fill="#DAAD6C" transform="translate(124,135)"/>
<path d="M0 0 C4.95 0.33 9.9 0.66 15 1 C15 1.99 15 2.98 15 4 C9.76119922 3.44854729 5.02649303 2.57077907 0 1 C0 0.67 0 0.34 0 0 Z " fill="#CD964C" transform="translate(130,113)"/>
<path d="M0 0 C0.33 0.66 0.66 1.32 1 2 C0.0625 4.125 0.0625 4.125 -1 6 C-1.66 6 -2.32 6 -3 6 C-3.33 7.32 -3.66 8.64 -4 10 C-4.99 10 -5.98 10 -7 10 C-7 9.34 -7 8.68 -7 8 C-6.34 8 -5.68 8 -5 8 C-4.34 6.35 -3.68 4.7 -3 3 C-2.34 3 -1.68 3 -1 3 C-0.67 2.01 -0.34 1.02 0 0 Z " fill="#F5DFB6" transform="translate(163,83)"/>
<path d="M0 0 C0.33 0.66 0.66 1.32 1 2 C0.34 2 -0.32 2 -1 2 C-1 2.66 -1 3.32 -1 4 C-1.66 4 -2.32 4 -3 4 C-3.28875 4.94875 -3.5775 5.8975 -3.875 6.875 C-5 10 -5 10 -7 12 C-6.67 9.36 -6.34 6.72 -6 4 C-4.68 3.67 -3.36 3.34 -2 3 C-2 2.34 -2 1.68 -2 1 C-1.34 0.67 -0.68 0.34 0 0 Z " fill="#F9EDD1" transform="translate(35,38)"/>
<path d="M0 0 C0.268125 0.639375 0.53625 1.27875 0.8125 1.9375 C1.88667752 4.33131686 1.88667752 4.33131686 5 5 C4.01 5 3.02 5 2 5 C3.66954819 8.22404978 3.66954819 8.22404978 6.625 8.6875 C7.800625 8.8421875 7.800625 8.8421875 9 9 C9 9.33 9 9.66 9 10 C6.1875 10.3125 6.1875 10.3125 3 10 C0.72661235 7.3477144 0.04473264 5.67098964 -0.1875 2.1875 C-0.125625 1.465625 -0.06375 0.74375 0 0 Z " fill="#59432C" transform="translate(112,120)"/>
<path d="M0 0 C1.98 0.99 1.98 0.99 4 2 C4 2.66 4 3.32 4 4 C4.66 4 5.32 4 6 4 C6.66 6.64 7.32 9.28 8 12 C7.34 11.67 6.68 11.34 6 11 C6 10.01 6 9.02 6 8 C5.34 8 4.68 8 4 8 C2.66666667 5.33333333 1.33333333 2.66666667 0 0 Z " fill="#FCF2D6" transform="translate(159,40)"/>
<path d="M0 0 C3.73764507 1.86882253 5.23916443 6.34287996 7 10 C5.1875 9.9375 5.1875 9.9375 3 9 C0 3.10714286 0 3.10714286 0 0 Z " fill="#F7E7C3" transform="translate(30,84)"/>
<path d="M0 0 C0.66 1.32 1.32 2.64 2 4 C2.8353125 5.546875 2.8353125 5.546875 3.6875 7.125 C4.120625 8.07375 4.55375 9.0225 5 10 C4.67 10.66 4.34 11.32 4 12 C3.01 11.67 2.02 11.34 1 11 C0.67 7.37 0.34 3.74 0 0 Z " fill="#FBEFCF" transform="translate(25,73)"/>
<path d="M0 0 C0.33 0 0.66 0 1 0 C1.08131463 1.43655854 1.13933559 2.8744483 1.1875 4.3125 C1.23970703 5.51326172 1.23970703 5.51326172 1.29296875 6.73828125 C0.93801608 9.47851584 0.10633718 10.29171079 -2 12 C-1.85962479 10.18706911 -1.71255111 8.3746557 -1.5625 6.5625 C-1.48128906 5.55316406 -1.40007812 4.54382813 -1.31640625 3.50390625 C-1 1 -1 1 0 0 Z " fill="#C48F4A" transform="translate(167,61)"/>
<path d="M0 0 C0.91007812 0.00902344 1.82015625 0.01804688 2.7578125 0.02734375 C3.45648438 0.03894531 4.15515625 0.05054688 4.875 0.0625 C4.875 0.3925 4.875 0.7225 4.875 1.0625 C2.235 1.0625 -0.405 1.0625 -3.125 1.0625 C-3.125 2.3825 -3.125 3.7025 -3.125 5.0625 C-3.785 5.0625 -4.445 5.0625 -5.125 5.0625 C-5.125 4.4025 -5.125 3.7425 -5.125 3.0625 C-5.785 3.0625 -6.445 3.0625 -7.125 3.0625 C-7.125 2.4025 -7.125 1.7425 -7.125 1.0625 C-4.60024538 -0.19987731 -2.81299534 -0.03606404 0 0 Z " fill="#A7A6A4" transform="translate(97.125,60.9375)"/>
<path d="M0 0 C3.375 4.5 3.375 4.5 3.6875 8.75 C3.75324219 9.54921875 3.81898438 10.3484375 3.88671875 11.171875 C3.92410156 11.77515625 3.96148437 12.3784375 4 13 C3.01 13 2.02 13 1 13 C0.67 8.71 0.34 4.42 0 0 Z " fill="#DFB271" transform="translate(164,48)"/>
<path d="M0 0 C2.29013653 3.4352048 2.17842973 4.985331 2 9 C-0.89932357 6.60490662 -1.50168276 4.68754757 -2 1 C-1.34 0.67 -0.68 0.34 0 0 Z " fill="#F8EBCC" transform="translate(148,114)"/>
<path d="M0 0 C1.69752187 0.25245197 3.38471545 0.57645775 5.0625 0.9375 C5.98160156 1.13214844 6.90070313 1.32679687 7.84765625 1.52734375 C8.91306641 1.76130859 8.91306641 1.76130859 10 2 C10 2.66 10 3.32 10 4 C8.741875 3.87625 7.48375 3.7525 6.1875 3.625 C5.12595703 3.52058594 5.12595703 3.52058594 4.04296875 3.4140625 C2 3 2 3 -1 1 C-0.67 0.67 -0.34 0.34 0 0 Z " fill="#9D7541" transform="translate(132,111)"/>
<path d="M0 0 C0.66 0.33 1.32 0.66 2 1 C-0.625 6.75 -0.625 6.75 -4 9 C-4 7.68 -4 6.36 -4 5 C-3.34 5 -2.68 5 -2 5 C-2 4.01 -2 3.02 -2 2 C-1.34 2 -0.68 2 0 2 C0 1.34 0 0.68 0 0 Z " fill="#F8E8C7" transform="translate(148,58)"/>
<path d="M0 0 C0 0.99 0 1.98 0 3 C-3.3 2.67 -6.6 2.34 -10 2 C-10 1.67 -10 1.34 -10 1 C-6.56484998 0.37542727 -3.50935186 0 0 0 Z " fill="#EAEAE7" transform="translate(77,169)"/>
<path d="M0 0 C0.99 0 1.98 0 3 0 C3.33 0.66 3.66 1.32 4 2 C7.02934491 2.65772428 7.02934491 2.65772428 10 3 C8.375 4.125 8.375 4.125 6 5 C2.75 4.125 2.75 4.125 0 3 C0 2.01 0 1.02 0 0 Z " fill="#DCDCD8" transform="translate(96,143)"/>
<path d="M0 0 C2.64 0.33 5.28 0.66 8 1 C7.67 2.32 7.34 3.64 7 5 C7 4.34 7 3.68 7 3 C6.401875 3.226875 5.80375 3.45375 5.1875 3.6875 C4.465625 3.790625 3.74375 3.89375 3 4 C1.25 2.625 1.25 2.625 0 1 C0 0.67 0 0.34 0 0 Z " fill="#F3E8CD" transform="translate(120,139)"/>
<path d="M0 0 C0 0.33 0 0.66 0 1 C-1.62324086 1.22162329 -3.248721 1.42689803 -4.875 1.625 C-6.23238281 1.79902344 -6.23238281 1.79902344 -7.6171875 1.9765625 C-8.40351562 1.98429687 -9.18984375 1.99203125 -10 2 C-10.66 1.34 -11.32 0.68 -12 0 C-7.91556885 -1.53166168 -4.20544343 -0.63081652 0 0 Z " fill="#B0844B" transform="translate(73,110)"/>
<path d="M0 0 C2.25245881 2.68841859 3.88213958 4.64641875 5 8 C1.125 7.125 1.125 7.125 0 6 C-0.04080783 4.00041636 -0.04254356 1.99954746 0 0 Z " fill="#E0AF69" transform="translate(42,57)"/>
<path d="M0 0 C0.33 0.99 0.66 1.98 1 3 C0 4 0 4 -2.28515625 4.09765625 C-3.65994141 4.08025391 -3.65994141 4.08025391 -5.0625 4.0625 C-5.98160156 4.05347656 -6.90070313 4.04445312 -7.84765625 4.03515625 C-8.55792969 4.02355469 -9.26820312 4.01195312 -10 4 C-10.33 3.34 -10.66 2.68 -11 2 C-9.01432292 2.06510417 -7.02864583 2.13020833 -5.04296875 2.1953125 C-2.68640281 2.13254462 -2.68640281 2.13254462 0 0 Z " fill="#A8A6A3" transform="translate(103,137)"/>
<path d="M0 0 C0.33 0.99 0.66 1.98 1 3 C3.01508358 3.73323796 3.01508358 3.73323796 5 4 C4.16855469 4.30744141 4.16855469 4.30744141 3.3203125 4.62109375 C2.59585938 4.89050781 1.87140625 5.15992188 1.125 5.4375 C0.04605469 5.83775391 0.04605469 5.83775391 -1.0546875 6.24609375 C-3.03648845 6.97916854 -3.03648845 6.97916854 -5 8 C-5 7.01 -5 6.02 -5 5 C-3.68 5 -2.36 5 -1 5 C-0.67 3.35 -0.34 1.7 0 0 Z " fill="#E1B26E" transform="translate(83,126)"/>
<path d="M0 0 C2.31 0 4.62 0 7 0 C6.67 1.65 6.34 3.3 6 5 C5.34 4.67 4.68 4.34 4 4 C4.33 3.34 4.66 2.68 5 2 C3.02 2.33 1.04 2.66 -1 3 C-0.67 2.01 -0.34 1.02 0 0 Z " fill="#A4783F" transform="translate(64,127)"/>
<path d="M0 0 C0.66 0.33 1.32 0.66 2 1 C2 3.31 2 5.62 2 8 C1.01 8.495 1.01 8.495 0 9 C0 8.01 0 7.02 0 6 C-0.99 5.67 -1.98 5.34 -3 5 C-2.01 5 -1.02 5 0 5 C0 3.35 0 1.7 0 0 Z " fill="#5C452C" transform="translate(81,119)"/>
<path d="M0 0 C0.99 0 1.98 0 3 0 C3 0.66 3 1.32 3 2 C2.34 2 1.68 2 1 2 C1 2.66 1 3.32 1 4 C-1.5 5.625 -1.5 5.625 -4 7 C-3.6875 5.0625 -3.6875 5.0625 -3 3 C-2.01 2.67 -1.02 2.34 0 2 C0 1.34 0 0.68 0 0 Z " fill="#DA9E4E" transform="translate(155,89)"/>
<path d="M0 0 C4.35535069 1.16142685 6.64619703 2.07699505 9 6 C6.5625 5.625 6.5625 5.625 4 5 C3.67 4.34 3.34 3.68 3 3 C2.01 2.67 1.02 2.34 0 2 C0 1.34 0 0.68 0 0 Z " fill="#FAEAC7" transform="translate(111,132)"/>
<path d="M0 0 C0.763125 0.0825 1.52625 0.165 2.3125 0.25 C0.3125 3.25 0.3125 3.25 -2.8125 3.9375 C-3.76125 4.040625 -4.71 4.14375 -5.6875 4.25 C-3.34903846 0.31153846 -3.34903846 0.31153846 0 0 Z " fill="#D8D7D4" transform="translate(130.6875,164.75)"/>
<path d="M0 0 C1.65 0 3.3 0 5 0 C4.01 0.33 3.02 0.66 2 1 C2 1.99 2 2.98 2 4 C0.35 4 -1.3 4 -3 4 C-3 3.34 -3 2.68 -3 2 C-2.01 2 -1.02 2 0 2 C0 1.34 0 0.68 0 0 Z " fill="#7E7771" transform="translate(98,132)"/>
<path d="M0 0 C0.6875 1.6875 0.6875 1.6875 1 4 C-0.3125 6.75 -0.3125 6.75 -2 9 C-2.66 9 -3.32 9 -4 9 C-3.625 6.5625 -3.625 6.5625 -3 4 C-2.34 3.67 -1.68 3.34 -1 3 C-0.67 2.01 -0.34 1.02 0 0 Z " fill="#FCF9EB" transform="translate(167,78)"/>
<path d="M0 0 C0.66 0 1.32 0 2 0 C2 2.97 2 5.94 2 9 C0.4375 7.3125 0.4375 7.3125 -1 5 C-0.6875 2.25 -0.6875 2.25 0 0 Z " fill="#EA952F" transform="translate(64,79)"/>
</svg>
