<?xml version="1.0" encoding="UTF-8"?>
<svg version="1.1" xmlns="http://www.w3.org/2000/svg" width="64" height="64">
<path d="M0 0 C7.87013146 5.17093416 13.41047432 11.12863453 16.02734375 20.33203125 C17.00456089 30.02466171 16.23925067 37.63116934 10.4140625 45.515625 C5.5204704 51.42916755 0.48168096 55.22400569 -6.97265625 57.33203125 C-16.2081254 58.15700935 -24.05377911 58.0886737 -31.53515625 52.375 C-37.53619757 47.2549255 -42.42836714 42.30617867 -43.97265625 34.33203125 C-44.81676195 23.2202792 -43.73314027 15.64223367 -36.59765625 7.01953125 C-27.23958676 -3.0169484 -12.55223057 -6.61504889 0 0 Z " fill="#CA4629" transform="translate(45.97265625,4.66796875)"/>
<path d="M0 0 C4.62 0 9.24 0 14 0 C14 0.99 14 1.98 14 3 C9.38 3 4.76 3 0 3 C0 2.01 0 1.02 0 0 Z " fill="#FFFFFF" transform="translate(25,42)"/>
<path d="M0 0 C0.99 0 1.98 0 3 0 C3 4.62 3 9.24 3 14 C2.01 14 1.02 14 0 14 C0 9.38 0 4.76 0 0 Z " fill="#FFFFFF" transform="translate(42,25)"/>
<path d="M0 0 C0.99 0 1.98 0 3 0 C3 4.62 3 9.24 3 14 C2.01 14 1.02 14 0 14 C0 9.38 0 4.76 0 0 Z " fill="#FFFFFF" transform="translate(19,25)"/>
<path d="M0 0 C4.62 0 9.24 0 14 0 C14 0.99 14 1.98 14 3 C9.38 3 4.76 3 0 3 C0 2.01 0 1.02 0 0 Z " fill="#FFFFFF" transform="translate(25,19)"/>
</svg>
