<?xml version="1.0" encoding="UTF-8"?>
<svg version="1.1" xmlns="http://www.w3.org/2000/svg" width="192" height="192">
<path d="M0 0 C20.74214802 16.36295874 35.24768955 37.80942542 39.08984375 64.4375 C41.23429433 94.7507401 35.20654084 119.85377198 15.19946289 143.1015625 C-0.24141956 160.40289245 -22.66162943 173.00505778 -46.06445312 174.66064453 C-76.91659688 175.69954325 -101.60641605 169.19525544 -124.59375 147.79467773 C-141.14677537 131.75067991 -152.46398239 109.15993104 -153.24609375 85.93359375 C-153.63659358 55.62397823 -146.33434962 31.45758762 -124.84375 9.28515625 C-91.79128842 -23.47863754 -37.48370416 -27.42936077 0 0 Z " fill="#FDFEFE" transform="translate(152.91015625,17.5625)"/>
<path d="M0 0 C0 0.66 0 1.32 0 2 C1.32 2.33 2.64 2.66 4 3 C4 3.66 4 4.32 4 5 C4.73476562 5.22816406 5.46953125 5.45632812 6.2265625 5.69140625 C11.54031031 8.19859712 14.54219503 13.39750144 18 18 C18.65871094 18.8146875 19.31742187 19.629375 19.99609375 20.46875 C28.91749894 32.59418673 30.85914527 51.28772538 29 66 C28.05973229 70.79424595 26.63404242 75.39696087 25 80 C24.34 80 23.68 80 23 80 C22.82984375 80.59167969 22.6596875 81.18335937 22.484375 81.79296875 C20.18626676 89.28626849 16.59466947 93.54519727 11 99 C10.278125 99.763125 9.55625 100.52625 8.8125 101.3125 C7 103 7 103 5 103 C5 103.66 5 104.32 5 105 C3.68 105.33 2.36 105.66 1 106 C1 106.66 1 107.32 1 108 C-1.41381346 109.31799019 -3.83077596 110.62950918 -6.25 111.9375 C-6.93191406 112.31068359 -7.61382812 112.68386719 -8.31640625 113.06835938 C-8.98027344 113.42607422 -9.64414063 113.78378906 -10.328125 114.15234375 C-10.9355957 114.48226318 -11.54306641 114.81218262 -12.16894531 115.15209961 C-15.87721022 116.86927348 -19.19542479 117.11584967 -23.25 117.0625 C-24.58804688 117.04896484 -24.58804688 117.04896484 -25.953125 117.03515625 C-26.62859375 117.02355469 -27.3040625 117.01195312 -28 117 C-28.18175781 118.17369141 -28.18175781 118.17369141 -28.3671875 119.37109375 C-28.53476563 120.38300781 -28.70234375 121.39492187 -28.875 122.4375 C-29.03742188 123.44683594 -29.19984375 124.45617187 -29.3671875 125.49609375 C-29.57601562 126.32238281 -29.78484375 127.14867187 -30 128 C-30.66 128.33 -31.32 128.66 -32 129 C-32.474375 130.134375 -32.94875 131.26875 -33.4375 132.4375 C-36.74329799 139.31008002 -43.13950118 145.50411478 -50.24609375 148.2578125 C-59.74376475 150.13560385 -71.42060612 151.03920111 -80.25 146.5625 C-88.78448986 140.83716825 -95.13682219 132.93535893 -98 123 C-99.38616874 113.27228487 -97.73334636 102.31882803 -92.69140625 93.78515625 C-91.375 92.125 -91.375 92.125 -89 90 C-88.34 90 -87.68 90 -87 90 C-86.67 89.01 -86.34 88.02 -86 87 C-81.94468574 83.34587994 -77.5393831 81.71442739 -72.2109375 80.84765625 C-71.2317334 80.68402588 -70.2525293 80.52039551 -69.24365234 80.35180664 C-68.50324707 80.23571045 -67.7628418 80.11961426 -67 80 C-67.01332367 78.99410828 -67.02664734 77.98821655 -67.04037476 76.95184326 C-67.16196173 67.4760381 -67.25192688 58.00039099 -67.31087303 48.523983 C-67.34219702 43.65188865 -67.38468896 38.78042356 -67.45263672 33.90869141 C-67.51779177 29.20781517 -67.553698 24.50754442 -67.56926346 19.80625153 C-67.58035682 18.01200068 -67.60202012 16.21778328 -67.63438034 14.42378998 C-67.67789508 11.91167916 -67.68393659 9.40207501 -67.68115234 6.88964844 C-67.71350983 5.77510536 -67.71350983 5.77510536 -67.746521 4.63804626 C-67.7215271 2.55609131 -67.7215271 2.55609131 -67 -1 C-63.70218848 -3.78288331 -60.805378 -5.39320086 -56.5625 -6.125 C-53.86266477 -6.61226308 -51.39136592 -7.19332218 -48.765625 -8.02734375 C-32.21648654 -12.30196561 -14.7573987 -7.75136093 0 0 Z " fill="#DDDDDD" transform="translate(143,24)"/>
<path d="M0 0 C0.33 27.72 0.66 55.44 1 84 C4.63 85.32 8.26 86.64 12 88 C21.16375601 93.15596674 26.47066144 99.06457969 29.8125 108.9375 C31.86802191 116.57563257 31.71118246 124.50240901 29 132 C28.34 132.33 27.68 132.66 27 133 C26.525625 134.134375 26.05125 135.26875 25.5625 136.4375 C22.25670201 143.31008002 15.86049882 149.50411478 8.75390625 152.2578125 C-0.74376475 154.13560385 -12.42060612 155.03920111 -21.25 150.5625 C-29.78448986 144.83716825 -36.13682219 136.93535893 -39 127 C-40.38616874 117.27228487 -38.73334636 106.31882803 -33.69140625 97.78515625 C-32.375 96.125 -32.375 96.125 -30 94 C-29.34 94 -28.68 94 -28 94 C-27.67 93.01 -27.34 92.02 -27 91 C-22.94468574 87.34587994 -18.5393831 85.71442739 -13.2109375 84.84765625 C-12.2317334 84.68402588 -11.2525293 84.52039551 -10.24365234 84.35180664 C-9.50324707 84.23571045 -8.7628418 84.11961426 -8 84 C-8.00888245 82.99188766 -8.01776489 81.98377533 -8.0269165 80.94511414 C-8.10793049 71.45419873 -8.16793075 61.96335328 -8.20724869 52.47217083 C-8.22814192 47.59238485 -8.25649113 42.71287753 -8.30175781 37.83325195 C-8.34515381 33.12593146 -8.36912402 28.41887934 -8.37950897 23.71137428 C-8.3869116 21.91355983 -8.40136696 20.11576041 -8.42292023 18.31805992 C-8.4518718 15.80375568 -8.45595956 13.29056659 -8.45410156 10.77612305 C-8.46848267 10.02949905 -8.48286377 9.28287506 -8.49768066 8.5136261 C-8.47174759 5.27982886 -8.4229307 3.47230794 -6.22161865 1.01399231 C-4 0 -4 0 0 0 Z " fill="#204681" transform="translate(84,20)"/>
<path d="M0 0 C0.33 27.72 0.66 55.44 1 84 C4.63 85.32 8.26 86.64 12 88 C19.0637305 91.9743921 24.56114199 96.5908241 28 104 C28.433125 104.9075 28.86625 105.815 29.3125 106.75 C30.38266265 111.80895071 30.15001478 116.84949268 30 122 C12.1580731 122.80021931 -4.64747304 118.67552323 -18.23974609 106.70507812 C-27.86127324 97.80344792 -27.86127324 97.80344792 -28.1875 93.5625 C-26.25921479 89.40146349 -23.09114389 87.83274804 -19 86 C-17.08389568 85.55526607 -15.15199401 85.17412795 -13.2109375 84.85546875 C-12.2317334 84.69071045 -11.2525293 84.52595215 -10.24365234 84.35620117 C-9.50324707 84.23865479 -8.7628418 84.1211084 -8 84 C-8.00888245 82.99188766 -8.01776489 81.98377533 -8.0269165 80.94511414 C-8.10793049 71.45419873 -8.16793075 61.96335328 -8.20724869 52.47217083 C-8.22814192 47.59238485 -8.25649113 42.71287753 -8.30175781 37.83325195 C-8.34515381 33.12593146 -8.36912402 28.41887934 -8.37950897 23.71137428 C-8.3869116 21.91355983 -8.40136696 20.11576041 -8.42292023 18.31805992 C-8.4518718 15.80375568 -8.45595956 13.29056659 -8.45410156 10.77612305 C-8.46848267 10.02949905 -8.48286377 9.28287506 -8.49768066 8.5136261 C-8.47174759 5.27982886 -8.4229307 3.47230794 -6.22161865 1.01399231 C-4 0 -4 0 0 0 Z " fill="#1A3355" transform="translate(84,20)"/>
<path d="M0 0 C0 26.73 0 53.46 0 81 C-4.29 82.32 -8.58 83.64 -13 85 C-17.27642888 87.2722274 -17.27642888 87.2722274 -20 91 C-20.66 91 -21.32 91 -22 91 C-23.13565077 88.525253 -24.25848108 86.04586848 -25.375 83.5625 C-25.69210938 82.87478516 -26.00921875 82.18707031 -26.3359375 81.47851562 C-29.94424698 73.39740584 -31.37426169 65.70415581 -31.3125 56.875 C-31.30903564 56.05821777 -31.30557129 55.24143555 -31.30200195 54.39990234 C-31.13417618 44.86999476 -30.23742257 35.16543047 -25 27 C-24.47320423 25.76105439 -23.96904084 24.51194322 -23.5 23.25 C-23.005 22.1775 -22.51 21.105 -22 20 C-21.01 19.67 -20.02 19.34 -19 19 C-18.85046875 18.39027344 -18.7009375 17.78054687 -18.546875 17.15234375 C-17.81997812 14.2914853 -16.51798673 13.40843657 -14.25 11.5625 C-11.79932352 9.51881087 -9.51164127 7.51164127 -7.25 5.25 C-2 0 -2 0 0 0 Z " fill="#DADADB" transform="translate(76,23)"/>
<path d="M0 0 C-0.625 1.9375 -0.625 1.9375 -2 4 C-5.125 4.75 -5.125 4.75 -8 5 C-3.16129032 0 -3.16129032 0 0 0 Z " fill="#455975" transform="translate(67,106)"/>
</svg>
