<?xml version="1.0" standalone="no"?>
<!DOCTYPE svg PUBLIC "-//W3C//DTD SVG 20010904//EN"
 "http://www.w3.org/TR/2001/REC-SVG-20010904/DTD/svg10.dtd">
<svg version="1.0" xmlns="http://www.w3.org/2000/svg"
 width="64.000000pt" height="64.000000pt" viewBox="0 0 64.000000 64.000000"
 preserveAspectRatio="xMidYMid meet">

<g transform="translate(0.000000,64.000000) scale(0.100000,-0.100000)"
fill="#000000" stroke="none">
<path d="M218 603 c6 -2 12 -11 12 -19 0 -8 6 -14 14 -14 19 0 48 -29 41 -41
-4 -5 -1 -9 4 -9 13 0 51 -32 51 -42 0 -5 -19 -8 -42 -9 -33 0 -38 -2 -23 -9
12 -5 -6 -7 -48 -5 -39 2 -65 0 -62 -6 4 -5 1 -9 -4 -9 -6 0 -11 -13 -11 -30
0 -30 12 -35 36 -15 8 6 8 12 2 16 -7 4 -6 9 1 13 6 4 11 2 11 -3 0 -6 7 -11
15 -11 8 0 15 -4 15 -9 0 -5 -8 -8 -17 -7 -10 0 -17 -5 -16 -11 2 -7 -3 -13
-10 -14 -6 0 -2 -4 11 -10 15 -6 21 -13 16 -21 -6 -9 -3 -9 9 1 9 7 14 18 10
24 -3 6 -1 7 6 3 6 -4 9 -11 6 -16 -5 -9 60 -26 80 -22 6 1 1 -5 -9 -13 -19
-14 -38 -19 -61 -16 -5 1 -1 -5 9 -14 17 -13 23 -11 60 18 22 18 46 31 54 29
9 -2 11 1 6 10 -5 7 6 2 23 -12 17 -14 30 -28 29 -32 0 -3 3 -5 9 -5 5 1 8 10
7 19 -3 14 1 15 33 6 39 -13 41 -16 21 -43 -11 -15 -28 -19 -99 -20 -47 -1
-84 2 -82 5 3 4 -10 8 -28 8 -18 0 -42 1 -54 2 -12 0 -25 5 -28 10 -4 6 -10 8
-15 5 -5 -3 -11 -1 -15 5 -3 5 -1 10 5 10 7 0 5 7 -4 16 -18 17 -51 15 -51 -3
0 -6 -3 -15 -7 -19 -11 -10 -10 -26 1 -20 9 6 26 -22 23 -36 -1 -5 7 -8 17 -8
11 0 27 -7 35 -16 9 -8 16 -13 16 -9 0 3 8 1 18 -4 9 -5 35 -12 57 -15 106
-16 115 -18 115 -32 0 -9 -4 -13 -9 -9 -6 3 -13 -1 -18 -9 -4 -8 -17 -14 -28
-13 -27 3 -30 -28 -5 -53 17 -17 19 -24 10 -35 -14 -16 -5 -35 16 -35 10 0 13
7 8 25 -4 15 -2 25 5 25 18 0 26 -4 23 -13 -1 -4 4 -6 10 -5 7 2 12 -3 10 -10
-1 -8 2 -11 8 -7 5 3 10 3 10 -2 0 -4 16 -9 35 -10 19 -2 35 2 35 7 0 6 5 10
11 10 5 0 7 -4 4 -10 -3 -5 -2 -10 3 -10 14 0 23 28 11 32 -5 2 -3 12 6 23 8
11 15 16 14 10 -4 -28 2 -44 15 -39 8 3 17 0 22 -7 4 -8 3 -10 -4 -5 -7 4 -12
2 -12 -3 0 -6 7 -11 15 -11 10 0 14 8 11 23 -2 12 -9 21 -15 19 -6 -1 -11 7
-11 18 0 11 -4 20 -10 20 -5 0 -19 9 -30 20 -12 12 -26 17 -32 14 -9 -6 -8 -9
2 -12 34 -11 41 -24 24 -43 -9 -10 -20 -16 -24 -14 -4 3 -10 -4 -13 -15 -6
-24 -27 -27 -27 -4 0 8 -4 13 -8 10 -5 -3 -16 6 -26 19 -10 14 -23 22 -29 18
-6 -3 -7 -1 -3 6 6 9 11 9 21 1 21 -18 82 21 68 44 -3 5 -1 6 5 2 7 -4 12 -3
12 2 0 18 -13 20 -36 5 -13 -8 -24 -12 -24 -8 0 4 -6 2 -14 -4 -11 -9 -20 -10
-35 -1 -12 6 -21 13 -21 16 0 3 5 2 11 -1 5 -4 18 0 27 8 22 20 33 22 43 5 6
-10 11 -9 23 7 9 11 16 28 16 38 0 10 4 16 8 13 5 -3 9 0 10 7 2 22 7 42 16
55 4 7 3 19 -3 26 -6 7 -8 16 -4 19 7 7 -11 11 -37 8 -10 -1 -11 1 -4 6 11 8
27 47 29 68 0 6 -6 16 -13 24 -12 12 -15 12 -22 0 -6 -9 -4 -16 5 -21 19 -11
-10 -69 -31 -61 -13 5 -12 7 2 17 11 8 14 22 11 43 -6 35 7 45 45 36 l23 -5
-21 15 c-30 23 -92 28 -110 10 -19 -20 -18 -34 4 -26 12 4 10 -1 -7 -15 -13
-12 -24 -22 -25 -22 -1 0 -1 19 -1 43 0 33 -5 46 -23 58 l-24 16 28 7 c23 6
32 3 46 -14 10 -12 18 -17 18 -11 0 6 6 8 14 5 10 -4 14 2 12 19 0 14 -3 24
-5 22 -4 -5 -31 21 -31 30 0 3 5 3 12 -1 7 -4 8 -3 4 4 -4 6 -14 8 -23 5 -12
-5 -14 -3 -8 8 8 12 6 12 -9 0 -15 -12 -17 -12 -14 0 3 16 -39 20 -59 6 -7 -5
-17 -6 -22 -2 -7 3 -8 0 -5 -9 7 -19 21 -21 26 -4 4 10 14 9 46 -2 44 -14 52
-35 14 -35 -11 0 -24 -4 -28 -8 -4 -4 -13 -2 -21 4 -7 6 -13 8 -13 4 0 -4 -15
9 -33 29 -19 20 -37 33 -40 29 -4 -3 -7 -1 -7 5 0 7 -8 12 -17 11 -11 0 -13
-3 -5 -6z m215 -77 c4 -10 0 -12 -14 -9 -10 3 -16 9 -13 14 8 13 21 11 27 -5z
m-92 -83 c13 -16 12 -17 -3 -4 -17 13 -22 21 -14 21 2 0 10 -8 17 -17z m-107
-14 c-8 -13 -21 -11 -27 5 -4 10 0 12 14 9 10 -3 16 -9 13 -14z m81 2 c-7 -12
-54 -10 -62 2 -4 7 5 8 26 4 23 -5 30 -3 25 5 -4 7 -3 8 5 4 6 -4 9 -11 6 -15z
m40 -35 c17 -17 1 -36 -31 -36 -17 0 -20 5 -16 25 5 28 26 33 47 11z m-65 -6
c0 -5 -5 -10 -11 -10 -5 0 -7 5 -4 10 3 6 8 10 11 10 2 0 4 -4 4 -10z m119
-22 c0 -13 -3 -17 -6 -10 -2 6 -10 9 -16 5 -7 -4 -6 1 2 10 18 22 21 21 20 -5z
m-122 -14 c-3 -3 -12 -4 -19 -1 -8 3 -5 6 6 6 11 1 17 -2 13 -5z m153 -4 c0
-5 -2 -10 -4 -10 -3 0 -8 5 -11 10 -3 6 -1 10 4 10 6 0 11 -4 11 -10z m-273
-45 c0 -8 -4 -12 -9 -9 -5 3 -6 10 -3 15 9 13 12 11 12 -6z m233 -241 c0 -2
-7 -4 -16 -4 -8 0 -13 4 -9 9 3 6 -4 15 -15 21 -11 6 -18 15 -14 21 5 9 54
-33 54 -47z"/>
<path d="M159 583 c-7 -7 -14 -11 -17 -8 -3 3 -10 -5 -17 -18 -7 -13 -19 -21
-31 -19 -14 2 -16 1 -6 -6 11 -8 9 -14 -10 -31 -12 -12 -23 -28 -23 -34 -1 -7
-6 -11 -12 -10 -7 2 -10 -6 -8 -16 4 -21 -8 -44 -21 -39 -5 1 -10 -14 -12 -34
-3 -30 0 -38 14 -38 12 0 14 4 7 13 -11 13 9 62 20 50 4 -3 7 1 7 10 0 8 6 22
14 30 8 8 13 23 12 33 -2 12 8 25 26 36 15 10 28 25 28 33 0 9 5 13 10 10 6
-3 10 -1 10 4 0 6 8 11 18 11 14 0 14 2 3 9 -11 7 -5 10 20 13 33 3 33 3 7 9
-18 4 -32 1 -39 -8z"/>
<path d="M187 527 c2 -4 -2 -10 -11 -13 -8 -3 -17 -13 -21 -22 -4 -12 1 -10
18 6 26 24 42 29 32 10 -4 -7 1 -4 10 7 12 16 19 17 34 8 14 -9 18 -8 18 3 0
10 -12 13 -43 11 -23 -1 -40 -5 -37 -10z"/>
<path d="M477 495 c-8 -20 -4 -29 11 -24 5 2 6 13 2 23 -6 19 -7 19 -13 1z"/>
<path d="M212 481 c-10 -6 -7 -10 12 -13 15 -3 27 0 30 8 6 16 -21 19 -42 5z"/>
<path d="M475 70 c-11 -17 5 -32 21 -19 7 6 11 15 8 20 -7 12 -21 11 -29 -1z"/>
<path d="M330 15 c0 -8 4 -15 10 -15 5 0 7 7 4 15 -8 19 -14 19 -14 0z"/>
<path d="M396 17 c3 -10 9 -15 12 -12 3 3 0 11 -7 18 -10 9 -11 8 -5 -6z"/>
</g>
</svg>
