<svg version="1.1" id="Layer_1" xmlns="http://www.w3.org/2000/svg" xmlns:xlink="http://www.w3.org/1999/xlink" x="0px" y="0px"
	 width="100%" viewBox="0 0 64 64" enable-background="new 0 0 64 64" xml:space="preserve">
<path fill="#4CA3FF" opacity="1.000000" stroke="none" 
	d="
M43.000000,65.000000 
	C36.645603,65.000000 30.291204,65.000000 23.804621,64.732315 
	C22.776810,63.812740 21.971794,62.910858 20.971327,62.548252 
	C12.425756,59.451035 6.595778,53.727291 3.496188,45.142986 
	C3.172042,44.245262 1.855893,43.705723 1.000000,43.000000 
	C1.000000,36.645603 1.000000,30.291204 1.267701,23.804605 
	C2.187353,22.776636 3.088987,21.971457 3.452030,20.970863 
	C6.551544,12.428226 12.268161,6.591696 20.856371,3.496349 
	C21.754194,3.172756 22.294056,1.855975 23.000000,1.000000 
	C29.354399,1.000000 35.708797,1.000000 42.195396,1.267702 
	C43.223366,2.187356 44.028549,3.088984 45.029144,3.452036 
	C53.571758,6.551607 59.408363,12.268181 62.503677,20.856447 
	C62.827255,21.754244 64.144035,22.294083 65.000000,23.000000 
	C65.000000,29.354399 65.000000,35.708797 64.732300,42.195396 
	C63.812725,43.223225 62.910851,44.028248 62.548244,45.028717 
	C59.451035,53.574280 53.727268,59.404221 45.142982,62.503811 
	C44.245258,62.827957 43.705723,64.144104 43.000000,65.000000 
M41.518372,24.011417 
	C38.726196,20.654215 35.934017,17.297010 32.493626,13.160416 
	C27.847160,19.543905 23.089386,25.188011 19.365658,31.447283 
	C15.647924,37.696480 18.889534,46.384468 25.445086,50.114838 
	C32.181248,53.947975 40.970943,52.023033 45.052402,45.820835 
	C49.751274,38.680420 48.950920,33.050365 41.518372,24.011417 
z"/>
<path fill="#000000" opacity="1.000000" stroke="none" 
	d="
M22.531218,1.000000 
	C22.294056,1.855975 21.754194,3.172756 20.856371,3.496349 
	C12.268161,6.591696 6.551544,12.428226 3.452030,20.970863 
	C3.088987,21.971457 2.187353,22.776636 1.267701,23.336203 
	C1.000000,15.740432 1.000000,8.480865 1.000000,1.000000 
	C8.019269,1.000000 15.040852,1.000000 22.531218,1.000000 
z"/>
<path fill="#000000" opacity="1.000000" stroke="none" 
	d="
M65.000000,22.531219 
	C64.144035,22.294083 62.827255,21.754244 62.503677,20.856447 
	C59.408363,12.268181 53.571758,6.551607 45.029144,3.452036 
	C44.028549,3.088984 43.223366,2.187356 42.663795,1.267702 
	C50.259567,1.000000 57.519135,1.000000 65.000000,1.000000 
	C65.000000,8.019269 65.000000,15.040852 65.000000,22.531219 
z"/>
<path fill="#000000" opacity="1.000000" stroke="none" 
	d="
M1.000000,43.468781 
	C1.855893,43.705723 3.172042,44.245262 3.496188,45.142986 
	C6.595778,53.727291 12.425756,59.451035 20.971327,62.548252 
	C21.971794,62.910858 22.776810,63.812740 23.336218,64.732315 
	C15.740432,65.000000 8.480865,65.000000 1.000000,65.000000 
	C1.000000,57.980732 1.000000,50.959148 1.000000,43.468781 
z"/>
<path fill="#000000" opacity="1.000000" stroke="none" 
	d="
M43.468781,65.000000 
	C43.705723,64.144104 44.245258,62.827957 45.142982,62.503811 
	C53.727268,59.404221 59.451035,53.574280 62.548244,45.028717 
	C62.910851,44.028248 63.812725,43.223225 64.732300,42.663799 
	C65.000000,50.259567 65.000000,57.519135 65.000000,65.000000 
	C57.980732,65.000000 50.959148,65.000000 43.468781,65.000000 
z"/>
<path fill="#FEFEFF" opacity="1.000000" stroke="none" 
	d="
M41.772030,24.270439 
	C48.950920,33.050365 49.751274,38.680420 45.052402,45.820835 
	C40.970943,52.023033 32.181248,53.947975 25.445086,50.114838 
	C18.889534,46.384468 15.647924,37.696480 19.365658,31.447283 
	C23.089386,25.188011 27.847160,19.543905 32.493626,13.160416 
	C35.934017,17.297010 38.726196,20.654215 41.772030,24.270439 
M29.005033,28.203238 
	C29.901159,29.858553 30.462523,31.864037 31.757551,33.102093 
	C35.329342,36.516743 39.208031,39.610382 42.974094,42.838482 
	C45.438660,38.802475 45.264698,34.165573 42.168324,29.817818 
	C40.174686,27.018459 37.676247,24.582073 35.452011,21.942591 
	C32.823261,18.823076 30.911316,20.150555 29.589567,23.038174 
	C29.008516,24.307592 29.175364,25.919346 29.005033,28.203238 
M21.077417,34.990494 
	C21.090284,40.038719 22.320559,44.874222 27.391970,46.676479 
	C30.399673,47.745338 35.865753,48.178135 37.109856,46.535896 
	C39.269886,43.684616 36.333351,40.630806 33.240166,38.434242 
	C29.818628,36.004501 26.934217,32.818375 23.734665,29.887257 
	C23.048397,31.127609 22.184090,32.689754 21.077417,34.990494 
z"/>
<path fill="#4CA3FF" opacity="1.000000" stroke="none" 
	d="
M29.003834,27.789452 
	C29.175364,25.919346 29.008516,24.307592 29.589567,23.038174 
	C30.911316,20.150555 32.823261,18.823076 35.452011,21.942591 
	C37.676247,24.582073 40.174686,27.018459 42.168324,29.817818 
	C45.264698,34.165573 45.438660,38.802475 42.974094,42.838482 
	C39.208031,39.610382 35.329342,36.516743 31.757551,33.102093 
	C30.462523,31.864037 29.901159,29.858553 29.003834,27.789452 
z"/>
<path fill="#4DA3FF" opacity="1.000000" stroke="none" 
	d="
M21.198601,34.621193 
	C22.184090,32.689754 23.048397,31.127609 23.734665,29.887257 
	C26.934217,32.818375 29.818628,36.004501 33.240166,38.434242 
	C36.333351,40.630806 39.269886,43.684616 37.109856,46.535896 
	C35.865753,48.178135 30.399673,47.745338 27.391970,46.676479 
	C22.320559,44.874222 21.090284,40.038719 21.198601,34.621193 
z"/>
</svg>