<?xml version="1.0" encoding="UTF-8"?>
<svg version="1.1" xmlns="http://www.w3.org/2000/svg" width="192" height="192">
<path d="M0 0 C17.78778227 14.88481621 28.89776074 31.78884986 34.9375 54.25 C35.16566406 55.07371094 35.39382812 55.89742188 35.62890625 56.74609375 C41.09091704 80.61851853 35.50928597 106.91415196 22.7734375 127.51953125 C8.01205556 149.47316099 -11.6191528 163.40835645 -37.0625 170.25 C-37.88621094 170.47816406 -38.70992188 170.70632812 -39.55859375 170.94140625 C-63.43101853 176.40341704 -89.72665196 170.82178597 -110.33203125 158.0859375 C-132.28566099 143.32455556 -146.22085645 123.6933472 -153.0625 98.25 C-153.29066406 97.42628906 -153.51882812 96.60257812 -153.75390625 95.75390625 C-159.21591704 71.88148147 -153.63428597 45.58584804 -140.8984375 24.98046875 C-126.13705556 3.02683901 -106.5058472 -10.90835645 -81.0625 -17.75 C-80.23878906 -17.97816406 -79.41507812 -18.20632812 -78.56640625 -18.44140625 C-51.39978049 -24.65713022 -21.78975472 -16.76134979 0 0 Z " fill="#000000" transform="translate(155.0625,19.75)"/>
<path d="M0 0 C17.78778227 14.88481621 28.89776074 31.78884986 34.9375 54.25 C35.16566406 55.07371094 35.39382812 55.89742188 35.62890625 56.74609375 C41.09091704 80.61851853 35.50928597 106.91415196 22.7734375 127.51953125 C8.01205556 149.47316099 -11.6191528 163.40835645 -37.0625 170.25 C-37.88621094 170.47816406 -38.70992188 170.70632812 -39.55859375 170.94140625 C-63.43101853 176.40341704 -89.72665196 170.82178597 -110.33203125 158.0859375 C-132.28566099 143.32455556 -146.22085645 123.6933472 -153.0625 98.25 C-153.29066406 97.42628906 -153.51882812 96.60257812 -153.75390625 95.75390625 C-159.21591704 71.88148147 -153.63428597 45.58584804 -140.8984375 24.98046875 C-126.13705556 3.02683901 -106.5058472 -10.90835645 -81.0625 -17.75 C-80.23878906 -17.97816406 -79.41507812 -18.20632812 -78.56640625 -18.44140625 C-51.39978049 -24.65713022 -21.78975472 -16.76134979 0 0 Z M-125.0625 16.25 C-142.70750568 37.32746879 -148.60635095 61.16846559 -147.0625 88.25 C-144.6691565 110.61402945 -131.81946957 130.775108 -115.0625 145.25 C-94.1789907 161.17127526 -70.55580509 166.93975228 -44.60595703 163.96875 C-22.93248889 160.66969669 -2.05947307 147.98610748 11.19238281 130.60400391 C25.80404172 110.15819342 32.11520407 87.06084286 28.62548828 62.01025391 C27.99139185 58.66645759 27.1137395 55.44265008 25.9375 52.25 C24.6175 52.25 23.2975 52.25 21.9375 52.25 C19.93109176 54.67604927 19.93109176 54.67604927 18.17578125 57.8984375 C17.66051628 58.77730118 17.66051628 58.77730118 17.13484192 59.67391968 C16.0545507 61.52463693 14.99540182 63.38641299 13.9375 65.25 C12.96369385 66.92884277 12.96369385 66.92884277 11.97021484 68.64160156 C10.3421692 71.45881761 8.72827293 74.28339672 7.12399292 77.11419678 C6.09534816 78.92726369 5.06206499 80.73761842 4.02758789 82.54736328 C0.88907819 88.04101415 -2.23271598 93.54249511 -5.296875 99.078125 C-5.78051514 99.94099121 -6.26415527 100.80385742 -6.76245117 101.69287109 C-7.63592399 103.25200677 -8.4990593 104.81700598 -9.34887695 106.38916016 C-13.5523722 113.84108608 -19.01040655 118.41685601 -27.0625 121.25 C-34.93433663 122.82436733 -43.04586597 122.82807189 -51.0625 123.25 C-51.0625 104.77 -51.0625 86.29 -51.0625 67.25 C-53.54605203 70.5614027 -55.54817114 73.71968011 -57.57421875 77.30859375 C-57.90613724 77.89359146 -58.23805573 78.47858917 -58.58003235 79.08131409 C-59.63930235 80.94857675 -60.69504209 82.81779817 -61.75 84.6875 C-65.8698225 91.98610815 -70.01022905 99.26845493 -74.359375 106.43359375 C-74.98553711 107.46669678 -75.61169922 108.4997998 -76.25683594 109.56420898 C-81.44939651 117.2877567 -88.07837842 120.45317568 -97.0625 122.25 C-103.3325 122.58 -109.6025 122.91 -116.0625 123.25 C-116.0625 96.19 -116.0625 69.13 -116.0625 41.25 C-105.1725 41.25 -94.2825 41.25 -83.0625 41.25 C-83.0625 59.07 -83.0625 76.89 -83.0625 95.25 C-80.10195897 91.54932371 -77.85216812 88.36620551 -75.55859375 84.3046875 C-75.07840538 83.45922363 -75.07840538 83.45922363 -74.58851624 82.59667969 C-73.55494084 80.7750571 -72.52738195 78.95012156 -71.5 77.125 C-70.43043973 75.23480132 -69.35950345 73.34538743 -68.2883606 71.45608521 C-67.5732542 70.19470314 -66.85863336 68.93304568 -66.14450073 67.67111206 C-63.97867221 63.84804104 -61.78638431 60.04200447 -59.56640625 56.25 C-59.05343994 55.37359863 -58.54047363 54.49719727 -58.01196289 53.59423828 C-57.06517179 51.98132853 -56.11527159 50.37023872 -55.16186523 48.76123047 C-52.87499672 45.24240148 -52.87499672 45.24240148 -52.0625 41.25 C-41.1725 41.25 -30.2825 41.25 -19.0625 41.25 C-19.0625 59.4 -19.0625 77.55 -19.0625 96.25 C-16.15626706 92.61720883 -13.94529307 89.53033488 -11.69921875 85.55078125 C-11.06636963 84.43590332 -10.43352051 83.32102539 -9.78149414 82.17236328 C-9.10412907 80.9691883 -8.42696908 79.76589783 -7.75 78.5625 C-6.32724618 76.04459496 -4.90205199 73.52807579 -3.4765625 71.01171875 C-3.1141597 70.3710144 -2.7517569 69.73031006 -2.37837219 69.07019043 C0.13672242 64.63299467 2.69917253 60.22592093 5.2890625 55.83203125 C5.98281166 54.6500692 6.67641777 53.46802317 7.36987305 52.28588867 C8.68192208 50.05398352 10.00083618 47.82609636 11.32739258 45.6027832 C11.91931396 44.59175537 12.51123535 43.58072754 13.12109375 42.5390625 C13.64243896 41.65943848 14.16378418 40.77981445 14.70092773 39.87353516 C16.07888081 36.95004379 16.63884389 34.46200901 16.9375 31.25 C10.46509147 14.44762746 -8.06069242 2.60418947 -23.375 -5.0625 C-58.1876478 -20.08382279 -99.10613085 -11.39184766 -125.0625 16.25 Z " fill="#FEFEFE" transform="translate(155.0625,19.75)"/>
</svg>
