<?xml version="1.0" encoding="UTF-8"?>
<svg version="1.1" xmlns="http://www.w3.org/2000/svg" width="192" height="192">
<path d="M0 0 C19.64310634 16.50723368 34.95998326 37.87100875 38 64 C39.93968261 91.4302756 35.56724201 117.47545518 17.4296875 139.05859375 C0.66455385 158.04290323 -21.38232983 172.40063212 -47.21777344 174.22753906 C-75.34900197 175.47799065 -100.83683736 170.04743092 -122.1875 150.625 C-140.71410423 133.23568413 -153.23916107 111.01762334 -154.3828125 85.2890625 C-155.07663198 57.50243854 -148.60950022 32.97321456 -129.18408203 12.27734375 C-95.57926542 -22.68905719 -39.51600256 -29.91343935 0 0 Z " fill="#000000" transform="translate(154,18)"/>
<path d="M0 0 C2.05078125 1.12890625 2.05078125 1.12890625 4 2.4375 C4.69480469 2.90027344 5.38960937 3.36304688 6.10546875 3.83984375 C12.94263238 9.08637269 17.21437736 17.04213027 19 25.4375 C20.12584489 38.41033892 19.55920414 49.5502613 10.953125 59.8671875 C7.99009498 62.24946364 4.40056307 63.73721846 1 65.4375 C6.94 65.7675 12.88 66.0975 19 66.4375 C19.45059887 78.71631914 18.84960621 88.69032728 10.76953125 98.65234375 C4.36042953 105.11803798 -3.11262789 108.69997079 -12.25 108.8125 C-18.59400499 108.70411723 -23.42758399 107.42061317 -29 104.4375 C-29.64710937 104.09847656 -30.29421875 103.75945312 -30.9609375 103.41015625 C-37.90731997 99.14829277 -42.05621555 91.16846087 -44 83.4375 C-44.35935284 79.5182031 -44.41575184 75.62149979 -44.4375 71.6875 C-44.47037109 70.65367188 -44.50324219 69.61984375 -44.53710938 68.5546875 C-44.59351863 60.41124279 -42.88999871 53.53917479 -37.15600586 47.49316406 C-34.22880409 44.84333743 -31.57401572 43.22450786 -28 41.4375 C-33.28 41.1075 -38.56 40.7775 -44 40.4375 C-44.08174796 37.60357074 -44.14084985 34.77205181 -44.1875 31.9375 C-44.21263672 31.14601562 -44.23777344 30.35453125 -44.26367188 29.5390625 C-44.37219628 20.71241099 -41.6414842 14.37732488 -36.10546875 7.5546875 C-26.99049624 -1.61101769 -12.15737858 -4.99092384 0 0 Z " fill="#FCFCFC" transform="translate(109,42.5625)"/>
<path d="M0 0 C2.875 0.875 2.875 0.875 4.875 2.875 C5.12896729 5.41111755 5.12896729 5.41111755 5.13378906 8.65405273 C5.14009338 9.86548447 5.14639771 11.0769162 5.15289307 12.32505798 C5.1488446 13.63962479 5.14479614 14.95419159 5.140625 16.30859375 C5.14197191 17.66618418 5.14391265 19.02377414 5.14642334 20.38136292 C5.14937442 23.22865383 5.14507825 26.07581935 5.13574219 28.9230957 C5.12435837 32.57282994 5.13090022 36.22226969 5.14288712 39.87199306 C5.15011547 42.67639889 5.14781314 45.48073497 5.14263153 48.2851429 C5.14064797 50.28542903 5.14672333 52.28571788 5.15289307 54.28599548 C5.14658875 55.50057938 5.14028442 56.71516327 5.13378906 57.96655273 C5.13140228 59.57299904 5.13140228 59.57299904 5.12896729 61.2118988 C4.875 63.875 4.875 63.875 2.875 66.875 C0.9296875 67.16796875 0.9296875 67.16796875 -1.25 67.0625 C-2.52875 67.000625 -3.8075 66.93875 -5.125 66.875 C-7.13433815 63.52470827 -7.38673967 60.9471282 -7.41552734 57.06835938 C-7.42828705 55.9003479 -7.44104675 54.73233643 -7.45419312 53.52893066 C-7.45641876 52.27157104 -7.45864441 51.01421143 -7.4609375 49.71875 C-7.4675943 48.42432983 -7.4742511 47.12990967 -7.48110962 45.79626465 C-7.49306851 43.05929223 -7.49679173 40.32244592 -7.49560547 37.58544922 C-7.49540199 34.0813698 -7.52273893 30.57809877 -7.55714989 27.07421112 C-7.5847501 23.72654481 -7.58356729 20.37902868 -7.5859375 17.03125 C-7.60030853 15.77389038 -7.61467957 14.51653076 -7.62948608 13.22106934 C-7.62333282 12.05305786 -7.61717957 10.88504639 -7.61083984 9.68164062 C-7.61368988 8.65445923 -7.61653992 7.62727783 -7.61947632 6.56896973 C-6.77854089 1.98744681 -4.67409884 -0.18696395 0 0 Z " fill="#020202" transform="translate(97.125,62.125)"/>
</svg>
